<svg xmlns="http://www.w3.org/2000/svg" xmlns:xlink="http://www.w3.org/1999/xlink" width="340" height="286" viewBox="0 0 340 286">
    <defs>
        <linearGradient id="a" x1="50%" x2="50%" y1="0%" y2="100%">
            <stop offset="0%" stop-color="#5DCAD9"/>
            <stop offset="100%" stop-color="#25B0BD"/>
        </linearGradient>
        <path id="c" d="M59.48 82.677h186.17a5.948 5.948 0 0 1 5.949 5.948v92.193c0 32.85-26.63 59.48-59.48 59.48H5.948A5.948 5.948 0 0 1 0 234.348v-92.193c0-32.85 26.63-59.48 59.48-59.48z"/>
        <filter id="b" width="134.6%" height="155.2%" x="-17.3%" y="-27.6%" filterUnits="objectBoundingBox">
            <feOffset in="SourceAlpha" result="shadowOffsetOuter1"/>
            <feGaussianBlur in="shadowOffsetOuter1" result="shadowBlurOuter1" stdDeviation="14.5"/>
            <feColorMatrix in="shadowBlurOuter1" values="0 0 0 0 0.0338824728 0 0 0 0 0.0338824728 0 0 0 0 0.0338824728 0 0 0 0.0848618659 0"/>
        </filter>
        <linearGradient id="d" x1="50%" x2="50%" y1="0%" y2="100%">
            <stop offset="0%" stop-color="#D10808"/>
            <stop offset="100%" stop-color="#A41212"/>
        </linearGradient>
        <path id="e" d="M.31 4.752S1.133.425 2.148.096C3.16-.232 15.272 1.931 15.43 3.61c0 0-.028 2.805-.742 4.505 0 0-8.724-4.249-14.378-3.363"/>
        <linearGradient id="g" x1="50%" x2="50%" y1="0%" y2="100%">
            <stop offset="0%" stop-color="#D10808"/>
            <stop offset="100%" stop-color="#A41212"/>
        </linearGradient>
        <path id="h" d="M.105 1.185S4.226-.353 5.033.345c.806.697 5.233 12.189 3.882 13.194 0 0-2.412 1.43-4.234 1.7 0 0-.89-9.671-4.576-14.054"/>
        <path id="j" d="M4.524.61c3.448.69 11.203 2.527 15.168 3.476a4.105 4.105 0 0 1 3.032 3.02l1.1 4.485S3.878 6.91.009 5.675l2.432-4.128A1.971 1.971 0 0 1 4.524.61"/>
    </defs>
    <g fill="none" fill-rule="evenodd">
        <g transform="translate(20)">
            <circle cx="232.862" cy="87.138" r="87.138" fill="url(#a)"/>
            <g transform="matrix(-1 0 0 1 251.599 0)">
                <use fill="#000" filter="url(#b)" xlink:href="#c"/>
                <use fill="#FDFBF7" xlink:href="#c"/>
            </g>
        </g>
        <path fill="url(#d)" d="M39.6 58.526c5.51-.744 21.946-2.498 31.405-3.493a15.36 15.36 0 0 0 10.95-6.426C85.872 43.053 91.489 35.022 93.357 32c1.207-1.949 2.65-3.864 4.69-4.903 4.48-2.28 6.202-.541 10.496 2.07-2.813 8.4-5.09 14.321-10.39 21.416-3.473 4.65-9.003 13.296-12.007 18.067a10.506 10.506 0 0 1-6.079 4.526C70.22 75.92 44.462 82.38 30.604 79.18c-1.72-.397-3.62-1.013-4.419-2.59-1.253-2.475.182-10.939 1.695-13.326 2.348-3.7 7.7-4.197 11.72-4.737" transform="translate(47.955 52.342)"/>
        <path fill="#F8E5BE" d="M157.037 81.95s-.513-2.79 1.106-5.627c1.619-2.84 4.099-6.84 1.382-7.041-2.716-.202 2.63-2.473.991-7.45-1.639-4.976-12.494 2.36-13.903 8.565-1.408 6.204-1.483 9.21-1.483 9.21l11.907 2.344"/>
        <path fill="#FFFFFE" d="M142.631 81.186s.823-4.327 1.836-4.656c1.014-.329 13.125 1.835 13.284 3.513 0 0-.027 2.805-.742 4.506 0 0-8.724-4.249-14.378-3.363"/>
        <g transform="translate(142.32 76.434)">
            <mask id="f" fill="#fff">
                <use xlink:href="#e"/>
            </mask>
            <path fill="#B0C6DD" d="M16.356.597a150.633 150.633 0 0 1-2.365 12.72l.001-.002a4.151 4.151 0 0 0-.085.435l-.035.277.294-.009h.01a.45.45 0 0 0 .295-.146.454.454 0 0 0 .123-.303l-.01-.087-.466.107.083-.02h-.085l.002.02.083-.02h-.085.053l-.049-.021-.004.021h.053l-.049-.021.026.034-.003-.042-.024.008.027.034-.003-.042.017.24-.008-.24h-.015l.007.24.237.03c.015-.12.044-.252.076-.385v-.001c.978-4.248 1.772-8.51 2.372-12.76l-.473-.067M15.278.14a208.056 208.056 0 0 1-3.056 12.358c-.037.134-.08.287-.091.455l-.017.24.256.016h.019a.422.422 0 0 0 .3-.134.425.425 0 0 0 .128-.297l-.02-.122-.45.162.111-.04h-.118l.007.04.111-.04h-.118.046l-.038-.037-.008.037h.046l-.038-.037.04.04v-.05l-.04.01.04.04v-.05.104l.005-.104h-.004v.104l.004-.104-.009.239.014-.24h-.016l-.013.239.238.016c.006-.1.038-.227.075-.358A208.85 208.85 0 0 0 15.746.24l-.468-.1M14.202-.317a364.628 364.628 0 0 1-3.748 11.997c-.043.134-.097.293-.1.477v.205l.217.034.003.001.05.003a.414.414 0 0 0 .29-.127.414.414 0 0 0 .128-.289l-.038-.155-.424.22.125-.065h-.142l.017.065.125-.065h-.142.063l-.05-.05-.013.05h.063l-.05-.05.048.047v-.059l-.048.012.048.047v-.059.125l.017-.124h-.017v.124l.017-.124-.033.237.037-.236-.015-.002-.037.236.239.001c0-.081.032-.203.076-.328l.001-.006-.001.005A364.874 364.874 0 0 0 14.66-.182l-.458-.135M13.127-.773a1998.38 1998.38 0 0 1-4.44 11.636v-.001c-.047.124-.107.276-.11.459l.003.04.01.167.173.051.004.002.003.001.087.011a.41.41 0 0 0 .283-.123.4.4 0 0 0 .126-.281l-.057-.185-.391.273.127-.088H8.79l.029.088.127-.088H8.79h.074l-.058-.06-.016.06h.074l-.058-.06.052.053v-.068l-.052.015.052.053v-.068.138l.035-.133-.035-.005v.138l.035-.133-.06.232.068-.23-.014-.004-.068.23.238-.016v-.01a.871.871 0 0 1 .076-.286v-.001c1.523-3.96 3.012-7.85 4.442-11.638l-.447-.17M12.053-1.23A537.319 537.319 0 0 0 6.92 10.045c-.05.116-.116.262-.119.446l.005.074.018.141.145.057.121.023a.397.397 0 0 0 .277-.119.389.389 0 0 0 .126-.276l-.083-.211-.35.325.122-.114h-.168l.046.114.122-.114h-.168.086l-.065-.068-.02.068h.085l-.065-.068.055.058v-.073l-.055.015.055.058v-.073.145l.054-.135-.054-.01v.145l.054-.135-.013-.005-.088.223.237-.03v-.015a.703.703 0 0 1 .077-.254v.001a541.133 541.133 0 0 1 5.13-11.264l-.433-.204M10.98-1.687A235.265 235.265 0 0 0 5.153 9.227c-.054.11-.127.252-.13.439l.01.105.023.115.118.059.106-.214-.112.21.153.039a.393.393 0 0 0 .271-.115.384.384 0 0 0 .125-.271l-.11-.234-.304.369.11-.135h-.174l.064.135.11-.135h-.174.094l-.071-.076-.023.076h.094l-.071-.076.06.063v-.08l-.06.017.06.063v-.08.154l.071-.135-.072-.018v.153l.072-.135-.002-.002-.016-.007-.108.214.235-.046v-.013a.58.58 0 0 1 .077-.224A233.838 233.838 0 0 1 11.396-1.45l-.415-.237M9.91-2.142a150.259 150.259 0 0 0-6.525 10.55c-.058.11-.137.247-.141.438l.017.129.022.085.084.058.183.057a.394.394 0 0 0 .267-.112.374.374 0 0 0 .125-.267.303.303 0 0 0-.138-.251l-.258.402.097-.151h-.18l.083.151.097-.151h-.18.103l-.077-.082-.026.082h.103l-.077-.082.061.065v-.082l-.06.017.06.065v-.082.155l.089-.127-.089-.028v.155l.089-.127-.012-.009-.136.198.231-.062v-.006a.528.528 0 0 1 .08-.202 149.093 149.093 0 0 1 6.503-10.517l-.395-.269M8.84-2.596A112.293 112.293 0 0 0 1.62 7.592c-.064.105-.15.24-.154.436l.024.15.02.061.06.053.001.001h.001l.207.077a.393.393 0 0 0 .263-.11.36.36 0 0 0 .124-.263.296.296 0 0 0-.164-.263l-.213.428.083-.165h-.183l.1.165.083-.165h-.183.109l-.08-.087-.03.087h.11l-.08-.087.061.067v-.085l-.062.018.062.067v-.085.157l.102-.12-.102-.037v.157l.102-.12-.008-.007-.158.18.227-.076-.005.002h.006v-.002l-.006.002h.006l.08-.18v-.001a111.55 111.55 0 0 1 7.19-10.144l-.372-.3M7.772-3.05A91.074 91.074 0 0 0-.146 6.776l-.009.012.009-.012c-.068.104-.162.236-.168.437l.033.17.016.04.04.042.002.004h.002l.228.097a.387.387 0 0 0 .26-.106.358.358 0 0 0 .124-.262L.337 7.03l-.138-.103-.168.448.063-.168-.142.105.08.063.062-.168-.142.105.154-.114h-.192l.038.114.154-.114h-.192.115l-.085-.091c-.001.007-.023.005-.03.091h.115l-.085-.091.063.068v-.087l-.063.019.063.068v-.087.16l.114-.11-.114-.05v.16l.114-.11-.171.165.176-.161-.01-.011-.176.162L.16 7.2l-.026.011h.029L.16 7.201l-.026.011h.029l.081-.164v.001a90.451 90.451 0 0 1 7.877-9.772l-.35-.326M6.702-3.5a78.369 78.369 0 0 0-8.614 9.459c-.073.102-.173.231-.18.438l.042.187.009.019.02.028.005.007.005.005.246.118a.388.388 0 0 0 .256-.104c.056-.057.117-.117.126-.26l-.066-.18-.15-.096-.13.461.049-.171-.134.113.086.058.048-.171-.134.113.15-.126h-.197l.047.126.15-.126h-.197.12l-.087-.097c-.002.008-.025.005-.033.097h.12l-.087-.097.063.07v-.088l-.063.018.063.07v-.088.16l.124-.102-.124-.058v.16l.124-.102-.185.151.194-.139-.008-.012-.195.14.215-.105-.044.02h.05l-.006-.02-.044.02h.05l.016-.044.065-.101A77.64 77.64 0 0 1 7.028-3.15l-.326-.35M5.635-3.952a69.989 69.989 0 0 0-9.311 9.095c-.079.1-.188.226-.195.439l.073.238v-.002a.317.317 0 0 0 .26.139.39.39 0 0 0 .253-.101c.056-.057.118-.113.127-.258l-.078-.195-.161-.084-.093.468.034-.17-.123.12.089.05.034-.17-.123.12.143-.14h-.2l.057.14.143-.14h-.2.124l-.088-.1c-.002.009-.027.005-.035.1h.123l-.088-.1.063.072v-.09l-.063.018.063.072v-.09.16l.132-.091-.132-.069v.16l.132-.091v-.001l-.05.035h.061l-.012-.035-.05.035h.062-.013l.013.002v-.002h-.013l.013.002.082-.131a69.483 69.483 0 0 1 9.246-9.032l-.3-.373" mask="url(#f)"/>
        </g>
        <path fill="#47281E" d="M149.557 265.769s.078 1.758-.577 3.468c-.655 1.708-.995 2.603-.48 6.145.514 3.542 2.577 3.49 4.635 3.42 2.06-.07 2.206.23 3.093-.443.886-.672.792-1.967 2.375-.963s2.481 2.261 7.208 1.969c4.725-.292 6.39-.607 11.46-1.64 5.07-1.035 5.06-4.88-.442-6.246-5.502-1.365-7.781-.193-9.551-1.94-1.771-1.746-1.642-7.134-1.642-7.134l-15.397 3.343"/>
        <path fill="#313131" d="M104.864 162.25s1.915 1.836 9.207 7.073c7.293 5.24 39.217 7.623 50.027 20.938 1.476 3.81.75 5.421 1.518 9.475 1.077 5.69 1.694 11.444 2.098 17.221l.001.007.033.18c.275-.44.594 9.974.45 10.905-.483 12.378-1.285 26.086-1.213 30.434.032 1.959.228 4.32.495 6.754-3.366 1.346-6.803 2.537-10.385 3.063-3.367.493-6.822.405-10.223.591-1.313-5.675-2.812-12.08-3.846-16.276-1.208-2.549-2.025-11.51-2.012-13.47a56.038 56.038 0 0 0-.206-3.606c-.603-6.56-4.847-28.595-6.359-29.8-.747-.6-27.526-1.385-31.807-2.059-7.983-1.255-19.424-9.416-25.073-16.79-5.652-7.374-5.98-19.17-5.98-19.17l33.275-5.47"/>
        <path fill="#733E29" d="M144.601 268.533c-.302.684.212 5.16.313 8.302.1 3.141-.161 5.172 1.36 7.029 1.523 1.855 6.542 1.004 6.542 1.004s-.218-2.014 1.104-1.612c1.322.404 1.806 1.403 6.072 1.475 4.267.07 13.704.41 15.662-1.343 1.958-1.754-2.398-7.553-9.037-8.105-6.64-.553-8.388-9.365-8.388-9.365l-13.628 2.615"/>
        <path fill="#313131" d="M67.749 189.155c-5.65-7.373-6.173-20.228-6.173-20.228l34.971-5.425s1.915 1.836 9.207 7.074c7.292 5.238 39.218 7.621 50.027 20.936 1.477 3.812 1.224 7.211 1.99 11.265 1.079 5.688 1.696 11.443 2.1 17.22l.002.007.032.18c.275-.44.594 9.974.45 10.905-.482 12.378-1.285 26.087-1.212 30.434.031 1.96.228 4.32.494 6.754-3.366 1.347-6.803 2.538-10.387 3.063-1.508.22-3.035.324-4.567.387a147.237 147.237 0 0 1-5.765-33.76c-.47-9.097-4.414-33.432-5.433-33.468-7.698-.278-18.36-1.054-26.058-1.332-6.688-.24-22.494 1.276-29.394-3.867-3.422-2.55-8.11-7.309-10.284-10.145"/>
        <path fill="#EE9E3A" d="M149.615 271.4c-.076-.276-.15-.553-.225-.832l-.21.056c.073.279.148.557.225.835l.21-.059zm-.443-1.666a138.2 138.2 0 0 1-.211-.836l-.212.052c.07.28.14.559.212.838l.21-.054zm-.416-1.675l-.198-.84-.212.05c.065.28.13.562.198.841l.212-.05zm-.39-1.68l-.184-.843-.214.046c.061.282.123.564.186.844l.213-.048zm-.364-1.687l-.173-.842-.213.043c.056.282.114.563.173.844l.213-.045zm-.34-1.686c-.055-.28-.108-.562-.161-.843l-.215.04c.053.283.107.565.162.846l.215-.043zm-.318-1.69a123.96 123.96 0 0 1-.151-.845l-.216.038c.05.283.1.565.152.848l.215-.04zm-.298-1.692c-.049-.283-.096-.565-.142-.849l-.216.036.143.85.215-.037zm-.28-1.697c-.044-.284-.089-.566-.132-.85l-.216.033.133.851.215-.034zm-.26-1.7a125.54 125.54 0 0 1-.126-.852l-.216.031.125.853.216-.033zm-.246-1.704c-.04-.284-.079-.568-.117-.853l-.217.03.118.853.216-.03zm-.23-1.707l-.11-.853-.217.027.11.855.217-.029zm-.217-1.708l-.103-.855-.217.026c.034.286.068.571.104.856l.216-.027zm-.202-1.71l-.099-.855-.216.024c.031.285.064.571.097.856l.217-.025zm-.193-1.712l-.092-.857-.217.023.092.858.217-.024zm-.181-1.714c-.03-.286-.059-.571-.087-.858l-.218.023.087.857.218-.022zm-.172-1.715l-.084-.859-.217.021.083.859.218-.021zm-.164-1.718l-.08-.858-.217.02.08.859.217-.02zm-.157-1.718l-.076-.86-.218.02.076.86.218-.02zm-.151-1.72c-.025-.285-.05-.572-.073-.859l-.219.019.074.86.218-.02zm-.146-1.72l-.072-.86-.217.018.071.861.218-.018zm-.142-1.72l-.07-.862-.218.018.07.861.218-.017zm-.139-1.722l-.07-.862-.217.017.069.861.218-.016zm-.138-1.723l-.067-.862-.219.017c.024.287.047.574.069.862l.217-.017zm-.136-1.724l-.068-.862-.218.017.069.863.217-.018zm-.137-1.724l-.068-.862-.217.017.068.862.217-.017zm-.137-1.724l-.07-.863-.217.018.07.862.217-.017zm-.14-1.726l-.072-.862-.218.018.071.862.219-.018zm-.144-1.725l-.074-.863-.217.018.073.864.218-.019zm-.149-1.725l-.075-.864-.219.02.077.862.217-.018zm-.154-1.726l-.079-.863-.217.02.079.862.217-.02zm-.16-1.726l-.083-.863-.218.021.083.863.218-.02zm-.17-1.725c-.028-.289-.058-.576-.087-.863l-.217.022.087.862.218-.021zm-.177-1.726l-.093-.863-.217.025a272 272 0 0 1 .092.861l.218-.023zm-.189-1.724c-.031-.287-.065-.573-.097-.859l-.217.025.098.858.216-.024zm-.199-1.717l-.103-.858-.218.027.105.857.216-.026zm-.212-1.715l-.11-.857-.217.028c.038.285.075.57.11.857l.217-.028zm-.225-1.713a212.59 212.59 0 0 0-.119-.856l-.216.03c.04.285.08.57.118.855l.217-.03zm-.242-1.712c-.042-.286-.083-.57-.127-.855l-.215.033.127.853.215-.031zm-.258-1.71c-.044-.284-.09-.569-.136-.852l-.216.035c.047.283.092.568.136.852l.216-.034zm-.277-1.708c-.048-.286-.096-.57-.146-.853l-.215.037c.05.283.098.568.146.852l.215-.036zm-.297-1.705c-.027-.159-.057-.316-.086-.475a15.958 15.958 0 0 0-.074-.378l-.213.047c.026.123.05.247.073.371l.086.473.214-.038zm-.43-1.697a2.042 2.042 0 0 0-.55-.716l-.141.168a1.812 1.812 0 0 1 .493.642l.197-.094zm-1.324-1.162a7.04 7.04 0 0 0-.834-.267l-.057.211c.276.074.552.154.809.258l.082-.202zm-1.67-.483c-.28-.07-.558-.143-.835-.215l-.056.21.836.218.054-.213zm-1.67-.434l-.835-.22-.055.212.834.22.056-.212zm-1.667-.442l-.833-.224-.057.211.833.224.057-.21zm-1.666-.45l-.832-.227-.058.211.833.227.057-.21zm-1.663-.457l-.831-.23-.058.21.83.232.059-.212zm-1.661-.464l-.83-.234-.06.21.83.235.06-.21zm-1.66-.471l-.828-.238-.061.21c.277.08.553.16.829.238l.06-.21zm-1.657-.48l-.827-.24-.062.208.828.243.06-.21zm-1.654-.485l-.828-.246-.062.21.828.246.062-.21zm-1.654-.493l-.825-.25-.063.209.825.25.063-.21zm-1.65-.501l-.825-.253-.064.208.825.254.064-.21zm-1.648-.509l-.824-.256-.065.208.824.257.065-.209zm-1.646-.515l-.823-.26-.066.208.823.26.066-.208zm-1.644-.523c-.274-.087-.548-.175-.821-.264l-.068.208.822.264.067-.208zm-1.642-.53l-.82-.268-.068.208c.274.09.547.18.82.268l.068-.208zm-1.64-.537c-.272-.09-.545-.18-.818-.272l-.069.208.82.271.068-.207zm-1.636-.545c-.272-.09-.545-.182-.817-.275l-.07.207.818.276.069-.208zm-1.634-.552l-.816-.278-.071.207.817.278.07-.207zm-1.632-.559c-.272-.093-.543-.188-.815-.282l-.072.206c.272.095.544.19.816.283l.07-.207zm-1.63-.566l-.813-.286-.073.207.814.286.073-.207zm-1.626-.573a209.44 209.44 0 0 1-.812-.29l-.074.206.813.29.073-.206zm-1.625-.58l-.81-.294-.075.205c.27.099.541.197.811.294l.074-.206zm-1.62-.589l-.811-.296-.075.204.81.298.075-.206zm-1.62-.595l-.808-.3-.076.204.808.301.076-.205zm-1.614-.606a84.456 84.456 0 0 1-.804-.31l-.08.202c.268.106.537.21.806.312l.078-.204zm-1.605-.63a59.892 59.892 0 0 1-.796-.327l-.085.202c.266.111.532.22.8.329l.081-.203zm-1.588-.664a59.827 59.827 0 0 1-.788-.35l-.09.199c.262.118.526.236.79.35l.088-.2zm-1.568-.714c-.259-.125-.517-.25-.772-.38l-.098.196c.257.13.516.257.776.38l.094-.196zm-1.537-.775a37.084 37.084 0 0 1-.754-.414l-.107.19c.25.143.504.282.759.417l.102-.193zm-1.496-.847c-.246-.149-.49-.3-.73-.455l-.118.183c.242.157.487.31.735.459l.113-.187zm-1.444-.932c-.236-.163-.47-.33-.699-.5l-.13.175c.232.172.467.34.704.505l.125-.18zm-1.379-1.026a21.81 21.81 0 0 1-.658-.55l-.144.165c.22.19.44.375.666.556l.136-.17zm-1.295-1.125l-.076-.072a20.65 20.65 0 0 1-.536-.53l-.156.152c.177.182.358.361.542.536l.076.073.15-.159zm-1.197-1.23c-.19-.214-.377-.43-.558-.652l-.169.138c.184.224.371.443.564.66l.163-.146zm-1.088-1.328a21.737 21.737 0 0 1-.502-.697l-.18.124c.164.238.334.473.508.704l.174-.131zm-.973-1.415c-.152-.242-.3-.487-.442-.736l-.19.11c.144.25.293.498.447.743l.185-.117zm-.853-1.49a21.23 21.23 0 0 1-.38-.77l-.197.092c.122.262.25.522.383.779l.194-.101zm-.726-1.556c-.11-.264-.216-.531-.315-.8l-.204.076c.1.272.205.541.317.808l.202-.084zm-.595-1.611c-.088-.273-.17-.547-.247-.823l-.21.059c.077.278.16.555.249.831l.208-.067zm-.458-1.655a19.9 19.9 0 0 1-.176-.84l-.215.04c.053.284.112.567.178.85l.213-.05z" opacity=".2"/>
        <path fill="#F8E5BE" d="M101.726 73.19c.26.65 3.456 12.711 1.792 17.66s-3.7 6.773-9.097 6.8l.377 9.416-15.345-1.266 1.123-30.161 21.15-2.45"/>
        <path fill="#313131" d="M78.953 95.812c.336.811 4.884-1.12 6.764-3.668 1.88-2.55 2.583-2.362 2.136-3.674-.447-1.312-1.447-.283-2.786-2.257-1.34-1.974-1.95-5.263.982-5.576 2.933-.314 3.34 1.878 4.393.591 1.053-1.285-.693-4.275.415-5.033 1.107-.76 1.335-3.127 6.865-1.657 5.528 1.47 10.303 3.401 10.136-.537-.166-3.937-4.098-2.988-1.667-4.944 2.431-1.958-1.072-4.634-6.193-3.127-5.121 1.506-13.867-4.696-21.43 2.266-7.562 6.962-6.672 10.586.385 27.616"/>
        <path fill="#313131" d="M94.42 97.65c-1.054.133-3.519.399-6.525-.888-3.006-1.287 1.4 2.896 3.506 3.338 2.105.442 3.174 1.396 3.174 1.396l-.154-3.847" opacity=".1"/>
        <path fill="url(#g)" d="M15.121 71.081s4.44-9.016 8.27-14.342c3.83-5.327 7.42-7.913 7.42-7.913l15.693 3.915 1.141 4.135s9.234 3.296 20.9 6.65c11.665 3.354 15.143 1.729 22.178.397 7.037-1.332 21.962-1.01 21.962-1.01s3.581 4.648 4.517 11.277c0 0-28.394 14.728-48.837 10.65 0 0-6.74-.51-13.363-1.295 0 0 2.32 11.89 1.514 17.035-.806 5.147 4.163 8.813 3.929 12.237 0 0-20.824 9.838-34.048 9.176-13.225-.66-17.898-6.117-17.898-6.117s1.334-11.097 2.968-17.608c1.636-6.513.852-22.388 3.654-27.187" transform="translate(47.955 52.342)"/>
        <path fill="#F8E5BE" d="M160.64 115.255s2.832-.013 5.317-2.134c2.485-2.122 5.949-5.306 6.652-2.671.705 2.634 1.938-3.048 7.127-2.361 5.19.686.01 12.73-5.817 15.27-5.827 2.54-8.762 3.173-8.762 3.173l-4.517-11.277"/>
        <path fill="#FFFFFE" d="M158.154 114.67s4.122-1.538 4.928-.84c.807.697 5.234 12.189 3.882 13.194 0 0-2.411 1.43-4.233 1.7 0 0-.89-9.671-4.577-14.054"/>
        <g transform="translate(158.05 113.485)">
            <mask id="i" fill="#fff">
                <use xlink:href="#h"/>
            </mask>
            <path fill="#B0C6DD" d="M12.14 13.93A122.68 122.68 0 0 1-.298 19.424l-.291.11.18.253a.473.473 0 0 0 .67.098l-.293-.378.009.01V19.5l-.009.006.009.01V19.5h-.006l-.009.02.018-.013-.009-.008-.009.021.018-.013-.194.14.083.224a123.05 123.05 0 0 0 12.486-5.516l-.217-.426M11.969 12.77A150.997 150.997 0 0 1-.124 17.337c-.132.044-.274.091-.414.153l-.263.117.173.25v.003a.455.455 0 0 0 .374.185.417.417 0 0 0 .296-.115l-.333-.343.037.04v-.06l-.037.02.037.04v-.06l-.02.044.037-.027-.017-.017-.02.044.037-.027-.195.138.197-.136-.01-.013-.196.136.097.218c.11-.049.239-.092.37-.135a151.245 151.245 0 0 0 12.13-4.581l-.187-.44M11.8 11.61A207.12 207.12 0 0 1-.341 15.399c-.134.038-.287.08-.436.156l-.216.111.121.228.002.003h.001c.098.161.244.21.384.214.096-.001.217-.03.306-.139l-.37-.301.064.053v-.092l-.065.039.065.053v-.092.008l.004-.007-.004-.001v.008l.004-.007-.033.067.062-.035-.03-.032-.032.067.062-.035-.209.116.211-.112-.007-.014-.211.113.11.212c.09-.047.215-.085.344-.12a208.1 208.1 0 0 0 12.17-3.796l-.156-.452M11.632 10.453A362.987 362.987 0 0 1-.558 13.46c-.136.032-.3.067-.46.161l-.174.106.08.202.003.003c.093.191.249.236.392.243a.363.363 0 0 0 .316-.167l-.408-.249.092.057v-.12l-.092.063.092.057v-.12.072l.048-.02-.048-.052v.072l.048-.02-.22.092.222-.088-.006-.014-.222.089.123.204c.068-.041.19-.077.32-.105 4.16-.952 8.242-1.957 12.207-3.01l-.123-.463M11.466 9.295c-3.976.738-8.07 1.48-12.242 2.227-.14.027-.314.055-.481.168l-.15.103.064.184.225-.078-.23.066c.034.112.11.179.178.217l.22.058.17-.037.154-.16-.437-.193.14.062-.068-.139-.072.077.14.062-.068-.139.042.085v-.096l-.042.011.042.085v-.096.027l.014-.023-.014-.004v.027l.014-.023-.056.097.103-.03-.047-.067-.056.097.103-.03-.002-.005-.007-.02-.225.078.135.197c.048-.036.166-.07.295-.09 4.173-.747 8.268-1.489 12.245-2.227l-.087-.47M11.299 8.14A533.06 533.06 0 0 0-.993 9.585c-.141.02-.328.04-.504.172l-.115.091.032.158.234-.047-.236.04a.355.355 0 0 0 .173.243l.227.063.176-.043a.312.312 0 0 0 .151-.189l-.46-.128.16.045-.08-.147-.08.102.16.045-.08-.147.053.098v-.114l-.053.016.053.098v-.114.035l.018-.03-.018-.005v.035l.018-.03-.064.107.117-.02-.053-.087-.064.107.117-.02v-.003l-.004-.018-.234.047.148.188c.027-.027.143-.06.27-.074a532.137 532.137 0 0 1 12.28-1.444l-.05-.475M11.133 6.985a232.78 232.78 0 0 0-12.343.663c-.144.016-.343.023-.526.18l-.086.077.009.129.238-.015-.238.01a.345.345 0 0 0 .164.273.436.436 0 0 0 .234.069l.184-.05a.304.304 0 0 0 .142-.213l-.472-.073.172.026-.09-.148-.082.122.172.026-.09-.148.064.106v-.126l-.064.02.064.106v-.126.042l.023-.036-.023-.006v.042l.023-.036-.073.114.129-.006-.056-.108-.073.114.129-.006-.002-.018-.238.016.16.177c.007-.016.119-.051.245-.057 4.196-.336 8.318-.554 12.317-.662l-.013-.478M10.968 5.832a147.51 147.51 0 0 0-7.607-.195c-1.584 0-3.18.025-4.788.075-.146.01-.358.006-.547.186l-.062.063-.006.102-.002.024.002-.024v.02c0 .143.09.239.16.283a.425.425 0 0 0 .234.07l.192-.056a.3.3 0 0 0 .13-.24l-.478-.012.181.005-.1-.15-.081.145.181.005-.1-.15.075.114v-.14l-.076.027.076.113v-.14.049l.027-.04-.027-.008v.048l.027-.04-.077.118h.133l-.056-.119-.077.119h.133-.162l.161.01.001-.01h-.162l.161.01.001-.014-.237-.016.17.167.06-.024.16-.017c1.603-.05 3.195-.075 4.773-.075 2.568 0 5.1.066 7.582.195l.025-.477M10.801 4.681c-4.038-.526-8.207-.83-12.445-.905h-.033c-.143.006-.356 0-.535.193l-.047.054-.01.084.237.03-.236-.04-.004.055c.001.143.09.237.16.28a.429.429 0 0 0 .231.07l.19-.057a.298.298 0 0 0 .125-.242v-.018l-.478.024.108-.006h-.108v.006l.108-.006h-.108.186l-.105-.151-.08.151h.185l-.105-.151.082.118v-.147l-.082.029.082.118v-.147.054l.03-.046-.03-.008v.054l.03-.046-.079.12h.136l-.057-.12-.079.12h.136-.161l.158.027.003-.026h-.161l.158.026.001-.004.003-.02-.237-.03.181.155h.002l.17-.025.025.001c4.22.074 8.371.377 12.391.9l.062-.474M10.635 3.531A90.709 90.709 0 0 0-1.862 1.842l-.094-.003c-.138.003-.339.01-.493.202l-.023.031-.017.052-.002.006-.002.006-.01.082a.336.336 0 0 0 .16.28.42.42 0 0 0 .229.069l.184-.054a.293.293 0 0 0 .125-.238l-.006-.057-.47.085.156-.028h-.158l.002.028.156-.028h-.158.191l-.107-.158-.084.158h.191l-.107-.158.085.125v-.153l-.085.028.085.125v-.153.056l.03-.048-.03-.008v.056l.03-.048-.077.12h.136l-.059-.12-.077.12h.136-.16l.154.041.006-.04h-.16l.154.04-.23-.06.226.072.005-.014-.228-.073.193.143-.023-.018.015.025.008-.007-.023-.018.015.025.117-.016.063.002c4.234.278 8.398.843 12.43 1.68l.098-.468M10.467 2.381A78.152 78.152 0 0 0-2.077-.093l-.14-.008-.23.034a.446.446 0 0 0-.238.18l-.01.016-.013.03-.004.009-.004.009-.018.107a.333.333 0 0 0 .16.28.42.42 0 0 0 .227.068l.18-.053a.286.286 0 0 0 .124-.235L-2.055.26l-.46.125.153-.041h-.16l.006.041.154-.041h-.16.196l-.108-.162-.087.162h.195l-.108-.162.087.13V.154l-.087.028.087.13V.154v.059l.033-.05-.033-.01v.06l.033-.05-.08.121h.137l-.057-.122-.08.122h.137-.157l.149.053.008-.053h-.157l.149.053-.225-.08.218.099.006-.014-.218-.1.2.13-.043-.027.03.042.014-.015-.044-.027.03.042-.001-.003v.003h.002l-.002-.003v.003l.081-.01.085.006a77.594 77.594 0 0 1 12.469 2.459l.13-.46M10.299 1.234a69.852 69.852 0 0 0-12.595-3.26l-.172-.016a.641.641 0 0 0-.24.044.426.426 0 0 0-.229.216l-.028.132a.337.337 0 0 0 .157.278.41.41 0 0 0 .227.069l.176-.051a.283.283 0 0 0 .123-.234l-.018-.106-.45.16.147-.054h-.156l.008.053.148-.053h-.156.198l-.11-.164-.088.164h.198l-.11-.164.09.135v-.164l-.09.03.09.134v-.164.064l.036-.055-.036-.01v.065l.036-.055-.08.122h.137l-.057-.122-.08.122h.137-.155l.142.064.013-.064h-.155l.142.064v.001l-.06-.027.043.05.016-.023-.06-.027.044.05-.028-.033.02.039.008-.007-.028-.032.02.039.058-.007.098.009a69.229 69.229 0 0 1 12.506 3.238l.163-.45" mask="url(#i)"/>
        </g>
        <path fill="#FFFFFE" d="M79.302 99.275c3.448.69 11.203 2.527 15.168 3.475a4.105 4.105 0 0 1 3.032 3.02l1.1 4.486s-19.946-4.682-23.815-5.915l2.432-4.13a1.971 1.971 0 0 1 2.083-.936"/>
        <g transform="translate(74.778 98.665)">
            <mask id="k" fill="#fff">
                <use xlink:href="#j"/>
            </mask>
            <path fill="#B0C6DD" d="M18.683-.233c1 4.426 1.755 8.909 2.26 13.42l.036.31.29-.115a.479.479 0 0 0 .295-.445l-.037-.181-.438.192.023-.01h-.026l.003.01.023-.01h-.026l-.003.005.015.01-.005-.016-.01.006.015.01-.005-.016.088.223.237-.027A123.582 123.582 0 0 0 19.15-.34l-.467.106M17.52-.354a151.023 151.023 0 0 1 1.445 12.858v.012-.011c.01.138.02.287.046.439l.05.284.284-.106v-.001a.46.46 0 0 0 .288-.43l-.053-.202-.414.238.062-.035h-.073l.011.035.062-.035h-.073.007l-.007-.005v.005h.007l-.007-.005.034.023-.013-.036-.02.013.033.023-.013-.036h.001l-.014.005.084.224.235-.04c-.02-.12-.03-.254-.04-.392a151.647 151.647 0 0 0-1.45-12.899l-.473.074M16.355-.475c.354 4.164.579 8.413.68 12.713v.008-.007c.003.138.007.297.045.461l.054.236.25-.063h.004a.414.414 0 0 0 .234-.173.46.46 0 0 0 .08-.255l-.072-.224-.383.287.084-.063h-.107l.023.063.084-.063h-.107.019l-.018-.012v.012h.018l-.018-.012.056.038-.016-.06-.04.022.056.038-.016-.06.062.23-.058-.23-.015.003.058.232.232-.055a1.888 1.888 0 0 1-.032-.365c-.1-4.308-.327-8.567-.68-12.741l-.477.04M15.193-.597c.013 1.211.02 2.431.02 3.66 0 2.93-.037 5.903-.108 8.91v.001l-.001.1c0 .116.004.246.043.382l.06.202.22-.036-.001.001a.396.396 0 0 0 .259-.165.444.444 0 0 0 .086-.259l-.097-.246-.341.336.09-.09h-.13l.04.09.09-.09h-.13.033l-.029-.02-.004.02h.033l-.029-.02.071.05-.012-.079-.059.029.071.05-.012-.079h-.002l-.014.003.037.236.229-.068a.887.887 0 0 1-.025-.248v-.09.001c.072-3.01.11-5.988.11-8.922 0-1.23-.007-2.452-.02-3.664l-.478.005M14.031-.72c-.263 4.04-.552 8.195-.856 12.426l-.008.178c.001.102.008.214.05.33l.061.162.186-.006a.372.372 0 0 0 .283-.155.431.431 0 0 0 .093-.263.33.33 0 0 0-.125-.263l-.293.378.088-.115h-.148l.06.115.088-.115h-.148.042l-.035-.028-.007.028h.042l-.035-.028.083.064-.004-.096-.08.032.084.064-.004-.096h-.014l.008.24.224-.084-.022-.164.007-.142v-.001c.304-4.233.593-8.389.857-12.43l-.477-.032M12.871-.843a539.583 539.583 0 0 0-1.625 12.284l-.015.216c0 .097.01.204.059.314l.056.127.151.016h.031a.365.365 0 0 0 .287-.148.426.426 0 0 0 .095-.26.322.322 0 0 0-.156-.28l-.24.415.078-.136h-.16l.083.136.077-.136h-.16.051l-.043-.034-.008.034h.051l-.043-.034.088.07v-.104l-.088.034.088.07v-.104.15l.012-.15h-.012v.15l.012-.15-.019.239.024-.238-.014-.001-.024.237.219-.097-.018-.12.012-.16c.506-4.192 1.052-8.299 1.624-12.272l-.473-.068M11.713-.966a233.6 233.6 0 0 0-2.395 12.14c-.012.071-.025.154-.025.246.001.094.013.2.069.309l.052.1.126.026.063.006a.361.361 0 0 0 .283-.147.422.422 0 0 0 .093-.256.312.312 0 0 0-.188-.289l-.182.442.063-.153h-.17l.107.153.063-.153h-.17.058l-.05-.04-.009.04h.06l-.05-.04.092.073v-.108l-.092.035.092.073v-.108.156l.03-.153-.03-.003v.156l.03-.153-.013-.003-.047.234.211-.11-.013-.087.018-.165c.706-4.154 1.51-8.21 2.39-12.116l-.466-.105M10.556-1.088A149.926 149.926 0 0 0 7.39 10.909a1.225 1.225 0 0 0-.034.268.58.58 0 0 0 .08.309l.045.074.096.031.003.001.096.015a.355.355 0 0 0 .28-.145.406.406 0 0 0 .092-.252L8 11.04l-.17-.124-.13.46.05-.174-.152.099.103.076.049-.175-.152.099.14-.091H7.57l.028.09.14-.09H7.57h.067l-.056-.044-.01.044h.066l-.056-.044.095.074v-.11l-.095.036.095.074v-.11.16l.048-.153-.048-.008v.16l.048-.152-.072.228.076-.227-.014-.005-.075.227.202-.126-.008-.057.023-.165a149.864 149.864 0 0 1 3.156-11.96l-.456-.14M9.4-1.212a112.529 112.529 0 0 0-3.937 11.855c-.022.08-.045.176-.045.287a.53.53 0 0 0 .092.312l.037.051.07.033.002.002h.003l.126.026a.357.357 0 0 0 .278-.142.41.41 0 0 0 .092-.25l-.059-.181-.19-.114-.078.472.03-.181-.146.107.116.074.03-.181-.146.107.14-.102h-.176l.036.102.14-.102h-.176.073l-.06-.049-.013.049h.073l-.06-.049.096.076v-.114l-.096.038.096.076v-.114.16l.063-.147-.063-.013v.16l.063-.147-.094.22.1-.217-.012-.005-.1.216.193-.139H5.9l-.003-.034.027-.162v.001c1.11-4.078 2.425-8.03 3.92-11.804L9.4-1.212M8.245-1.332a91.132 91.132 0 0 0-4.709 11.71.996.996 0 0 0-.055.304c-.001.094.02.213.103.315l.026.032.048.029.004.003.005.002.152.04a.356.356 0 0 0 .276-.141.401.401 0 0 0 .092-.247l-.07-.193-.206-.101-.03.477.011-.184-.137.118.125.066.012-.184-.137.118.137-.117h-.183l.046.117.137-.117h-.183.079l-.066-.053-.013.053h.079l-.066-.053.097.078v-.116l-.097.038.097.078v-.116.162l.079-.142-.079-.02v.162l.079-.142-.116.21.124-.205-.013-.008-.124.205.185-.151-.02.017.026-.008-.006-.01-.02.018.026-.008-.002-.022.033-.158v.001A90.626 90.626 0 0 1 8.675-1.123l-.43-.209M7.091-1.451A78.315 78.315 0 0 0 1.61 10.112l-.006.014.006-.014a.906.906 0 0 0-.068.32c0 .096.025.22.117.32l.017.017.032.024.003.001.003.003.176.054a.354.354 0 0 0 .273-.14.39.39 0 0 0 .093-.244l-.078-.2-.215-.09h-.012l.019.478-.007-.18v.18h.007l-.007-.18v.18-.186l-.133.126.133.06v-.186l-.133.126.135-.128h-.188l.053.128.135-.128h-.188.085l-.07-.057-.015.057h.085l-.07-.057.098.08v-.117l-.098.037.098.08v-.117.16l.09-.134-.09-.026v.16l.09-.134-.133.199.139-.195-.013-.008-.14.194.177-.163-.036.034.047-.015-.011-.019-.036.034.047-.015-.001-.012.037-.151c1.512-4 3.338-7.852 5.448-11.494l-.414-.24M5.938-1.57A69.95 69.95 0 0 0-.316 9.847a.88.88 0 0 0-.08.335.436.436 0 0 0 .16.348l.007.006-.007-.006.197.07a.353.353 0 0 0 .271-.138.38.38 0 0 0 .093-.242l-.077-.199-.211-.088-.036.001.05.476-.014-.138v.14l.014-.002-.014-.138v.14-.19l-.136.127.136.062v-.19l-.136.128.138-.13h-.192l.054.13.138-.13h-.192.09l-.074-.06-.016.06h.09l-.074-.06.098.08v-.118l-.098.038.098.08v-.118.16l.1-.126-.1-.034v.16l.1-.126-.04.05.06-.023-.02-.027-.04.05.06-.023h.001l.041-.146v.001a69.468 69.468 0 0 1 6.211-11.34l-.396-.267" mask="url(#k)"/>
        </g>
        <path fill="#313131" d="M86.66 241.842h6.54V206.11h-6.54zM109.433 266.633H70.427c-4.95 0-5.085 4.126-5.096 5.583h-2.796c0-4.364 3.534-7.9 7.892-7.9h39.007c4.358 0 7.891 3.536 7.891 7.9h-2.818v-.26c0-2.821-2.19-5.29-5.007-5.323h-.067"/>
        <path fill="#313131" d="M112.54 274.655a3.22 3.22 0 0 0 3.218 3.221 3.219 3.219 0 0 0 3.217-3.22 3.217 3.217 0 1 0-6.434 0"/>
        <path fill="#313131" d="M111.963 274.459a2.986 2.986 0 0 0 5.958.392 2.989 2.989 0 0 0-2.782-3.178 2.988 2.988 0 0 0-3.176 2.786M61.15 274.655a3.22 3.22 0 0 0 3.217 3.221 3.22 3.22 0 0 0 3.217-3.22 3.218 3.218 0 1 0-6.434 0"/>
        <path fill="#313131" d="M60.573 274.459a2.986 2.986 0 0 0 5.958.392 2.989 2.989 0 0 0-2.784-3.178 2.988 2.988 0 0 0-3.174 2.786M88.506 272.903h3.018v-7.016h-3.018z"/>
        <path fill="#313131" d="M87.023 274.655a3.22 3.22 0 0 0 3.217 3.221 3.218 3.218 0 0 0 3.216-3.22 3.217 3.217 0 1 0-6.433 0"/>
        <path fill="#313131" d="M86.445 274.459a2.987 2.987 0 0 0 2.783 3.178 2.989 2.989 0 0 0 .391-5.964 2.987 2.987 0 0 0-3.174 2.786M84.76 266.175h10.417v-25.377H84.759z"/>
        <path fill="#DF9400" d="M66.25 170.821h14.718c5.93 0 10.736 4.813 10.736 10.75l1.158 15.413H79.376c-4.92 0-9.13-3.536-9.987-8.386l-3.14-17.777zm-18.01-55.142v69.33c0 12.804 10.367 23.182 23.156 23.182h45.272a5.818 5.818 0 0 0 5.815-5.82 5.818 5.818 0 0 0-5.815-5.82h-9.22c-4.867 0-8.812-3.951-8.812-8.823v-10.694c0-8.51-6.89-15.408-15.39-15.408H72.33c-5.356 0-9.699-4.347-9.699-9.71V115.68c0-3.978-3.221-7.204-7.195-7.204-3.975 0-7.198 3.226-7.198 7.204z"/>
        <path fill="#F8E5BE" d="M182.016 90.337c1.464-.564 10.474 3.833 12.613 4.96 2.14 1.128 29.16 14.224 29.16 14.224l28.018-16.677-2.45 22.383c-5.384 2.02-24.202 6.243-24.934 6.169-9.728-.993-32.385-14.149-35.2-17.08-2.815-2.931-1.689-7.215-3.378-8.68-1.69-1.466-5.293-4.736-3.83-5.299M284.927 145.777s7.45 3.956 2.42 37.59-1.12 41.728-3.254 54.858c-2.136 13.13-4.831 30.216-4.831 30.216s-4.132 2.697-9.882 0c0 0-2.558-39.191-3.75-51.356-1.618-16.516 1.788-43.97 1.788-43.97s-2.528-.36-3.067-.36c-.539 0 0 33.275 0 39.39 0 6.115 3.053 45.144 2.156 55.756 0 0-4.412 2.339-9.841.18 0 0-8.245-39.735-9.143-49.088-.899-9.352-1.855-49.115.21-62.065 2.066-12.95 4.58-14.237 4.58-14.237l32.614 3.086"/>
        <path fill="#313131" d="M259.06 188.038c-1.902-7.407-4.11-19.212 0-17.129 4.11 2.083 5.29 1.846 5.29 1.846-.538 0 0 33.274 0 39.39 0 3.252.864 15.81 1.538 28.453l.619 27.303s-5.314-42.131-5.926-51.622c-.61-9.49.38-20.834-1.52-28.241" opacity=".1"/>
        <path fill="#313131" d="M248.586 276.675c3.562 1.617 7.767 1.072 10.199.521 1.012-.23 1.969-.718 2.649-1.503 1.487-1.714 4.194-2.472 6.034-2.801v-.002c.031.085.06.171.094.255 1.282 3.065.664 4.419.347 6.47-.315 2.05-8.454-.262-12.804 1.134s-4.653 2.136-12.211 1.516c-6.608-.543-.05-3.144 5.692-5.59"/>
        <path fill="#F8E5BE" d="M261.434 275.693c-.555.64-1.234 1.15-2.054 1.36-2.286.582-6.92 1.38-10.794-.378.823-.351 1.63-.7 2.38-1.038 7.038-1.61 5.943-6.982 5.135-10.606 2.299-2.314 8.478-1.34 10.088-1.078.047 1.146.475 4.23.6 5.405.065 1.143.252 2.403.68 3.534h-.001c-1.84.329-4.547 1.087-6.034 2.8"/>
        <path fill="#313131" d="M261.345 277.829c3.561 1.616 7.766 1.072 10.198.52 1.012-.228 1.969-.717 2.649-1.502 1.488-1.715 4.195-2.472 6.035-2.802v-.002c.031.085.06.173.093.256 1.282 3.064.664 4.42.348 6.469-.314 2.05-8.454-.261-12.804 1.135s-4.654 2.136-12.211 1.515c-6.608-.542-.05-3.142 5.692-5.59"/>
        <path fill="#F8E5BE" d="M274.192 276.847c-.555.64-1.234 1.151-2.052 1.36-2.288.582-6.922 1.38-10.795-.378.823-.352 1.63-.7 2.38-1.038 7.038-1.61 5.692-13.586 4.883-17.21 2.3-2.312 8.73 5.263 10.34 5.527.046 1.144.475 4.23.6 5.404.064 1.142.252 2.402.679 3.533-1.84.33-4.547 1.087-6.035 2.802"/>
        <path fill="#313131" d="M281.186 83.254c-.024.303-.087.66-.362.79-.445.21-.831-.365-1.253-.619-.578-.346-1.325-.064-1.892.297-.568.362-1.14.82-1.813.824-.76.006-1.425-.579-2.185-.598-1.203-.03-2.067 1.318-3.267 1.402-1.278.09-2.361-1.293-3.625-1.076-.835.143-1.439.957-2.278 1.082-1.237.184-2.447-1.199-3.596-.7-.308.132-.554.388-.871.495-.776.26-1.526-.451-2.333-.585-.807-.135-1.579.318-2.346.606-.766.288-1.789.342-2.248-.337-.26-.382-.25-.88-.23-1.342l.227-5.401.167-3.97c.122-2.882.25-5.805 1.14-8.548.89-2.743 2.652-5.332 5.256-6.564 2.2-1.04 4.734-1.018 7.167-.974 1.991.035 4.021.077 5.908.717 2.353.797 4.298 2.46 6.179 4.085 1.328 1.147 2.104 1.767 2.255 3.523a100.178 100.178 0 0 1 0 16.893"/>
        <path fill="#F8E5BE" d="M255.63 90.685l4.95-.855c.317-.055.637-.027.931.071l.845-6.263 9.214-3.183 3.092 9.389 4.873.84a.999.999 0 0 1 .535 1.691l-12.487 12.469-12.487-12.469a.999.999 0 0 1 .535-1.69"/>
        <path fill="#313131" d="M242.61 203.366c-1.107-.082-2.473-.534-3.934-1.138-.014-1.717-.05-20.755 5.176-39.56 5.481-19.714 10.95-25.385 10.95-25.385s14.627-21.198 27.11-4.281c12.483 16.917 16.287 80.298 10.843 79.81-13.486 2.7-19.293-3.284-21.145-4.374-3.881-2.284-9.585 3.23-14.346 2.62-2.816-.362-5.041-3.442-7.368-5.069-2.144-1.496-4.678-2.431-7.285-2.623"/>
        <path fill="#313131" d="M262.356 83.638l-.82 6.09c1.25.452 5.64-1.29 6.813-2.308 1.554-1.345 1.71-2.113 4.676-2.549l-1.455-4.416-9.214 3.183" opacity=".1"/>
        <path fill="#F8E5BE" d="M266.65 85.51c-5.326.02-9.697-4.326-9.717-9.657l-.035-9.947c-.02-5.33 4.322-9.708 9.647-9.726 5.324-.02 9.696 4.326 9.716 9.657l.035 9.947c.018 5.33-4.322 9.708-9.647 9.726"/>
        <path fill="#F8E5BE" d="M258.699 70.873s-3.068-3.177-6.373-1.125c-3.305 2.053.282 7.651 6.4 8.395 6.116.743-.027-7.27-.027-7.27M274.84 70.816s3.045-3.2 6.363-1.171c3.32 2.029-.227 7.653-6.339 8.44-6.112.787-.025-7.27-.025-7.27"/>
        <path fill="#313131" d="M264.073 60.414c.107-.35 1.827 2.743 6.395 5.182 4.567 2.44 5.828 4.124 5.828 4.124s2.651-1.31 4.907-.075c0 0 1.544-14.11-9.06-16.65-10.608-2.54-12.778 3.05-15.245 4.472-2.468 1.423-3.392 11.754-3.392 11.754s1.772-.802 4.393.987c0 0-.222-3.344.14-5.783.364-2.438 2.891 6.288 6.034-4.011"/>
        <path fill="#DF5432" d="M245.88 98.736l.095-.071c-.354-.463-.096.07-.096.07"/>
        <path fill="#DF9400" d="M277.343 90.497s10.517-.368 17.289 9.286c0 0-12.49 4.117-12.157 13.61.335 9.492.923 19.69.966 21.576.045 1.886-11.535 5.857-28.64 2.314 0 0-.853-9.621-2.281-13.375-1.429-3.755-6.632-7.088-4.668-14.841 1.145-4.524-.79-5.958-2.6-6.368-1.286-.29-2.034-1.634-1.493-2.838 1.587-3.53 5.172-9.176 11.872-9.176 0 0 7.19 8.445 10.922 8.74 5.467.433 10.79-8.928 10.79-8.928"/>
        <path fill="#F8E5BE" d="M246.368 147.442c1.68-.993 1.546-.838.054-3.195-1.494-2.357 1.354-1.271 4.159 1.13 1.696 1.452 4.497 1.377 7.105.88 1.703-.324 3.324-.826 4.5-1.205 2.978-.96 12.67-1.574 15.21-15.6.629-3.464 1.058-6.964 1.349-10.273.309-2.754.367-11.639 3.367-14.174 3.836-3.243 12.483-3.352 12.944-3.494.449 1.373 2.353 34.083-9.409 47.965-3.505 4.136-24.496 7.41-36.2 6.261a34.294 34.294 0 0 1-1.857-.228s-4.847-.64-8.098-5.044c-3.252-4.403 5.198-2.031 6.876-3.023"/>
        <path fill="#DF9400" d="M297.658 109.326c.211.816-.63 1.485-1.386 1.116-1.519-.74-3.785-1.48-6.288-1.05-4.504.772-11.16 8.774-11.16 8.774s-3.135-9.63-.247-16.247c.474-1.088 1.025-2.179 1.912-2.967 1.359-1.21 3.279-1.518 5.091-1.655 3.279-.246 5.849-1.824 7.953 1.15 1.774 2.507 3.33 7.82 4.125 10.88M254.5 60.3a1.05 1.05 0 0 0 .086 1.407c.606.586 1.16 1.227 1.712 1.865l1.147 1.33a.838.838 0 0 0 1.199.074l.046-.045a.946.946 0 0 0 .014-1.38 40.968 40.968 0 0 1-3.159-3.42c-.252-.307-.73-.296-.945.037l-.1.133M259.122 55.493a1.262 1.262 0 0 0 .102 1.693c.73.706 1.396 1.477 2.06 2.245l1.38 1.6a1.008 1.008 0 0 0 1.444.088l.056-.053a1.14 1.14 0 0 0 .017-1.661 49.441 49.441 0 0 1-3.802-4.116c-.305-.37-.878-.356-1.138.045l-.119.16"/>
        <path fill="#7E5B14" d="M152.63 168.895c1.52 23.092 2.97 87.124-3.764 115.595-.46 1.941-3.297 1.691-3.413-.301-1.106-19.04-2.096-78.821 3.743-115.429.325-2.047 3.3-1.932 3.434.135M230.503 168.895c-1.52 23.092-2.97 87.124 3.765 115.595.46 1.941 3.296 1.691 3.412-.301 1.107-19.04 2.097-78.821-3.742-115.429-.326-2.047-3.3-1.932-3.435.135"/>
        <path fill="#DF9400" d="M123.184 170.525h137.13v-.313a6.12 6.12 0 0 0-6.117-6.122H129.301a6.12 6.12 0 0 0-6.117 6.122v.313"/>
        <path fill="#313131" d="M194.087 114.936l-1.978-.023a4.064 4.064 0 0 0-3.938 2.904l-12.451 41.748h-44.76a4.065 4.065 0 0 0-4.062 4.067v.364h53.911l13.278-49.06"/>
        <g fill-rule="nonzero" transform="rotate(-29 265.917 -266.275)">
            <path fill="#84BF56" d="M29.608 18.155c0 .716-.83 1.297-1.85 1.297H1.85C.83 19.452 0 18.87 0 18.155V1.297C0 .58.829 0 1.85 0h25.907c1.022 0 1.85.581 1.85 1.297v16.858z"/>
            <path fill="#000" d="M27.757 18.526H1.85c-1.021 0-1.85-.83-1.85-1.853v.926c0 1.023.829 1.853 1.85 1.853h25.907c1.022 0 1.85-.83 1.85-1.853v-.926a1.852 1.852 0 0 1-1.85 1.853z" opacity=".15"/>
            <ellipse cx="14.804" cy="8.8" fill="#FFF" rx="7.402" ry="5.095"/>
            <path fill="#000" d="M27.757 3.705c-1.021 0-1.85-.83-1.85-1.852V.926H3.7v.927a1.852 1.852 0 0 1-1.85 1.852H.924v10.19h.925c1.022 0 1.851.83 1.851 1.852v.926h22.206v-.926c0-1.023.829-1.853 1.85-1.853h.925V3.705h-.925zm0 9.263a2.778 2.778 0 0 0-2.776 2.779H4.626a2.778 2.778 0 0 0-2.776-2.779V4.631a2.778 2.778 0 0 0 2.776-2.778h20.355a2.778 2.778 0 0 0 2.776 2.778v8.337z" opacity=".15"/>
            <path fill="#84BF56" d="M13.578 8.71h.544V6.167h1.402c.26 0 .498.03.713.091.214.061.398.154.551.28.153.124.274.282.36.474.087.191.13.42.13.685 0 .266-.045.498-.137.694-.092.197-.217.36-.376.49-.158.13-.345.228-.56.292a2.437 2.437 0 0 1-.696.095h-.774v.806h1.233v.526h-1.233v1.124h-.613V10.6h-.544v-.526h.544v-.806h-.544V8.71zm1.946 0c.352 0 .63-.084.831-.251.202-.167.303-.421.303-.762 0-.34-.1-.587-.303-.741-.201-.154-.479-.231-.831-.231h-.79V8.71h.79z"/>
        </g>
    </g>
</svg>
