<svg xmlns="http://www.w3.org/2000/svg" xmlns:xlink="http://www.w3.org/1999/xlink" width="320" height="640" viewBox="0 0 320 640">
    <defs>
        <path id="a" d="M54.484 0C17.131 0 .001 17.71.001 54.484V581.06c0 36.773 17.13 54.482 54.483 54.482H257.87c36.135 0 54.483-18.958 54.483-54.482V54.483C312.353 17.71 295.223 0 257.87 0H54.484z"/>
        <filter id="b" width="102%" height="101%" x="-1%" y="-.5%" filterUnits="objectBoundingBox">
            <feMorphology in="SourceAlpha" radius="1" result="shadowSpreadInner1"/>
            <feGaussianBlur in="shadowSpreadInner1" result="shadowBlurInner1" stdDeviation="1"/>
            <feOffset in="shadowBlurInner1" result="shadowOffsetInner1"/>
            <feComposite in="shadowOffsetInner1" in2="SourceAlpha" k2="-1" k3="1" operator="arithmetic" result="shadowInnerInner1"/>
            <feColorMatrix in="shadowInnerInner1" values="0 0 0 0 0 0 0 0 0 0 0 0 0 0 0 0 0 0 0.5 0"/>
        </filter>
        <linearGradient id="c" x1="50%" x2="50%" y1="0%" y2="100%">
            <stop offset="0%" stop-color="#5F5F5F"/>
            <stop offset="1.012%" stop-color="#222"/>
            <stop offset="100%" stop-color="#252525"/>
        </linearGradient>
        <linearGradient id="f" x1="50%" x2="50%" y1="0%" y2="100%">
            <stop offset="0%" stop-color="#6D6D6D"/>
            <stop offset="1.612%"/>
            <stop offset="98.47%"/>
            <stop offset="100%" stop-color="#5C5C5C"/>
        </linearGradient>
        <path id="e" d="M54.558 6.405h203.728c33.594 0 48.154 14.54 48.154 47.997v525.753c0 32.224-15.792 47.997-48.154 47.997H54.558c-33.594 0-48.153-14.54-48.153-47.997V54.402c0-33.457 14.56-47.997 48.153-47.997z"/>
        <filter id="d" width="100.3%" height="100.5%" x="-.2%" y="-.2%" filterUnits="objectBoundingBox">
            <feOffset dy="1" in="SourceAlpha" result="shadowOffsetOuter1"/>
            <feColorMatrix in="shadowOffsetOuter1" result="shadowMatrixOuter1" values="0 0 0 0 0 0 0 0 0 0 0 0 0 0 0 0 0 0 0.5 0"/>
            <feOffset dy="-1" in="SourceAlpha" result="shadowOffsetOuter2"/>
            <feColorMatrix in="shadowOffsetOuter2" result="shadowMatrixOuter2" values="0 0 0 0 0 0 0 0 0 0 0 0 0 0 0 0 0 0 0.5 0"/>
            <feMerge>
                <feMergeNode in="shadowMatrixOuter1"/>
                <feMergeNode in="shadowMatrixOuter2"/>
            </feMerge>
        </filter>
        <path id="g" d="M276.889.443c15.26 6.52 22.16 20.59 22.16 43.643v525.645c0 21.68-7.135 35.912-21.642 42.902 1.54-4.357 16.222-11.538 16.222-40.441V41.578c0-30.49-17.193-37.553-16.74-41.135z"/>
        <filter id="h" width="131.6%" height="101.1%" x="-15.8%" y="-.6%" filterUnits="objectBoundingBox">
            <feGaussianBlur in="SourceAlpha" result="shadowBlurInner1" stdDeviation="2"/>
            <feOffset dx="3" in="shadowBlurInner1" result="shadowOffsetInner1"/>
            <feComposite in="shadowOffsetInner1" in2="SourceAlpha" k2="-1" k3="1" operator="arithmetic" result="shadowInnerInner1"/>
            <feColorMatrix in="shadowInnerInner1" values="0 0 0 0 0 0 0 0 0 0 0 0 0 0 0 0 0 0 0.6 0"/>
        </filter>
        <path id="i" d="M.009.493C15.27 7.018 22.17 21.103 22.17 44.179v526.17c0 21.702-7.135 35.948-21.642 42.946 1.539-4.362 16.222-11.55 16.222-40.483V41.67C16.75 11.149-.444 4.078.009.493z"/>
        <filter id="j" width="131.6%" height="101.1%" x="-15.8%" y="-.6%" filterUnits="objectBoundingBox">
            <feGaussianBlur in="SourceAlpha" result="shadowBlurInner1" stdDeviation="2"/>
            <feOffset dx="3" in="shadowBlurInner1" result="shadowOffsetInner1"/>
            <feComposite in="shadowOffsetInner1" in2="SourceAlpha" k2="-1" k3="1" operator="arithmetic" result="shadowInnerInner1"/>
            <feColorMatrix in="shadowInnerInner1" values="0 0 0 0 0 0 0 0 0 0 0 0 0 0 0 0 0 0 0.6 0"/>
        </filter>
        <path id="k" d="M1.564 103.92c-.508.138-1.117.49-1.443.991-.067.103-.12.43-.12.524v43.262c0 .1.075.61.12.732.264.712.721.884 1.443 1.295h.894c0-1.296.015-45.537 0-46.804h-.894z"/>
        <filter id="l" width="221.8%" height="106.4%" x="-60.9%" y="-3.2%" filterUnits="objectBoundingBox">
            <feOffset dx="1" in="SourceAlpha" result="shadowOffsetInner1"/>
            <feComposite in="shadowOffsetInner1" in2="SourceAlpha" k2="-1" k3="1" operator="arithmetic" result="shadowInnerInner1"/>
            <feColorMatrix in="shadowInnerInner1" result="shadowMatrixInner1" values="0 0 0 0 1 0 0 0 0 1 0 0 0 0 1 0 0 0 0.644842618 0"/>
            <feGaussianBlur in="SourceAlpha" result="shadowBlurInner2" stdDeviation=".5"/>
            <feOffset dy="2" in="shadowBlurInner2" result="shadowOffsetInner2"/>
            <feComposite in="shadowOffsetInner2" in2="SourceAlpha" k2="-1" k3="1" operator="arithmetic" result="shadowInnerInner2"/>
            <feColorMatrix in="shadowInnerInner2" result="shadowMatrixInner2" values="0 0 0 0 0.270588235 0 0 0 0 0.031372549 0 0 0 0 0.0588235294 0 0 0 1 0"/>
            <feGaussianBlur in="SourceAlpha" result="shadowBlurInner3" stdDeviation=".5"/>
            <feOffset dy="-2" in="shadowBlurInner3" result="shadowOffsetInner3"/>
            <feComposite in="shadowOffsetInner3" in2="SourceAlpha" k2="-1" k3="1" operator="arithmetic" result="shadowInnerInner3"/>
            <feColorMatrix in="shadowInnerInner3" result="shadowMatrixInner3" values="0 0 0 0 0.270588235 0 0 0 0 0.031372549 0 0 0 0 0.0588235294 0 0 0 1 0"/>
            <feMerge>
                <feMergeNode in="shadowMatrixInner1"/>
                <feMergeNode in="shadowMatrixInner2"/>
                <feMergeNode in="shadowMatrixInner3"/>
            </feMerge>
        </filter>
        <path id="m" d="M1.564 45.292c-.508.138-1.117.49-1.443.991-.067.104-.12.43-.12.524V90.07c0 .1.075.61.12.733.264.71.721.883 1.443 1.294h.894c0-1.296.015-45.537 0-46.804h-.894z"/>
        <filter id="n" width="221.8%" height="106.4%" x="-60.9%" y="-3.2%" filterUnits="objectBoundingBox">
            <feOffset dx="1" in="SourceAlpha" result="shadowOffsetInner1"/>
            <feComposite in="shadowOffsetInner1" in2="SourceAlpha" k2="-1" k3="1" operator="arithmetic" result="shadowInnerInner1"/>
            <feColorMatrix in="shadowInnerInner1" result="shadowMatrixInner1" values="0 0 0 0 1 0 0 0 0 1 0 0 0 0 1 0 0 0 0.644842618 0"/>
            <feGaussianBlur in="SourceAlpha" result="shadowBlurInner2" stdDeviation=".5"/>
            <feOffset dy="2" in="shadowBlurInner2" result="shadowOffsetInner2"/>
            <feComposite in="shadowOffsetInner2" in2="SourceAlpha" k2="-1" k3="1" operator="arithmetic" result="shadowInnerInner2"/>
            <feColorMatrix in="shadowInnerInner2" result="shadowMatrixInner2" values="0 0 0 0 0.270588235 0 0 0 0 0.031372549 0 0 0 0 0.0588235294 0 0 0 1 0"/>
            <feGaussianBlur in="SourceAlpha" result="shadowBlurInner3" stdDeviation=".5"/>
            <feOffset dy="-2" in="shadowBlurInner3" result="shadowOffsetInner3"/>
            <feComposite in="shadowOffsetInner3" in2="SourceAlpha" k2="-1" k3="1" operator="arithmetic" result="shadowInnerInner3"/>
            <feColorMatrix in="shadowInnerInner3" result="shadowMatrixInner3" values="0 0 0 0 0.270588235 0 0 0 0 0.031372549 0 0 0 0 0.0588235294 0 0 0 1 0"/>
            <feMerge>
                <feMergeNode in="shadowMatrixInner1"/>
                <feMergeNode in="shadowMatrixInner2"/>
                <feMergeNode in="shadowMatrixInner3"/>
            </feMerge>
        </filter>
        <path id="o" d="M1.564.46C.701.46.001 1.232.001 2.184v21.185c0 .952.7 1.724 1.563 1.724h.894c0-1.296.015-23.367 0-24.633h-.894z"/>
        <filter id="p" width="221.8%" height="112.2%" x="-60.9%" y="-6.1%" filterUnits="objectBoundingBox">
            <feOffset dx="1" in="SourceAlpha" result="shadowOffsetInner1"/>
            <feComposite in="shadowOffsetInner1" in2="SourceAlpha" k2="-1" k3="1" operator="arithmetic" result="shadowInnerInner1"/>
            <feColorMatrix in="shadowInnerInner1" result="shadowMatrixInner1" values="0 0 0 0 1 0 0 0 0 1 0 0 0 0 1 0 0 0 0.644842618 0"/>
            <feGaussianBlur in="SourceAlpha" result="shadowBlurInner2" stdDeviation=".5"/>
            <feOffset dy="2" in="shadowBlurInner2" result="shadowOffsetInner2"/>
            <feComposite in="shadowOffsetInner2" in2="SourceAlpha" k2="-1" k3="1" operator="arithmetic" result="shadowInnerInner2"/>
            <feColorMatrix in="shadowInnerInner2" result="shadowMatrixInner2" values="0 0 0 0 0.270588235 0 0 0 0 0.031372549 0 0 0 0 0.0588235294 0 0 0 1 0"/>
            <feGaussianBlur in="SourceAlpha" result="shadowBlurInner3" stdDeviation=".5"/>
            <feOffset dy="-2" in="shadowBlurInner3" result="shadowOffsetInner3"/>
            <feComposite in="shadowOffsetInner3" in2="SourceAlpha" k2="-1" k3="1" operator="arithmetic" result="shadowInnerInner3"/>
            <feColorMatrix in="shadowInnerInner3" result="shadowMatrixInner3" values="0 0 0 0 0.270588235 0 0 0 0 0.031372549 0 0 0 0 0.0588235294 0 0 0 1 0"/>
            <feMerge>
                <feMergeNode in="shadowMatrixInner1"/>
                <feMergeNode in="shadowMatrixInner2"/>
                <feMergeNode in="shadowMatrixInner3"/>
            </feMerge>
        </filter>
        <path id="q" d="M318.35 60.565c-.508.138-1.117.49-1.442.991-.068.103-.12.43-.12.524v70.851c0 .1.074.61.12.733.263.711.72.883 1.443 1.294h.893c0-1.295.015-73.126 0-74.393h-.893z"/>
        <filter id="r" width="221.8%" height="104%" x="-60.9%" y="-2%" filterUnits="objectBoundingBox">
            <feOffset dx="1" in="SourceAlpha" result="shadowOffsetInner1"/>
            <feComposite in="shadowOffsetInner1" in2="SourceAlpha" k2="-1" k3="1" operator="arithmetic" result="shadowInnerInner1"/>
            <feColorMatrix in="shadowInnerInner1" result="shadowMatrixInner1" values="0 0 0 0 1 0 0 0 0 1 0 0 0 0 1 0 0 0 0.644842618 0"/>
            <feGaussianBlur in="SourceAlpha" result="shadowBlurInner2" stdDeviation=".5"/>
            <feOffset dy="2" in="shadowBlurInner2" result="shadowOffsetInner2"/>
            <feComposite in="shadowOffsetInner2" in2="SourceAlpha" k2="-1" k3="1" operator="arithmetic" result="shadowInnerInner2"/>
            <feColorMatrix in="shadowInnerInner2" result="shadowMatrixInner2" values="0 0 0 0 0.270588235 0 0 0 0 0.031372549 0 0 0 0 0.0588235294 0 0 0 1 0"/>
            <feGaussianBlur in="SourceAlpha" result="shadowBlurInner3" stdDeviation=".5"/>
            <feOffset dy="-2" in="shadowBlurInner3" result="shadowOffsetInner3"/>
            <feComposite in="shadowOffsetInner3" in2="SourceAlpha" k2="-1" k3="1" operator="arithmetic" result="shadowInnerInner3"/>
            <feColorMatrix in="shadowInnerInner3" result="shadowMatrixInner3" values="0 0 0 0 0.270588235 0 0 0 0 0.031372549 0 0 0 0 0.0588235294 0 0 0 1 0"/>
            <feMerge>
                <feMergeNode in="shadowMatrixInner1"/>
                <feMergeNode in="shadowMatrixInner2"/>
                <feMergeNode in="shadowMatrixInner3"/>
            </feMerge>
        </filter>
        <linearGradient id="s" x1="50%" x2="50%" y1="100%" y2="0%">
            <stop offset="0%" stop-color="#1F1F1F"/>
            <stop offset="100%" stop-color="#0F0F0F"/>
        </linearGradient>
        <ellipse id="t" cx="2.81" cy="2.949" rx="2.463" ry="2.464"/>
        <filter id="u" width="198.4%" height="140.8%" x="-49.2%" y="-20.4%" filterUnits="objectBoundingBox">
            <feGaussianBlur in="SourceGraphic" stdDeviation=".525"/>
        </filter>
        <filter id="w" width="198.4%" height="140.8%" x="-49.2%" y="-20.4%" filterUnits="objectBoundingBox">
            <feGaussianBlur in="SourceGraphic" stdDeviation=".525"/>
        </filter>
        <rect id="x" width="38.945" height="5.064" rx="2.532"/>
        <filter id="y" width="110.3%" height="179%" x="-5.1%" y="-19.7%" filterUnits="objectBoundingBox">
            <feOffset dy="1" in="SourceAlpha" result="shadowOffsetOuter1"/>
            <feGaussianBlur in="shadowOffsetOuter1" result="shadowBlurOuter1" stdDeviation=".5"/>
            <feColorMatrix in="shadowBlurOuter1" values="0 0 0 0 1 0 0 0 0 1 0 0 0 0 1 0 0 0 0.217589447 0"/>
        </filter>
        <path id="A" d="M215.98 6.405c0 7.093-5.228 15.765-17.258 15.765H78.897c-12.03 0-17.259-8.672-17.259-15.519 0-3.413 0-6.651-5.67-6.651H32.052C12.065 0 0 12.054 0 32.023v535.531c0 19.97 12.065 32.024 32.052 32.024H245.32c19.986 0 32.051-12.055 32.051-32.024V32.024C277.372 12.053 265.307 0 245.321 0h-23.67c-5.67 0-5.67 3.238-5.67 6.405z"/>
        <linearGradient id="B" x1="50%" x2="50%" y1="0%" y2="100%">
            <stop offset="0%" stop-color="#5DCAD9"/>
            <stop offset="100%" stop-color="#25B0BD"/>
        </linearGradient>
        <linearGradient id="C" x1="50%" x2="50%" y1="0%" y2="100%">
            <stop offset="0%" stop-color="#D10808"/>
            <stop offset="100%" stop-color="#A41212"/>
        </linearGradient>
    </defs>
    <g fill="none" fill-rule="evenodd">
        <g transform="translate(3.472 2.07)">
            <use fill="#D10808" xlink:href="#a"/>
            <use fill="#000" filter="url(#b)" xlink:href="#a"/>
            <path stroke="#A41212" stroke-width="1.575" d="M54.484-.787H257.87c37.57 0 55.27 17.843 55.27 55.27V581.06c0 36.186-18.925 55.27-55.27 55.27H54.484c-37.57 0-55.27-17.843-55.27-55.27V54.483c0-37.427 17.7-55.27 55.27-55.27z"/>
        </g>
        <path fill="url(#c)" d="M54.728 3.449c-35.36 0-51.28 16.036-51.28 51.237v526.17c0 35.202 15.92 51.238 51.28 51.238h203.39c34.132 0 51.278-17.276 51.278-51.238V54.686c0-35.201-15.92-51.237-51.279-51.237H54.727z" transform="translate(3.472 2.07)"/>
        <g transform="translate(3.472 2.07)">
            <use fill="#000" filter="url(#d)" xlink:href="#e"/>
            <use fill="url(#f)" xlink:href="#e"/>
        </g>
        <path fill="#000" fill-rule="nonzero" d="M58.022 12.91c-30.858 0-43.218 12.334-43.218 43.108v526.17c0 30.773 12.36 43.108 43.218 43.108h203.745c29.623 0 43.218-13.567 43.218-43.108V56.018c0-30.774-12.36-43.109-43.218-43.109H58.022z"/>
        <g transform="translate(10.37 12.416)">
            <use fill="#FFF" fill-opacity=".78" xlink:href="#g"/>
            <use fill="#000" filter="url(#h)" xlink:href="#g"/>
        </g>
        <g transform="rotate(-180 16.27 313.102)">
            <use fill="#FFF" fill-opacity=".78" xlink:href="#i"/>
            <use fill="#000" filter="url(#j)" xlink:href="#i"/>
        </g>
        <g fill="#000" opacity=".45">
            <path d="M1.994 573.074h4.927v4.436H1.994zM1.994 61.684h4.927v4.436H1.994z"/>
            <g>
                <path d="M312.374 573.074h4.927v4.436h-4.927zM312.374 61.684h4.927v4.436h-4.927z"/>
            </g>
        </g>
        <g>
            <g transform="translate(.022 86.35)">
                <use fill="#BD1729" xlink:href="#k"/>
                <use fill="#000" filter="url(#l)" xlink:href="#k"/>
            </g>
            <g transform="translate(.022 86.35)">
                <use fill="#BD1729" xlink:href="#m"/>
                <use fill="#000" filter="url(#n)" xlink:href="#m"/>
            </g>
            <g transform="translate(.022 86.35)">
                <use fill="#BD1729" xlink:href="#o"/>
                <use fill="#000" filter="url(#p)" xlink:href="#o"/>
            </g>
            <g transform="matrix(-1 0 0 1 636.06 86.35)">
                <use fill="#BD1729" xlink:href="#q"/>
                <use fill="#000" filter="url(#r)" xlink:href="#q"/>
            </g>
        </g>
        <g>
            <g transform="translate(188.367 21.292)">
                <circle cx="4.782" cy="4.919" r="4.434" fill="url(#s)"/>
                <g transform="translate(1.97 1.97)">
                    <mask id="v" fill="#fff">
                        <use xlink:href="#t"/>
                    </mask>
                    <use fill="#070D1D" opacity=".388" xlink:href="#t"/>
                    <path fill="#0D569A" d="M2.465-.909c.258 0 .506.062.74.177-1 .491-1.725 1.954-1.725 3.681s.725 3.19 1.724 3.681a1.663 1.663 0 0 1-.739.177C1.105 6.807.002 5.08.002 2.949c0-2.13 1.103-3.858 2.463-3.858z" filter="url(#u)" mask="url(#v)"/>
                    <path fill="#0D569A" d="M3.2-.909c1.36 0 2.463 1.727 2.463 3.858 0 2.13-1.103 3.858-2.463 3.858-.258 0-.507-.062-.74-.177 1-.492 1.725-1.954 1.725-3.681S3.46-.241 2.46-.732c.232-.115.48-.177.739-.177z" filter="url(#w)" mask="url(#v)"/>
                </g>
            </g>
            <g opacity=".801" transform="translate(139.941 23.748)">
                <mask id="z" fill="#fff">
                    <use xlink:href="#x"/>
                </mask>
                <use fill="#000" filter="url(#y)" xlink:href="#x"/>
                <use fill="#1D1C1C" xlink:href="#x"/>
                <g stroke="#FFF" stroke-width=".525" mask="url(#z)" opacity=".056">
                    <path d="M-23.54-3.88l13.938 13.937M-20.959-3.88l13.938 13.937M-18.378-3.88L-4.44 10.056M-15.797-3.88l13.938 13.937M-13.216-3.88L.722 10.056M-10.635-3.88L3.303 10.056M-8.054-3.88L5.884 10.056M-5.472-3.88L8.466 10.056M-2.891-3.88l13.938 13.937M-.31-3.88l13.938 13.937M2.27-3.88L16.21 10.056M4.852-3.88L18.79 10.056M7.433-3.88l13.938 13.937M10.014-3.88l13.938 13.937M12.595-3.88l13.938 13.937M15.176-3.88l13.938 13.937M17.757-3.88l13.938 13.937M20.339-3.88l13.938 13.937M22.92-3.88l13.938 13.937M25.5-3.88L39.44 10.056M28.082-3.88L42.02 10.056M30.663-3.88l13.938 13.937M33.244-3.88l13.938 13.937M46.15-3.88L32.212 10.056M43.569-3.88L29.63 10.056M40.987-3.88L27.05 10.056M38.406-3.88L24.468 10.056M35.825-3.88L21.887 10.056M33.244-3.88L19.306 10.056M30.663-3.88L16.725 10.056M28.082-3.88L14.144 10.056M25.5-3.88L11.564 10.056M22.92-3.88L8.982 10.056M20.339-3.88L6.4 10.056M17.757-3.88L3.82 10.056M15.176-3.88L1.238 10.056M12.595-3.88L-1.343 10.056M10.014-3.88L-3.924 10.056M7.433-3.88L-6.505 10.056M4.852-3.88L-9.086 10.056M2.27-3.88l-13.937 13.937M-.31-3.88l-13.938 13.937M-2.891-3.88L-16.83 10.056M-5.472-3.88L-19.41 10.056M-8.054-3.88L-21.99 10.056M-10.635-3.88l-13.938 13.937"/>
                </g>
            </g>
        </g>
        <g transform="translate(20.978 19.075)">
            <use fill="#FFF" xlink:href="#A"/>
        </g>
        <g>
            <path fill="#FBF4E5" d="M50 131h198a6 6 0 0 1 6 6v106c0 9.941-8.059 18-18 18H50a6 6 0 0 1-6-6V137a6 6 0 0 1 6-6z"/>
            <path fill="#313131" fill-rule="nonzero" d="M72.532 152.6v8.4h-1.2v-3.744h-4.824V161h-1.2v-8.4h1.2v3.612h4.824V152.6h1.2zm4.692 1.98c.88 0 1.554.216 2.022.648.468.432.702 1.076.702 1.932V161h-1.092v-.84a1.82 1.82 0 0 1-.822.678c-.356.156-.778.234-1.266.234-.712 0-1.282-.172-1.71-.516-.428-.344-.642-.796-.642-1.356s.204-1.01.612-1.35c.408-.34 1.056-.51 1.944-.51h1.824v-.228c0-.496-.144-.876-.432-1.14-.288-.264-.712-.396-1.272-.396-.376 0-.744.062-1.104.186-.36.124-.664.29-.912.498l-.48-.864c.328-.264.72-.466 1.176-.606.456-.14.94-.21 1.452-.21zm-.264 5.604c.44 0 .82-.098 1.14-.294.32-.196.552-.474.696-.834v-.888H77.02c-.976 0-1.464.328-1.464.984 0 .32.124.572.372.756.248.184.592.276 1.032.276zm8.508-2.496c.424.112.752.292.984.54a1.3 1.3 0 0 1 .348.924c0 .376-.128.71-.384 1.002-.256.292-.61.52-1.062.684a4.427 4.427 0 0 1-1.518.246c-.472 0-.934-.062-1.386-.186a4.188 4.188 0 0 1-1.206-.534l.348-.876c.304.192.652.342 1.044.45.392.108.788.162 1.188.162.544 0 .978-.094 1.302-.282.324-.188.486-.442.486-.762a.76.76 0 0 0-.39-.684c-.26-.16-.626-.24-1.098-.24H82.96v-.828h1.08c.432 0 .772-.076 1.02-.228.248-.152.372-.36.372-.624 0-.288-.146-.512-.438-.672-.292-.16-.686-.24-1.182-.24-.632 0-1.3.164-2.004.492l-.312-.888a5.335 5.335 0 0 1 2.436-.588c.512 0 .972.072 1.38.216.408.144.728.348.96.612.232.264.348.564.348.9 0 .312-.104.592-.312.84a1.928 1.928 0 0 1-.84.564zm5.808 3.384c-.632 0-1.2-.14-1.704-.42a3.046 3.046 0 0 1-1.182-1.158c-.284-.492-.426-1.05-.426-1.674 0-.624.142-1.182.426-1.674a3.004 3.004 0 0 1 1.182-1.152 3.489 3.489 0 0 1 1.704-.414c.632 0 1.198.138 1.698.414.5.276.892.66 1.176 1.152.284.492.426 1.05.426 1.674 0 .624-.142 1.182-.426 1.674a3.057 3.057 0 0 1-1.176 1.158c-.5.28-1.066.42-1.698.42zm0-1.008c.408 0 .774-.094 1.098-.282a1.99 1.99 0 0 0 .762-.792c.184-.34.276-.73.276-1.17 0-.44-.092-.83-.276-1.17a1.95 1.95 0 0 0-.762-.786 2.184 2.184 0 0 0-1.098-.276c-.408 0-.774.092-1.098.276a1.99 1.99 0 0 0-.768.786c-.188.34-.282.73-.282 1.17 0 .44.094.83.282 1.17.188.34.444.604.768.792.324.188.69.282 1.098.282zm9.3-2.364c.824.208 1.236.724 1.236 1.548 0 .56-.21.992-.63 1.296-.42.304-1.046.456-1.878.456h-3.06v-6.36h2.952c.752 0 1.34.142 1.764.426.424.284.636.686.636 1.206 0 .336-.09.626-.27.87-.18.244-.43.43-.75.558zm-3.204-.324H99.1c.44 0 .774-.08 1.002-.24.228-.16.342-.392.342-.696 0-.608-.448-.912-1.344-.912h-1.728v1.848zm1.848 2.736c.48 0 .84-.076 1.08-.228.24-.152.36-.388.36-.708 0-.328-.11-.572-.33-.732-.22-.16-.566-.24-1.038-.24h-1.92v1.908h1.848zm4.392-5.472h1.152v4.632l3.9-4.632h1.044V161h-1.152v-4.632L104.668 161h-1.056v-6.36zm13.068 1.008h-2.328V161H113.2v-5.352h-2.328v-1.008h5.808v1.008zm6.924 2.208c0 .088-.008.204-.024.348h-5.16c.072.56.318 1.01.738 1.35.42.34.942.51 1.566.51.76 0 1.372-.256 1.836-.768l.636.744a2.786 2.786 0 0 1-1.074.768 3.738 3.738 0 0 1-1.434.264c-.672 0-1.268-.138-1.788-.414a2.953 2.953 0 0 1-1.206-1.158 3.32 3.32 0 0 1-.426-1.68c0-.616.138-1.172.414-1.668a2.966 2.966 0 0 1 1.14-1.158 3.247 3.247 0 0 1 1.638-.414c.608 0 1.15.138 1.626.414.476.276.848.662 1.116 1.158.268.496.402 1.064.402 1.704zm-3.144-2.304c-.552 0-1.014.168-1.386.504-.372.336-.59.776-.654 1.32h4.08c-.064-.536-.282-.974-.654-1.314-.372-.34-.834-.51-1.386-.51zm8.16-.912h1.152v2.7h3.624v-2.7h1.152V161h-1.152v-2.664h-3.624V161h-1.152v-6.36zm10.44-.06c.88 0 1.554.216 2.022.648.468.432.702 1.076.702 1.932V161h-1.092v-.84a1.82 1.82 0 0 1-.822.678c-.356.156-.778.234-1.266.234-.712 0-1.282-.172-1.71-.516-.428-.344-.642-.796-.642-1.356s.204-1.01.612-1.35c.408-.34 1.056-.51 1.944-.51h1.824v-.228c0-.496-.144-.876-.432-1.14-.288-.264-.712-.396-1.272-.396-.376 0-.744.062-1.104.186-.36.124-.664.29-.912.498l-.48-.864c.328-.264.72-.466 1.176-.606.456-.14.94-.21 1.452-.21zm-.264 5.604c.44 0 .82-.098 1.14-.294.32-.196.552-.474.696-.834v-.888h-1.776c-.976 0-1.464.328-1.464.984 0 .32.124.572.372.756.248.184.592.276 1.032.276zm12.396-5.544V161h-1.044v-4.644l-2.376 3.924h-.504l-2.352-3.936V161h-1.056v-6.36h1.188l2.496 4.296 2.568-4.296h1.08zm8.244 6.432c-.648 0-1.226-.14-1.734-.42a3.077 3.077 0 0 1-1.194-1.158 3.251 3.251 0 0 1-.432-1.674c0-.624.144-1.182.432-1.674a3.035 3.035 0 0 1 1.194-1.152c.508-.276 1.086-.414 1.734-.414.576 0 1.09.116 1.542.348.452.232.802.568 1.05 1.008l-.876.564a1.957 1.957 0 0 0-.744-.684 2.122 2.122 0 0 0-.984-.228c-.416 0-.79.092-1.122.276a1.967 1.967 0 0 0-.78.786c-.188.34-.282.73-.282 1.17 0 .448.094.842.282 1.182.188.34.448.602.78.786.332.184.706.276 1.122.276.36 0 .688-.076.984-.228.296-.152.544-.38.744-.684l.876.552c-.248.44-.598.778-1.05 1.014-.452.236-.966.354-1.542.354zm8.412-3.372c.824.208 1.236.724 1.236 1.548 0 .56-.21.992-.63 1.296-.42.304-1.046.456-1.878.456h-3.06v-6.36h2.952c.752 0 1.34.142 1.764.426.424.284.636.686.636 1.206 0 .336-.09.626-.27.87-.18.244-.43.43-.75.558zm-3.204-.324h1.728c.44 0 .774-.08 1.002-.24.228-.16.342-.392.342-.696 0-.608-.448-.912-1.344-.912h-1.728v1.848zm1.848 2.736c.48 0 .84-.076 1.08-.228.24-.152.36-.388.36-.708 0-.328-.11-.572-.33-.732-.22-.16-.566-.24-1.038-.24h-1.92v1.908h1.848zm7.116.96c-.632 0-1.2-.14-1.704-.42a3.046 3.046 0 0 1-1.182-1.158c-.284-.492-.426-1.05-.426-1.674 0-.624.142-1.182.426-1.674a3.004 3.004 0 0 1 1.182-1.152 3.489 3.489 0 0 1 1.704-.414c.632 0 1.198.138 1.698.414.5.276.892.66 1.176 1.152.284.492.426 1.05.426 1.674 0 .624-.142 1.182-.426 1.674a3.057 3.057 0 0 1-1.176 1.158c-.5.28-1.066.42-1.698.42zm0-1.008c.408 0 .774-.094 1.098-.282a1.99 1.99 0 0 0 .762-.792c.184-.34.276-.73.276-1.17 0-.44-.092-.83-.276-1.17a1.95 1.95 0 0 0-.762-.786 2.184 2.184 0 0 0-1.098-.276c-.408 0-.774.092-1.098.276a1.99 1.99 0 0 0-.768.786c-.188.34-.282.73-.282 1.17 0 .44.094.83.282 1.17.188.34.444.604.768.792.324.188.69.282 1.098.282zm4.968-5.424h1.152v4.632l3.9-4.632h1.044V161h-1.152v-4.632L179.632 161h-1.056v-6.36zM71.584 179.992v2.484h-1.08V181h-5.316v1.476h-1.092v-2.484h.336c.408-.024.688-.312.84-.864.152-.552.256-1.332.312-2.34l.096-2.148h4.932v5.352h.972zm-4.944-3.12c-.032.8-.098 1.462-.198 1.986s-.282.902-.546 1.134h3.564v-4.344H66.7l-.06 1.224zm8.712-2.292c.88 0 1.554.216 2.022.648.468.432.702 1.076.702 1.932V181h-1.092v-.84a1.82 1.82 0 0 1-.822.678c-.356.156-.778.234-1.266.234-.712 0-1.282-.172-1.71-.516-.428-.344-.642-.796-.642-1.356s.204-1.01.612-1.35c.408-.34 1.056-.51 1.944-.51h1.824v-.228c0-.496-.144-.876-.432-1.14-.288-.264-.712-.396-1.272-.396-.376 0-.744.062-1.104.186-.36.124-.664.29-.912.498l-.48-.864c.328-.264.72-.466 1.176-.606.456-.14.94-.21 1.452-.21zm-.264 5.604c.44 0 .82-.098 1.14-.294.32-.196.552-.474.696-.834v-.888h-1.776c-.976 0-1.464.328-1.464.984 0 .32.124.572.372.756.248.184.592.276 1.032.276zm5.064-5.544h1.152v2.7h3.624v-2.7h1.152V181h-1.152v-2.664h-3.624V181h-1.152v-6.36zm8.172 0h1.152v2.7H93.1v-2.7h1.152V181H93.1v-2.664h-3.624V181h-1.152v-6.36zm11.04 2.16c.8.008 1.412.192 1.836.552.424.36.636.868.636 1.524 0 .688-.23 1.218-.69 1.59-.46.372-1.118.554-1.974.546L96.496 181v-6.36h1.152v2.148l1.716.012zm3.42-2.16h1.152V181h-1.152v-6.36zm-3.696 5.496c.52.008.914-.096 1.182-.312.268-.216.402-.536.402-.96 0-.416-.132-.72-.396-.912-.264-.192-.66-.292-1.188-.3l-1.44-.024v2.496l1.44.012zm12.84-2.28c0 .088-.008.204-.024.348h-5.16c.072.56.318 1.01.738 1.35.42.34.942.51 1.566.51.76 0 1.372-.256 1.836-.768l.636.744a2.786 2.786 0 0 1-1.074.768 3.738 3.738 0 0 1-1.434.264c-.672 0-1.268-.138-1.788-.414a2.953 2.953 0 0 1-1.206-1.158 3.32 3.32 0 0 1-.426-1.68c0-.616.138-1.172.414-1.668a2.966 2.966 0 0 1 1.14-1.158 3.247 3.247 0 0 1 1.638-.414c.608 0 1.15.138 1.626.414.476.276.848.662 1.116 1.158.268.496.402 1.064.402 1.704zm-3.144-2.304c-.552 0-1.014.168-1.386.504-.372.336-.59.776-.654 1.32h4.08c-.064-.536-.282-.974-.654-1.314-.372-.34-.834-.51-1.386-.51zm5.196 3.876c.224 0 .41.078.558.234.148.156.222.35.222.582 0 .12-.014.236-.042.348a6.904 6.904 0 0 1-.162.516l-.564 1.668h-.756l.444-1.788a.753.753 0 0 1-.366-.282.788.788 0 0 1-.138-.462c0-.24.076-.436.228-.588a.78.78 0 0 1 .576-.228zm11.472-1.116h-1.236V181h-1.152v-2.688h-1.236L120.076 181h-1.368l2.184-3.288-2.016-3.072h1.224l1.716 2.688h1.248v-2.688h1.152v2.688h1.248l1.716-2.688h1.236l-2.016 3.084 2.184 3.276h-1.368l-1.764-2.688zm10.152-.456c0 .088-.008.204-.024.348h-5.16c.072.56.318 1.01.738 1.35.42.34.942.51 1.566.51.76 0 1.372-.256 1.836-.768l.636.744a2.786 2.786 0 0 1-1.074.768 3.738 3.738 0 0 1-1.434.264c-.672 0-1.268-.138-1.788-.414a2.953 2.953 0 0 1-1.206-1.158 3.32 3.32 0 0 1-.426-1.68c0-.616.138-1.172.414-1.668a2.966 2.966 0 0 1 1.14-1.158 3.247 3.247 0 0 1 1.638-.414c.608 0 1.15.138 1.626.414.476.276.848.662 1.116 1.158.268.496.402 1.064.402 1.704zm-3.144-2.304c-.552 0-1.014.168-1.386.504-.372.336-.59.776-.654 1.32h4.08c-.064-.536-.282-.974-.654-1.314-.372-.34-.834-.51-1.386-.51zm10.392-.912V181H141.7v-5.352h-2.736l-.072 1.416c-.04.856-.116 1.57-.228 2.142-.112.572-.296 1.03-.552 1.374-.256.344-.612.516-1.068.516-.208 0-.444-.036-.708-.108l.072-.972c.104.024.2.036.288.036.32 0 .56-.14.72-.42.16-.28.264-.612.312-.996.048-.384.092-.932.132-1.644l.108-2.352h4.884zm4.5-.06c.88 0 1.554.216 2.022.648.468.432.702 1.076.702 1.932V181h-1.092v-.84a1.82 1.82 0 0 1-.822.678c-.356.156-.778.234-1.266.234-.712 0-1.282-.172-1.71-.516-.428-.344-.642-.796-.642-1.356s.204-1.01.612-1.35c.408-.34 1.056-.51 1.944-.51h1.824v-.228c0-.496-.144-.876-.432-1.14-.288-.264-.712-.396-1.272-.396-.376 0-.744.062-1.104.186-.36.124-.664.29-.912.498l-.48-.864c.328-.264.72-.466 1.176-.606.456-.14.94-.21 1.452-.21zm-.264 5.604c.44 0 .82-.098 1.14-.294.32-.196.552-.474.696-.834v-.888h-1.776c-.976 0-1.464.328-1.464.984 0 .32.124.572.372.756.248.184.592.276 1.032.276zm10.812-2.328c0 .088-.008.204-.024.348h-5.16c.072.56.318 1.01.738 1.35.42.34.942.51 1.566.51.76 0 1.372-.256 1.836-.768l.636.744a2.786 2.786 0 0 1-1.074.768 3.738 3.738 0 0 1-1.434.264c-.672 0-1.268-.138-1.788-.414a2.953 2.953 0 0 1-1.206-1.158 3.32 3.32 0 0 1-.426-1.68c0-.616.138-1.172.414-1.668a2.966 2.966 0 0 1 1.14-1.158 3.247 3.247 0 0 1 1.638-.414c.608 0 1.15.138 1.626.414.476.276.848.662 1.116 1.158.268.496.402 1.064.402 1.704zm-3.144-2.304c-.552 0-1.014.168-1.386.504-.372.336-.59.776-.654 1.32h4.08c-.064-.536-.282-.974-.654-1.314-.372-.34-.834-.51-1.386-.51zm12.264-.912V181h-1.044v-4.644l-2.376 3.924h-.504l-2.352-3.936V181h-1.056v-6.36h1.188l2.496 4.296 2.568-4.296h1.08zm7.92 0l-3.084 6.996c-.272.648-.59 1.104-.954 1.368s-.802.396-1.314.396c-.312 0-.614-.05-.906-.15a1.86 1.86 0 0 1-.726-.438l.492-.864c.328.312.708.468 1.14.468a1.1 1.1 0 0 0 .702-.222c.188-.148.358-.402.51-.762l.204-.444-2.808-6.348h1.2l2.22 5.088 2.196-5.088h1.128zm6.804-.06c.616 0 1.168.138 1.656.414.488.276.872.66 1.152 1.152.28.492.42 1.05.42 1.674 0 .624-.14 1.182-.42 1.674a3.05 3.05 0 0 1-1.152 1.158c-.488.28-1.04.42-1.656.42-.56 0-1.068-.116-1.524-.348a3.007 3.007 0 0 1-1.122-.978 3.225 3.225 0 0 1-.546-1.434h-1.284V181h-1.152v-6.36h1.152v2.604h1.296c.08-.528.266-.994.558-1.398a2.946 2.946 0 0 1 1.116-.936c.452-.22.954-.33 1.506-.33zm0 5.484c.392 0 .746-.092 1.062-.276.316-.184.566-.446.75-.786.184-.34.276-.734.276-1.182 0-.44-.092-.83-.276-1.17a1.974 1.974 0 0 0-.75-.786 2.071 2.071 0 0 0-1.062-.276c-.392 0-.748.092-1.068.276-.32.184-.57.446-.75.786-.18.34-.27.73-.27 1.17 0 .448.09.842.27 1.182.18.34.43.602.75.786.32.184.676.276 1.068.276zm10.884 1.008c-.648 0-1.226-.14-1.734-.42a3.077 3.077 0 0 1-1.194-1.158 3.251 3.251 0 0 1-.432-1.674c0-.624.144-1.182.432-1.674a3.035 3.035 0 0 1 1.194-1.152c.508-.276 1.086-.414 1.734-.414.576 0 1.09.116 1.542.348.452.232.802.568 1.05 1.008l-.876.564a1.957 1.957 0 0 0-.744-.684 2.122 2.122 0 0 0-.984-.228c-.416 0-.79.092-1.122.276a1.967 1.967 0 0 0-.78.786c-.188.34-.282.73-.282 1.17 0 .448.094.842.282 1.182.188.34.448.602.78.786.332.184.706.276 1.122.276.36 0 .688-.076.984-.228.296-.152.544-.38.744-.684l.876.552c-.248.44-.598.778-1.05 1.014-.452.236-.966.354-1.542.354zm9.756-6.432l-3.084 6.996c-.272.648-.59 1.104-.954 1.368s-.802.396-1.314.396c-.312 0-.614-.05-.906-.15a1.86 1.86 0 0 1-.726-.438l.492-.864c.328.312.708.468 1.14.468a1.1 1.1 0 0 0 .702-.222c.188-.148.358-.402.51-.762l.204-.444-2.808-6.348h1.2l2.22 5.088 2.196-5.088h1.128zm8.508 0V181h-1.044v-4.644l-2.376 3.924h-.504l-2.352-3.936V181h-1.056v-6.36h1.188l2.496 4.296 2.568-4.296h1.08zm9.576 0V181h-1.044v-4.644l-2.376 3.924h-.504l-2.352-3.936V181h-1.056v-6.36h1.188l2.496 4.296 2.568-4.296h1.08zm7.92 0l-3.084 6.996c-.272.648-.59 1.104-.954 1.368s-.802.396-1.314.396c-.312 0-.614-.05-.906-.15a1.86 1.86 0 0 1-.726-.438l.492-.864c.328.312.708.468 1.14.468a1.1 1.1 0 0 0 .702-.222c.188-.148.358-.402.51-.762l.204-.444-2.808-6.348h1.2l2.22 5.088 2.196-5.088h1.128zM68.56 197.688c.424.112.752.292.984.54a1.3 1.3 0 0 1 .348.924c0 .376-.128.71-.384 1.002-.256.292-.61.52-1.062.684a4.427 4.427 0 0 1-1.518.246c-.472 0-.934-.062-1.386-.186a4.188 4.188 0 0 1-1.206-.534l.348-.876c.304.192.652.342 1.044.45.392.108.788.162 1.188.162.544 0 .978-.094 1.302-.282.324-.188.486-.442.486-.762a.76.76 0 0 0-.39-.684c-.26-.16-.626-.24-1.098-.24h-1.164v-.828h1.08c.432 0 .772-.076 1.02-.228.248-.152.372-.36.372-.624 0-.288-.146-.512-.438-.672-.292-.16-.686-.24-1.182-.24-.632 0-1.3.164-2.004.492l-.312-.888a5.335 5.335 0 0 1 2.436-.588c.512 0 .972.072 1.38.216.408.144.728.348.96.612.232.264.348.564.348.9 0 .312-.104.592-.312.84a1.928 1.928 0 0 1-.84.564zm5.352-3.108c.88 0 1.554.216 2.022.648.468.432.702 1.076.702 1.932V201h-1.092v-.84a1.82 1.82 0 0 1-.822.678c-.356.156-.778.234-1.266.234-.712 0-1.282-.172-1.71-.516-.428-.344-.642-.796-.642-1.356s.204-1.01.612-1.35c.408-.34 1.056-.51 1.944-.51h1.824v-.228c0-.496-.144-.876-.432-1.14-.288-.264-.712-.396-1.272-.396-.376 0-.744.062-1.104.186-.36.124-.664.29-.912.498l-.48-.864c.328-.264.72-.466 1.176-.606.456-.14.94-.21 1.452-.21zm-.264 5.604c.44 0 .82-.098 1.14-.294.32-.196.552-.474.696-.834v-.888h-1.776c-.976 0-1.464.328-1.464.984 0 .32.124.572.372.756.248.184.592.276 1.032.276zm5.064-5.544h1.152v4.632l3.9-4.632h1.044V201h-1.152v-4.632L79.768 201h-1.056v-6.36zm2.976-.828c-.592 0-1.052-.142-1.38-.426-.328-.284-.496-.694-.504-1.23h.78c.008.296.11.534.306.714.196.18.458.27.786.27s.592-.09.792-.27c.2-.18.304-.418.312-.714h.804c-.008.536-.18.946-.516 1.23-.336.284-.796.426-1.38.426zm12.684.828V201h-1.044v-4.644l-2.376 3.924h-.504l-2.352-3.936V201H87.04v-6.36h1.188l2.496 4.296 2.568-4.296h1.08zm4.512-.06c.88 0 1.554.216 2.022.648.468.432.702 1.076.702 1.932V201h-1.092v-.84a1.82 1.82 0 0 1-.822.678c-.356.156-.778.234-1.266.234-.712 0-1.282-.172-1.71-.516-.428-.344-.642-.796-.642-1.356s.204-1.01.612-1.35c.408-.34 1.056-.51 1.944-.51h1.824v-.228c0-.496-.144-.876-.432-1.14-.288-.264-.712-.396-1.272-.396-.376 0-.744.062-1.104.186-.36.124-.664.29-.912.498l-.48-.864c.328-.264.72-.466 1.176-.606.456-.14.94-.21 1.452-.21zm-.264 5.604c.44 0 .82-.098 1.14-.294.32-.196.552-.474.696-.834v-.888H98.68c-.976 0-1.464.328-1.464.984 0 .32.124.572.372.756.248.184.592.276 1.032.276zm8.292-5.544h1.152v4.632l3.9-4.632h1.044V201h-1.152v-4.632L107.968 201h-1.056v-6.36zm17.448 0V201h-1.152v-5.352h-3.588V201h-1.152v-6.36h5.892zm4.956 6.432c-.632 0-1.2-.14-1.704-.42a3.046 3.046 0 0 1-1.182-1.158c-.284-.492-.426-1.05-.426-1.674 0-.624.142-1.182.426-1.674a3.004 3.004 0 0 1 1.182-1.152 3.489 3.489 0 0 1 1.704-.414c.632 0 1.198.138 1.698.414.5.276.892.66 1.176 1.152.284.492.426 1.05.426 1.674 0 .624-.142 1.182-.426 1.674a3.057 3.057 0 0 1-1.176 1.158c-.5.28-1.066.42-1.698.42zm0-1.008c.408 0 .774-.094 1.098-.282a1.99 1.99 0 0 0 .762-.792c.184-.34.276-.73.276-1.17 0-.44-.092-.83-.276-1.17a1.95 1.95 0 0 0-.762-.786 2.184 2.184 0 0 0-1.098-.276c-.408 0-.774.092-1.098.276a1.99 1.99 0 0 0-.768.786c-.188.34-.282.73-.282 1.17 0 .44.094.83.282 1.17.188.34.444.604.768.792.324.188.69.282 1.098.282zm10.428-5.424V201h-1.152v-5.352h-2.736l-.072 1.416c-.04.856-.116 1.57-.228 2.142-.112.572-.296 1.03-.552 1.374-.256.344-.612.516-1.068.516-.208 0-.444-.036-.708-.108l.072-.972c.104.024.2.036.288.036.32 0 .56-.14.72-.42.16-.28.264-.612.312-.996.048-.384.092-.932.132-1.644l.108-2.352h4.884zm7.908 0l-3.084 6.996c-.272.648-.59 1.104-.954 1.368s-.802.396-1.314.396c-.312 0-.614-.05-.906-.15a1.86 1.86 0 0 1-.726-.438l.492-.864c.328.312.708.468 1.14.468a1.1 1.1 0 0 0 .702-.222c.188-.148.358-.402.51-.762l.204-.444-2.808-6.348h1.2l2.22 5.088 2.196-5.088h1.128zm6.252 0V201h-1.152v-2.568c-.688.32-1.372.48-2.052.48-.792 0-1.404-.184-1.836-.552-.432-.368-.648-.92-.648-1.656v-2.064h1.152v1.992c0 .44.138.772.414.996.276.224.662.336 1.158.336.56 0 1.164-.14 1.812-.42v-2.904h1.152zm2.232 0h1.152v4.632l3.9-4.632h1.044V201h-1.152v-4.632L157.192 201h-1.056v-6.36zm13.068 1.008h-2.328V201h-1.152v-5.352h-2.328v-1.008h5.808v1.008zm6.924 2.208c0 .088-.008.204-.024.348h-5.16c.072.56.318 1.01.738 1.35.42.34.942.51 1.566.51.76 0 1.372-.256 1.836-.768l.636.744a2.786 2.786 0 0 1-1.074.768 3.738 3.738 0 0 1-1.434.264c-.672 0-1.268-.138-1.788-.414a2.953 2.953 0 0 1-1.206-1.158 3.32 3.32 0 0 1-.426-1.68c0-.616.138-1.172.414-1.668a2.966 2.966 0 0 1 1.14-1.158 3.247 3.247 0 0 1 1.638-.414c.608 0 1.15.138 1.626.414.476.276.848.662 1.116 1.158.268.496.402 1.064.402 1.704zm-3.144-2.304c-.552 0-1.014.168-1.386.504-.372.336-.59.776-.654 1.32h4.08c-.064-.536-.282-.974-.654-1.314-.372-.34-.834-.51-1.386-.51zm14.628 4.44v2.484h-1.08V201h-5.316v1.476h-1.092v-2.484h.336c.408-.024.688-.312.84-.864.152-.552.256-1.332.312-2.34l.096-2.148h4.932v5.352h.972zm-4.944-3.12c-.032.8-.098 1.462-.198 1.986s-.282.902-.546 1.134h3.564v-4.344h-2.76l-.06 1.224zm12.192.984c0 .088-.008.204-.024.348h-5.16c.072.56.318 1.01.738 1.35.42.34.942.51 1.566.51.76 0 1.372-.256 1.836-.768l.636.744a2.786 2.786 0 0 1-1.074.768 3.738 3.738 0 0 1-1.434.264c-.672 0-1.268-.138-1.788-.414a2.953 2.953 0 0 1-1.206-1.158 3.32 3.32 0 0 1-.426-1.68c0-.616.138-1.172.414-1.668a2.966 2.966 0 0 1 1.14-1.158 3.247 3.247 0 0 1 1.638-.414c.608 0 1.15.138 1.626.414.476.276.848.662 1.116 1.158.268.496.402 1.064.402 1.704zm-3.144-2.304c-.552 0-1.014.168-1.386.504-.372.336-.59.776-.654 1.32h4.08c-.064-.536-.282-.974-.654-1.314-.372-.34-.834-.51-1.386-.51zm4.932-.912h1.152v2.7h3.624v-2.7h1.152V201h-1.152v-2.664H197.8V201h-1.152v-6.36zm11.112 2.16c.808.008 1.424.192 1.848.552.424.36.636.868.636 1.524 0 .688-.23 1.218-.69 1.59-.46.372-1.118.554-1.974.546l-2.76-.012v-6.36h1.152v2.148l1.788.012zm-.276 3.336c.52.008.914-.096 1.182-.312.268-.216.402-.536.402-.96 0-.416-.13-.72-.39-.912-.26-.192-.658-.292-1.194-.3l-1.512-.024v2.496l1.512.012zm8.916-4.488h-3.528V201h-1.152v-6.36h4.68v1.008zm1.176-1.008h1.152v4.632l3.9-4.632h1.044V201h-1.152v-4.632L218.632 201h-1.056v-6.36zm-152.46 20h1.152v2.7h3.624v-2.7h1.152V221h-1.152v-2.664h-3.624V221h-1.152v-6.36zm10.44-.06c.88 0 1.554.216 2.022.648.468.432.702 1.076.702 1.932V221h-1.092v-.84a1.82 1.82 0 0 1-.822.678c-.356.156-.778.234-1.266.234-.712 0-1.282-.172-1.71-.516-.428-.344-.642-.796-.642-1.356s.204-1.01.612-1.35c.408-.34 1.056-.51 1.944-.51h1.824v-.228c0-.496-.144-.876-.432-1.14-.288-.264-.712-.396-1.272-.396-.376 0-.744.062-1.104.186-.36.124-.664.29-.912.498l-.48-.864c.328-.264.72-.466 1.176-.606.456-.14.94-.21 1.452-.21zm-.264 5.604c.44 0 .82-.098 1.14-.294.32-.196.552-.474.696-.834v-.888h-1.776c-.976 0-1.464.328-1.464.984 0 .32.124.572.372.756.248.184.592.276 1.032.276zm10.764-1.872h-1.32V221h-1.152v-6.36h1.152v2.688h1.344l2.064-2.688h1.236l-2.412 3.06 2.58 3.3h-1.356l-2.136-2.688zm6.972-3.732c.88 0 1.554.216 2.022.648.468.432.702 1.076.702 1.932V221H94.66v-.84a1.82 1.82 0 0 1-.822.678c-.356.156-.778.234-1.266.234-.712 0-1.282-.172-1.71-.516-.428-.344-.642-.796-.642-1.356s.204-1.01.612-1.35c.408-.34 1.056-.51 1.944-.51H94.6v-.228c0-.496-.144-.876-.432-1.14-.288-.264-.712-.396-1.272-.396-.376 0-.744.062-1.104.186-.36.124-.664.29-.912.498l-.48-.864c.328-.264.72-.466 1.176-.606.456-.14.94-.21 1.452-.21zm-.264 5.604c.44 0 .82-.098 1.14-.294.32-.196.552-.474.696-.834v-.888h-1.776c-.976 0-1.464.328-1.464.984 0 .32.124.572.372.756.248.184.592.276 1.032.276zm8.436-5.604c.616 0 1.168.136 1.656.408.488.272.87.652 1.146 1.14.276.488.414 1.052.414 1.692 0 .64-.138 1.206-.414 1.698a2.923 2.923 0 0 1-1.146 1.146 3.343 3.343 0 0 1-1.656.408c-.456 0-.874-.088-1.254-.264a2.608 2.608 0 0 1-.966-.768v3.288h-1.152v-8.688h1.104v1.008c.256-.352.58-.618.972-.798.392-.18.824-.27 1.296-.27zm-.096 5.484c.408 0 .774-.094 1.098-.282.324-.188.58-.452.768-.792.188-.34.282-.73.282-1.17 0-.44-.094-.83-.282-1.17a1.99 1.99 0 0 0-.768-.786 2.184 2.184 0 0 0-1.098-.276c-.4 0-.762.094-1.086.282-.324.188-.58.45-.768.786a2.344 2.344 0 0 0-.282 1.164c0 .44.092.83.276 1.17.184.34.44.604.768.792.328.188.692.282 1.092.282zm9.72-4.416h-2.328V221h-1.152v-5.352h-2.328v-1.008h5.808v1.008zm6.852-1.008l-3.084 6.996c-.272.648-.59 1.104-.954 1.368s-.802.396-1.314.396c-.312 0-.614-.05-.906-.15a1.86 1.86 0 0 1-.726-.438l.492-.864c.328.312.708.468 1.14.468a1.1 1.1 0 0 0 .702-.222c.188-.148.358-.402.51-.762l.204-.444-2.808-6.348h1.2l2.22 5.088 2.196-5.088h1.128zm8.736 3.06c.824.208 1.236.724 1.236 1.548 0 .56-.21.992-.63 1.296-.42.304-1.046.456-1.878.456h-3.06v-6.36h2.952c.752 0 1.34.142 1.764.426.424.284.636.686.636 1.206 0 .336-.09.626-.27.87-.18.244-.43.43-.75.558zm-3.204-.324h1.728c.44 0 .774-.08 1.002-.24.228-.16.342-.392.342-.696 0-.608-.448-.912-1.344-.912h-1.728v1.848zm1.848 2.736c.48 0 .84-.076 1.08-.228.24-.152.36-.388.36-.708 0-.328-.11-.572-.33-.732-.22-.16-.566-.24-1.038-.24h-1.92v1.908h1.848zm12.36-4.464h-2.328V221h-1.152v-5.352h-2.328v-1.008h5.808v1.008zm6.924 2.208c0 .088-.008.204-.024.348h-5.16c.072.56.318 1.01.738 1.35.42.34.942.51 1.566.51.76 0 1.372-.256 1.836-.768l.636.744a2.786 2.786 0 0 1-1.074.768 3.738 3.738 0 0 1-1.434.264c-.672 0-1.268-.138-1.788-.414a2.953 2.953 0 0 1-1.206-1.158 3.32 3.32 0 0 1-.426-1.68c0-.616.138-1.172.414-1.668a2.966 2.966 0 0 1 1.14-1.158 3.247 3.247 0 0 1 1.638-.414c.608 0 1.15.138 1.626.414.476.276.848.662 1.116 1.158.268.496.402 1.064.402 1.704zm-3.144-2.304c-.552 0-1.014.168-1.386.504-.372.336-.59.776-.654 1.32h4.08c-.064-.536-.282-.974-.654-1.314-.372-.34-.834-.51-1.386-.51zm10.008-.912V221h-1.152v-2.568c-.688.32-1.372.48-2.052.48-.792 0-1.404-.184-1.836-.552-.432-.368-.648-.92-.648-1.656v-2.064h1.152v1.992c0 .44.138.772.414.996.276.224.662.336 1.158.336.56 0 1.164-.14 1.812-.42v-2.904h1.152zm7.98 3.216c0 .088-.008.204-.024.348H154c.072.56.318 1.01.738 1.35.42.34.942.51 1.566.51.76 0 1.372-.256 1.836-.768l.636.744a2.786 2.786 0 0 1-1.074.768 3.738 3.738 0 0 1-1.434.264c-.672 0-1.268-.138-1.788-.414a2.953 2.953 0 0 1-1.206-1.158 3.32 3.32 0 0 1-.426-1.68c0-.616.138-1.172.414-1.668a2.966 2.966 0 0 1 1.14-1.158 3.247 3.247 0 0 1 1.638-.414c.608 0 1.15.138 1.626.414.476.276.848.662 1.116 1.158.268.496.402 1.064.402 1.704zm-3.144-2.304c-.552 0-1.014.168-1.386.504-.372.336-.59.776-.654 1.32h4.08c-.064-.536-.282-.974-.654-1.314-.372-.34-.834-.51-1.386-.51zm4.932-.912h1.152v2.7h3.624v-2.7h1.152V221h-1.152v-2.664h-3.624V221h-1.152v-6.36zm8.172 0h1.152v4.632l3.9-4.632h1.044V221h-1.152v-4.632L170.2 221h-1.056v-6.36zm14.076 3.216c0 .088-.008.204-.024.348h-5.16c.072.56.318 1.01.738 1.35.42.34.942.51 1.566.51.76 0 1.372-.256 1.836-.768l.636.744a2.786 2.786 0 0 1-1.074.768 3.738 3.738 0 0 1-1.434.264c-.672 0-1.268-.138-1.788-.414a2.953 2.953 0 0 1-1.206-1.158 3.32 3.32 0 0 1-.426-1.68c0-.616.138-1.172.414-1.668a2.966 2.966 0 0 1 1.14-1.158 3.247 3.247 0 0 1 1.638-.414c.608 0 1.15.138 1.626.414.476.276.848.662 1.116 1.158.268.496.402 1.064.402 1.704zm-3.144-2.304c-.552 0-1.014.168-1.386.504-.372.336-.59.776-.654 1.32h4.08c-.064-.536-.282-.974-.654-1.314-.372-.34-.834-.51-1.386-.51zM65.116 234.64h1.152v2.7h3.624v-2.7h1.152V241h-1.152v-2.664h-3.624V241h-1.152v-6.36zm13.92 3.216c0 .088-.008.204-.024.348h-5.16c.072.56.318 1.01.738 1.35.42.34.942.51 1.566.51.76 0 1.372-.256 1.836-.768l.636.744a2.786 2.786 0 0 1-1.074.768 3.738 3.738 0 0 1-1.434.264c-.672 0-1.268-.138-1.788-.414a2.953 2.953 0 0 1-1.206-1.158 3.32 3.32 0 0 1-.426-1.68c0-.616.138-1.172.414-1.668a2.966 2.966 0 0 1 1.14-1.158 3.247 3.247 0 0 1 1.638-.414c.608 0 1.15.138 1.626.414.476.276.848.662 1.116 1.158.268.496.402 1.064.402 1.704zm-3.144-2.304c-.552 0-1.014.168-1.386.504-.372.336-.59.776-.654 1.32h4.08c-.064-.536-.282-.974-.654-1.314-.372-.34-.834-.51-1.386-.51zm7.704 5.52c-.648 0-1.226-.14-1.734-.42a3.077 3.077 0 0 1-1.194-1.158 3.251 3.251 0 0 1-.432-1.674c0-.624.144-1.182.432-1.674a3.035 3.035 0 0 1 1.194-1.152c.508-.276 1.086-.414 1.734-.414.576 0 1.09.116 1.542.348.452.232.802.568 1.05 1.008l-.876.564a1.957 1.957 0 0 0-.744-.684 2.122 2.122 0 0 0-.984-.228c-.416 0-.79.092-1.122.276a1.967 1.967 0 0 0-.78.786c-.188.34-.282.73-.282 1.17 0 .448.094.842.282 1.182.188.34.448.602.78.786.332.184.706.276 1.122.276.36 0 .688-.076.984-.228.296-.152.544-.38.744-.684l.876.552c-.248.44-.598.778-1.05 1.014-.452.236-.966.354-1.542.354zm6.552-2.76h-1.32V241h-1.152v-6.36h1.152v2.688h1.344l2.064-2.688h1.236l-2.412 3.06 2.58 3.3h-1.356l-2.136-2.688zm7.428 2.76c-.632 0-1.2-.14-1.704-.42a3.046 3.046 0 0 1-1.182-1.158c-.284-.492-.426-1.05-.426-1.674 0-.624.142-1.182.426-1.674a3.004 3.004 0 0 1 1.182-1.152 3.489 3.489 0 0 1 1.704-.414c.632 0 1.198.138 1.698.414.5.276.892.66 1.176 1.152.284.492.426 1.05.426 1.674 0 .624-.142 1.182-.426 1.674a3.057 3.057 0 0 1-1.176 1.158c-.5.28-1.066.42-1.698.42zm0-1.008c.408 0 .774-.094 1.098-.282a1.99 1.99 0 0 0 .762-.792c.184-.34.276-.73.276-1.17 0-.44-.092-.83-.276-1.17a1.95 1.95 0 0 0-.762-.786 2.184 2.184 0 0 0-1.098-.276c-.408 0-.774.092-1.098.276a1.99 1.99 0 0 0-.768.786c-.188.34-.282.73-.282 1.17 0 .44.094.83.282 1.17.188.34.444.604.768.792.324.188.69.282 1.098.282zm10.428-5.424V241h-1.152v-5.352h-2.736l-.072 1.416c-.04.856-.116 1.57-.228 2.142-.112.572-.296 1.03-.552 1.374-.256.344-.612.516-1.068.516-.208 0-.444-.036-.708-.108l.072-.972c.104.024.2.036.288.036.32 0 .56-.14.72-.42.16-.28.264-.612.312-.996.048-.384.092-.932.132-1.644l.108-2.352h4.884zm5.172 2.16c.808.008 1.424.192 1.848.552.424.36.636.868.636 1.524 0 .688-.23 1.218-.69 1.59-.46.372-1.118.554-1.974.546l-2.76-.012v-6.36h1.152v2.148l1.788.012zm-.276 3.336c.52.008.914-.096 1.182-.312.268-.216.402-.536.402-.96 0-.416-.13-.72-.39-.912-.26-.192-.658-.292-1.194-.3l-1.512-.024v2.496l1.512.012zm6.708-1.824h-1.32V241h-1.152v-6.36h1.152v2.688h1.344l2.064-2.688h1.236l-2.412 3.06 2.58 3.3h-1.356l-2.136-2.688zm4.704-3.672h1.152v4.632l3.9-4.632h1.044V241h-1.152v-4.632L125.368 241h-1.056v-6.36zm12.3 6.36l-1.836-2.436-1.86 2.436h-1.284l2.508-3.252-2.388-3.108h1.284l1.752 2.292 1.74-2.292h1.26l-2.4 3.108L137.92 241h-1.308zm13.08-6.36V241h-1.044v-4.644l-2.376 3.924h-.504l-2.352-3.936V241h-1.056v-6.36h1.188l2.496 4.296 2.568-4.296h1.08zm2.244 0h1.152v4.632l3.9-4.632h1.044V241h-1.152v-4.632L152.992 241h-1.056v-6.36zm8.328 0h1.152v2.7h3.624v-2.7h1.152V241h-1.152v-2.664h-3.624V241h-1.152v-6.36zm13.848 0l-3.084 6.996c-.272.648-.59 1.104-.954 1.368s-.802.396-1.314.396c-.312 0-.614-.05-.906-.15a1.86 1.86 0 0 1-.726-.438l.492-.864c.328.312.708.468 1.14.468a1.1 1.1 0 0 0 .702-.222c.188-.148.358-.402.51-.762l.204-.444-2.808-6.348h1.2l2.22 5.088 2.196-5.088h1.128zm5.916 1.008H177.7V241h-1.152v-5.352h-2.328v-1.008h5.808v1.008zm.996-3.048h1.356l-.228 5.748h-.912l-.216-5.748zm.684 8.472a.777.777 0 0 1-.564-.222.732.732 0 0 1-.228-.546c0-.216.076-.398.228-.546a.777.777 0 0 1 .564-.222c.224 0 .408.074.552.222.144.148.216.33.216.546a.742.742 0 0 1-.222.546.742.742 0 0 1-.546.222zm2.532-8.472h1.356l-.228 5.748h-.912l-.216-5.748zm.684 8.472a.777.777 0 0 1-.564-.222.732.732 0 0 1-.228-.546c0-.216.076-.398.228-.546a.777.777 0 0 1 .564-.222c.224 0 .408.074.552.222.144.148.216.33.216.546a.742.742 0 0 1-.222.546.742.742 0 0 1-.546.222zm2.532-8.472h1.356l-.228 5.748h-.912l-.216-5.748zm.684 8.472a.777.777 0 0 1-.564-.222.732.732 0 0 1-.228-.546c0-.216.076-.398.228-.546a.777.777 0 0 1 .564-.222c.224 0 .408.074.552.222.144.148.216.33.216.546a.742.742 0 0 1-.222.546.742.742 0 0 1-.546.222z"/>
            <path fill="#5C5A57" fill-rule="nonzero" d="M47.24 118.06c-.54 0-1.022-.117-1.445-.35a2.564 2.564 0 0 1-.995-.965 2.71 2.71 0 0 1-.36-1.395c0-.52.12-.985.36-1.395.24-.41.572-.73.995-.96.423-.23.905-.345 1.445-.345.48 0 .908.097 1.285.29.377.193.668.473.875.84l-.73.47a1.63 1.63 0 0 0-.62-.57 1.768 1.768 0 0 0-.82-.19c-.347 0-.658.077-.935.23a1.639 1.639 0 0 0-.65.655 1.981 1.981 0 0 0-.235.975c0 .373.078.702.235.985.157.283.373.502.65.655.277.153.588.23.935.23.3 0 .573-.063.82-.19a1.63 1.63 0 0 0 .62-.57l.73.46a2.097 2.097 0 0 1-.875.845 2.735 2.735 0 0 1-1.285.295zm8.19-2.68c0 .073-.007.17-.02.29h-4.3c.06.467.265.842.615 1.125.35.283.785.425 1.305.425.633 0 1.143-.213 1.53-.64l.53.62c-.24.28-.538.493-.895.64-.357.147-.755.22-1.195.22-.56 0-1.057-.115-1.49-.345a2.46 2.46 0 0 1-1.005-.965 2.767 2.767 0 0 1-.355-1.4c0-.513.115-.977.345-1.39.23-.413.547-.735.95-.965.403-.23.858-.345 1.365-.345s.958.115 1.355.345c.397.23.707.552.93.965.223.413.335.887.335 1.42zm-2.62-1.92c-.46 0-.845.14-1.155.42-.31.28-.492.647-.545 1.1h3.4a1.704 1.704 0 0 0-.545-1.095c-.31-.283-.695-.425-1.155-.425zm8.01.08h-2.94V118h-.96v-5.3h3.9v.84zm3.25 4.52c-.527 0-1-.117-1.42-.35a2.538 2.538 0 0 1-.985-.965 2.74 2.74 0 0 1-.355-1.395c0-.52.118-.985.355-1.395.237-.41.565-.73.985-.96.42-.23.893-.345 1.42-.345.527 0 .998.115 1.415.345.417.23.743.55.98.96.237.41.355.875.355 1.395s-.118.985-.355 1.395c-.237.41-.563.732-.98.965-.417.233-.888.35-1.415.35zm0-.84c.34 0 .645-.078.915-.235.27-.157.482-.377.635-.66.153-.283.23-.608.23-.975s-.077-.692-.23-.975a1.625 1.625 0 0 0-.635-.655 1.82 1.82 0 0 0-.915-.23c-.34 0-.645.077-.915.23-.27.153-.483.372-.64.655a1.981 1.981 0 0 0-.235.975c0 .367.078.692.235.975.157.283.37.503.64.66.27.157.575.235.915.235zm9.53-.06v2.07h-.9V118h-4.43v1.23h-.91v-2.07h.28c.34-.02.573-.26.7-.72.127-.46.213-1.11.26-1.95l.08-1.79h4.11v4.46h.81zm-4.12-2.6a11.539 11.539 0 0 1-.165 1.655c-.083.437-.235.752-.455.945h2.97v-3.62h-2.3l-.05 1.02zm5.37-1.86h.96v2.25h3.02v-2.25h.96v5.3h-.96v-2.22h-3.02V118h-.96v-5.3zm11.06 0v5.3h-.86v-1.68H83.4L82.24 118h-1.03l1.29-1.81c-.4-.12-.707-.318-.92-.595-.213-.277-.32-.622-.32-1.035 0-.607.207-1.068.62-1.385.413-.317.983-.475 1.71-.475h2.32zm-3.67 1.89c0 .353.112.615.335.785.223.17.558.255 1.005.255h1.47v-2.09h-1.43c-.92 0-1.38.35-1.38 1.05zm9.95-3.59v7h-.99v-6.13h-1.58V111h2.57zm6.63 0v.68L95.99 118h-1.06l2.77-6.13h-3.2v1.25h-.96V111h5.28zm1.54 3.02a.663.663 0 0 1-.48-.195.662.662 0 0 1-.2-.495.65.65 0 0 1 .2-.485.663.663 0 0 1 .48-.195c.187 0 .343.063.47.19.127.127.19.29.19.49a.67.67 0 0 1-.66.69zm0 4.04a.663.663 0 0 1-.48-.195.662.662 0 0 1-.2-.495.65.65 0 0 1 .2-.485.663.663 0 0 1 .48-.195c.187 0 .343.063.47.19.127.127.19.29.19.49a.67.67 0 0 1-.66.69zm7.7-1.78h-1.33V118h-.97v-1.72h-3.89v-.7l3.58-4.58h1.08l-3.43 4.42h2.69v-1.52h.94v1.52h1.33v.86zm2.6-2.49c1 0 1.735.188 2.205.565.47.377.705.892.705 1.545 0 .413-.098.785-.295 1.115-.197.33-.493.59-.89.78-.397.19-.885.285-1.465.285-.493 0-.97-.075-1.43-.225-.46-.15-.84-.358-1.14-.625l.46-.79c.24.227.547.408.92.545.373.137.767.205 1.18.205.527 0 .935-.112 1.225-.335.29-.223.435-.528.435-.915 0-.42-.16-.738-.48-.955-.32-.217-.867-.325-1.64-.325h-1.59l.37-3.66h3.95v.87h-3.11l-.19 1.92h.78z" opacity=".5"/>
            <path fill="#FBF4E5" d="M50 361h168a6 6 0 0 1 6 6v116c0 9.941-8.059 18-18 18H50a6 6 0 0 1-6-6V367a6 6 0 0 1 6-6z"/>
            <path fill="#313131" fill-rule="nonzero" d="M70.54 389.644c.568.136.998.378 1.29.726.292.348.438.794.438 1.338 0 .728-.266 1.292-.798 1.692-.532.4-1.306.6-2.322.6h-3.84v-8.4h3.612c.92 0 1.638.186 2.154.558.516.372.774.906.774 1.602 0 .456-.114.844-.342 1.164-.228.32-.55.56-.966.72zm-4.044-.348h2.34c.584 0 1.03-.116 1.338-.348.308-.232.462-.572.462-1.02 0-.448-.156-.79-.468-1.026-.312-.236-.756-.354-1.332-.354h-2.34v2.748zm2.628 3.756c1.288 0 1.932-.48 1.932-1.44 0-.48-.162-.834-.486-1.062-.324-.228-.806-.342-1.446-.342h-2.628v2.844h2.628zm7.224-5.472c.88 0 1.554.216 2.022.648.468.432.702 1.076.702 1.932V394H77.98v-.84a1.82 1.82 0 0 1-.822.678c-.356.156-.778.234-1.266.234-.712 0-1.282-.172-1.71-.516-.428-.344-.642-.796-.642-1.356s.204-1.01.612-1.35c.408-.34 1.056-.51 1.944-.51h1.824v-.228c0-.496-.144-.876-.432-1.14-.288-.264-.712-.396-1.272-.396-.376 0-.744.062-1.104.186-.36.124-.664.29-.912.498l-.48-.864c.328-.264.72-.466 1.176-.606.456-.14.94-.21 1.452-.21zm-.264 5.604c.44 0 .82-.098 1.14-.294.32-.196.552-.474.696-.834v-.888h-1.776c-.976 0-1.464.328-1.464.984 0 .32.124.572.372.756.248.184.592.276 1.032.276zm14.124-5.544V394h-9.06v-6.36H82.3v5.352h2.808v-5.352h1.152v5.352h2.796v-5.352h1.152zm4.5-.06c.88 0 1.554.216 2.022.648.468.432.702 1.076.702 1.932V394H96.34v-.84a1.82 1.82 0 0 1-.822.678c-.356.156-.778.234-1.266.234-.712 0-1.282-.172-1.71-.516-.428-.344-.642-.796-.642-1.356s.204-1.01.612-1.35c.408-.34 1.056-.51 1.944-.51h1.824v-.228c0-.496-.144-.876-.432-1.14-.288-.264-.712-.396-1.272-.396-.376 0-.744.062-1.104.186-.36.124-.664.29-.912.498l-.48-.864c.328-.264.72-.466 1.176-.606.456-.14.94-.21 1.452-.21zm-.264 5.604c.44 0 .82-.098 1.14-.294.32-.196.552-.474.696-.834v-.888h-1.776c-.976 0-1.464.328-1.464.984 0 .32.124.572.372.756.248.184.592.276 1.032.276zm11.736-2.496c.424.112.752.292.984.54a1.3 1.3 0 0 1 .348.924c0 .376-.128.71-.384 1.002-.256.292-.61.52-1.062.684a4.427 4.427 0 0 1-1.518.246c-.472 0-.934-.062-1.386-.186a4.188 4.188 0 0 1-1.206-.534l.348-.876c.304.192.652.342 1.044.45.392.108.788.162 1.188.162.544 0 .978-.094 1.302-.282.324-.188.486-.442.486-.762a.76.76 0 0 0-.39-.684c-.26-.16-.626-.24-1.098-.24h-1.164v-.828h1.08c.432 0 .772-.076 1.02-.228.248-.152.372-.36.372-.624 0-.288-.146-.512-.438-.672-.292-.16-.686-.24-1.182-.24-.632 0-1.3.164-2.004.492l-.312-.888a5.335 5.335 0 0 1 2.436-.588c.512 0 .972.072 1.38.216.408.144.728.348.96.612.232.264.348.564.348.9 0 .312-.104.592-.312.84a1.928 1.928 0 0 1-.84.564zm5.352-3.108c.88 0 1.554.216 2.022.648.468.432.702 1.076.702 1.932V394h-1.092v-.84a1.82 1.82 0 0 1-.822.678c-.356.156-.778.234-1.266.234-.712 0-1.282-.172-1.71-.516-.428-.344-.642-.796-.642-1.356s.204-1.01.612-1.35c.408-.34 1.056-.51 1.944-.51h1.824v-.228c0-.496-.144-.876-.432-1.14-.288-.264-.712-.396-1.272-.396-.376 0-.744.062-1.104.186-.36.124-.664.29-.912.498l-.48-.864c.328-.264.72-.466 1.176-.606.456-.14.94-.21 1.452-.21zm-.264 5.604c.44 0 .82-.098 1.14-.294.32-.196.552-.474.696-.834v-.888h-1.776c-.976 0-1.464.328-1.464.984 0 .32.124.572.372.756.248.184.592.276 1.032.276zm10.164-5.544V394H120.4v-2.016h-1.98L117.028 394h-1.236l1.548-2.172c-.48-.144-.848-.382-1.104-.714-.256-.332-.384-.746-.384-1.242 0-.728.248-1.282.744-1.662.496-.38 1.18-.57 2.052-.57h2.784zm-4.404 2.268c0 .424.134.738.402.942.268.204.67.306 1.206.306h1.764v-2.508h-1.716c-1.104 0-1.656.42-1.656 1.26zm10.98.792c.824.208 1.236.724 1.236 1.548 0 .56-.21.992-.63 1.296-.42.304-1.046.456-1.878.456h-3.06v-6.36h2.952c.752 0 1.34.142 1.764.426.424.284.636.686.636 1.206 0 .336-.09.626-.27.87-.18.244-.43.43-.75.558zm-3.204-.324h1.728c.44 0 .774-.08 1.002-.24.228-.16.342-.392.342-.696 0-.608-.448-.912-1.344-.912h-1.728v1.848zm1.848 2.736c.48 0 .84-.076 1.08-.228.24-.152.36-.388.36-.708 0-.328-.11-.572-.33-.732-.22-.16-.566-.24-1.038-.24h-1.92v1.908h1.848zm6.864-1.8h-1.32V394h-1.152v-6.36h1.152v2.688h1.344l2.064-2.688h1.236l-2.412 3.06 2.58 3.3h-1.356l-2.136-2.688zm6.972-3.732c.88 0 1.554.216 2.022.648.468.432.702 1.076.702 1.932V394h-1.092v-.84a1.82 1.82 0 0 1-.822.678c-.356.156-.778.234-1.266.234-.712 0-1.282-.172-1.71-.516-.428-.344-.642-.796-.642-1.356s.204-1.01.612-1.35c.408-.34 1.056-.51 1.944-.51h1.824v-.228c0-.496-.144-.876-.432-1.14-.288-.264-.712-.396-1.272-.396-.376 0-.744.062-1.104.186-.36.124-.664.29-.912.498l-.48-.864c.328-.264.72-.466 1.176-.606.456-.14.94-.21 1.452-.21zm-.264 5.604c.44 0 .82-.098 1.14-.294.32-.196.552-.474.696-.834v-.888h-1.776c-.976 0-1.464.328-1.464.984 0 .32.124.572.372.756.248.184.592.276 1.032.276zm8.292-5.544h1.152v2.7h3.624v-2.7h1.152V394h-1.152v-2.664h-3.624V394h-1.152v-6.36zm10.44-.06c.88 0 1.554.216 2.022.648.468.432.702 1.076.702 1.932V394h-1.092v-.84a1.82 1.82 0 0 1-.822.678c-.356.156-.778.234-1.266.234-.712 0-1.282-.172-1.71-.516-.428-.344-.642-.796-.642-1.356s.204-1.01.612-1.35c.408-.34 1.056-.51 1.944-.51h1.824v-.228c0-.496-.144-.876-.432-1.14-.288-.264-.712-.396-1.272-.396-.376 0-.744.062-1.104.186-.36.124-.664.29-.912.498l-.48-.864c.328-.264.72-.466 1.176-.606.456-.14.94-.21 1.452-.21zm-.264 5.604c.44 0 .82-.098 1.14-.294.32-.196.552-.474.696-.834v-.888h-1.776c-.976 0-1.464.328-1.464.984 0 .32.124.572.372.756.248.184.592.276 1.032.276zM68.488 407.58c.616 0 1.168.136 1.656.408.488.272.87.652 1.146 1.14.276.488.414 1.052.414 1.692 0 .64-.138 1.206-.414 1.698a2.923 2.923 0 0 1-1.146 1.146 3.343 3.343 0 0 1-1.656.408c-.456 0-.874-.088-1.254-.264a2.608 2.608 0 0 1-.966-.768v3.288h-1.152v-8.688h1.104v1.008c.256-.352.58-.618.972-.798.392-.18.824-.27 1.296-.27zm-.096 5.484c.408 0 .774-.094 1.098-.282.324-.188.58-.452.768-.792.188-.34.282-.73.282-1.17 0-.44-.094-.83-.282-1.17a1.99 1.99 0 0 0-.768-.786 2.184 2.184 0 0 0-1.098-.276c-.4 0-.762.094-1.086.282-.324.188-.58.45-.768.786a2.344 2.344 0 0 0-.282 1.164c0 .44.092.83.276 1.17.184.34.44.604.768.792.328.188.692.282 1.092.282zm7.248-5.484c.88 0 1.554.216 2.022.648.468.432.702 1.076.702 1.932V414h-1.092v-.84a1.82 1.82 0 0 1-.822.678c-.356.156-.778.234-1.266.234-.712 0-1.282-.172-1.71-.516-.428-.344-.642-.796-.642-1.356s.204-1.01.612-1.35c.408-.34 1.056-.51 1.944-.51h1.824v-.228c0-.496-.144-.876-.432-1.14-.288-.264-.712-.396-1.272-.396-.376 0-.744.062-1.104.186-.36.124-.664.29-.912.498l-.48-.864c.328-.264.72-.466 1.176-.606.456-.14.94-.21 1.452-.21zm-.264 5.604c.44 0 .82-.098 1.14-.294.32-.196.552-.474.696-.834v-.888h-1.776c-.976 0-1.464.328-1.464.984 0 .32.124.572.372.756.248.184.592.276 1.032.276zm7.836.888c-.648 0-1.226-.14-1.734-.42a3.077 3.077 0 0 1-1.194-1.158 3.251 3.251 0 0 1-.432-1.674c0-.624.144-1.182.432-1.674a3.035 3.035 0 0 1 1.194-1.152c.508-.276 1.086-.414 1.734-.414.576 0 1.09.116 1.542.348.452.232.802.568 1.05 1.008l-.876.564a1.957 1.957 0 0 0-.744-.684 2.122 2.122 0 0 0-.984-.228c-.416 0-.79.092-1.122.276a1.967 1.967 0 0 0-.78.786c-.188.34-.282.73-.282 1.17 0 .448.094.842.282 1.182.188.34.448.602.78.786.332.184.706.276 1.122.276.36 0 .688-.076.984-.228.296-.152.544-.38.744-.684l.876.552c-.248.44-.598.778-1.05 1.014-.452.236-.966.354-1.542.354zm6.852 0c-.648 0-1.226-.14-1.734-.42a3.077 3.077 0 0 1-1.194-1.158 3.251 3.251 0 0 1-.432-1.674c0-.624.144-1.182.432-1.674a3.035 3.035 0 0 1 1.194-1.152c.508-.276 1.086-.414 1.734-.414.576 0 1.09.116 1.542.348.452.232.802.568 1.05 1.008l-.876.564a1.957 1.957 0 0 0-.744-.684 2.122 2.122 0 0 0-.984-.228c-.416 0-.79.092-1.122.276a1.967 1.967 0 0 0-.78.786c-.188.34-.282.73-.282 1.17 0 .448.094.842.282 1.182.188.34.448.602.78.786.332.184.706.276 1.122.276.36 0 .688-.076.984-.228.296-.152.544-.38.744-.684l.876.552c-.248.44-.598.778-1.05 1.014-.452.236-.966.354-1.542.354zm11.412-6.432V414h-1.044v-4.644l-2.376 3.924h-.504l-2.352-3.936V414h-1.056v-6.36h1.188l2.496 4.296 2.568-4.296h1.08zm4.968 6.432c-.632 0-1.2-.14-1.704-.42a3.046 3.046 0 0 1-1.182-1.158c-.284-.492-.426-1.05-.426-1.674 0-.624.142-1.182.426-1.674a3.004 3.004 0 0 1 1.182-1.152 3.489 3.489 0 0 1 1.704-.414c.632 0 1.198.138 1.698.414.5.276.892.66 1.176 1.152.284.492.426 1.05.426 1.674 0 .624-.142 1.182-.426 1.674a3.057 3.057 0 0 1-1.176 1.158c-.5.28-1.066.42-1.698.42zm0-1.008c.408 0 .774-.094 1.098-.282a1.99 1.99 0 0 0 .762-.792c.184-.34.276-.73.276-1.17 0-.44-.092-.83-.276-1.17a1.95 1.95 0 0 0-.762-.786 2.184 2.184 0 0 0-1.098-.276c-.408 0-.774.092-1.098.276a1.99 1.99 0 0 0-.768.786c-.188.34-.282.73-.282 1.17 0 .44.094.83.282 1.17.188.34.444.604.768.792.324.188.69.282 1.098.282zm9.708-4.416h-2.328V414h-1.152v-5.352h-2.328v-1.008h5.808v1.008zm4.548-1.068c.616 0 1.168.136 1.656.408.488.272.87.652 1.146 1.14.276.488.414 1.052.414 1.692 0 .64-.138 1.206-.414 1.698a2.923 2.923 0 0 1-1.146 1.146 3.343 3.343 0 0 1-1.656.408c-.456 0-.874-.088-1.254-.264a2.608 2.608 0 0 1-.966-.768v3.288h-1.152v-8.688h1.104v1.008c.256-.352.58-.618.972-.798.392-.18.824-.27 1.296-.27zm-.096 5.484c.408 0 .774-.094 1.098-.282.324-.188.58-.452.768-.792.188-.34.282-.73.282-1.17 0-.44-.094-.83-.282-1.17a1.99 1.99 0 0 0-.768-.786 2.184 2.184 0 0 0-1.098-.276c-.4 0-.762.094-1.086.282-.324.188-.58.45-.768.786a2.344 2.344 0 0 0-.282 1.164c0 .44.092.83.276 1.17.184.34.44.604.768.792.328.188.692.282 1.092.282zm10.728-2.208c0 .088-.008.204-.024.348h-5.16c.072.56.318 1.01.738 1.35.42.34.942.51 1.566.51.76 0 1.372-.256 1.836-.768l.636.744a2.786 2.786 0 0 1-1.074.768 3.738 3.738 0 0 1-1.434.264c-.672 0-1.268-.138-1.788-.414a2.953 2.953 0 0 1-1.206-1.158 3.32 3.32 0 0 1-.426-1.68c0-.616.138-1.172.414-1.668a2.966 2.966 0 0 1 1.14-1.158 3.247 3.247 0 0 1 1.638-.414c.608 0 1.15.138 1.626.414.476.276.848.662 1.116 1.158.268.496.402 1.064.402 1.704zm-3.144-2.304c-.552 0-1.014.168-1.386.504-.372.336-.59.776-.654 1.32h4.08c-.064-.536-.282-.974-.654-1.314-.372-.34-.834-.51-1.386-.51zm4.932-.912h1.152v2.7h3.624v-2.7h1.152V414h-1.152v-2.664h-3.624V414h-1.152v-6.36zm8.172 0h1.152v4.632l3.9-4.632h1.044V414h-1.152v-4.632L142.348 414h-1.056v-6.36zm8.328 0h1.152v4.632l3.9-4.632h1.044V414h-1.152v-4.632L150.676 414h-1.056v-6.36zm8.148-2.04h1.356l-.228 5.748h-.912l-.216-5.748zm.684 8.472a.777.777 0 0 1-.564-.222.732.732 0 0 1-.228-.546c0-.216.076-.398.228-.546a.777.777 0 0 1 .564-.222c.224 0 .408.074.552.222.144.148.216.33.216.546a.742.742 0 0 1-.222.546.742.742 0 0 1-.546.222zm-90.216 16.232h-1.752V434h-1.176v-8.4h1.176v3.648h1.776l2.64-3.648h1.284l-3 4.068L72.328 434H70.96l-2.724-3.696zm7.68-2.724c.88 0 1.554.216 2.022.648.468.432.702 1.076.702 1.932V434h-1.092v-.84a1.82 1.82 0 0 1-.822.678c-.356.156-.778.234-1.266.234-.712 0-1.282-.172-1.71-.516-.428-.344-.642-.796-.642-1.356s.204-1.01.612-1.35c.408-.34 1.056-.51 1.944-.51h1.824v-.228c0-.496-.144-.876-.432-1.14-.288-.264-.712-.396-1.272-.396-.376 0-.744.062-1.104.186-.36.124-.664.29-.912.498l-.48-.864c.328-.264.72-.466 1.176-.606.456-.14.94-.21 1.452-.21zm-.264 5.604c.44 0 .82-.098 1.14-.294.32-.196.552-.474.696-.834v-.888h-1.776c-.976 0-1.464.328-1.464.984 0 .32.124.572.372.756.248.184.592.276 1.032.276zm7.536-1.872h-1.32V434h-1.152v-6.36h1.152v2.688h1.344l2.064-2.688h1.236L84.1 430.7l2.58 3.3h-1.356l-2.136-2.688zm12.672-2.664h-2.328V434H92.38v-5.352h-2.328v-1.008h5.808v1.008zm3.9 5.424c-.632 0-1.2-.14-1.704-.42a3.046 3.046 0 0 1-1.182-1.158c-.284-.492-.426-1.05-.426-1.674 0-.624.142-1.182.426-1.674a3.004 3.004 0 0 1 1.182-1.152 3.489 3.489 0 0 1 1.704-.414c.632 0 1.198.138 1.698.414.5.276.892.66 1.176 1.152.284.492.426 1.05.426 1.674 0 .624-.142 1.182-.426 1.674a3.057 3.057 0 0 1-1.176 1.158c-.5.28-1.066.42-1.698.42zm0-1.008c.408 0 .774-.094 1.098-.282a1.99 1.99 0 0 0 .762-.792c.184-.34.276-.73.276-1.17 0-.44-.092-.83-.276-1.17a1.95 1.95 0 0 0-.762-.786 2.184 2.184 0 0 0-1.098-.276c-.408 0-.774.092-1.098.276a1.99 1.99 0 0 0-.768.786c-.188.34-.282.73-.282 1.17 0 .44.094.83.282 1.17.188.34.444.604.768.792.324.188.69.282 1.098.282zm10.428-5.424V434h-1.152v-5.352H106.3l-.072 1.416c-.04.856-.116 1.57-.228 2.142-.112.572-.296 1.03-.552 1.374-.256.344-.612.516-1.068.516-.208 0-.444-.036-.708-.108l.072-.972c.104.024.2.036.288.036.32 0 .56-.14.72-.42.16-.28.264-.612.312-.996.048-.384.092-.932.132-1.644l.108-2.352h4.884zm5.172 2.16c.808.008 1.424.192 1.848.552.424.36.636.868.636 1.524 0 .688-.23 1.218-.69 1.59-.46.372-1.118.554-1.974.546l-2.76-.012v-6.36h1.152v2.148l1.788.012zm-.276 3.336c.52.008.914-.096 1.182-.312.268-.216.402-.536.402-.96 0-.416-.13-.72-.39-.912-.26-.192-.658-.292-1.194-.3l-1.512-.024v2.496l1.512.012zm6.708-1.824h-1.32V434h-1.152v-6.36h1.152v2.688h1.344l2.064-2.688h1.236l-2.412 3.06 2.58 3.3h-1.356l-2.136-2.688zm7.428 2.76c-.632 0-1.2-.14-1.704-.42a3.046 3.046 0 0 1-1.182-1.158c-.284-.492-.426-1.05-.426-1.674 0-.624.142-1.182.426-1.674a3.004 3.004 0 0 1 1.182-1.152 3.489 3.489 0 0 1 1.704-.414c.632 0 1.198.138 1.698.414.5.276.892.66 1.176 1.152.284.492.426 1.05.426 1.674 0 .624-.142 1.182-.426 1.674a3.057 3.057 0 0 1-1.176 1.158c-.5.28-1.066.42-1.698.42zm0-1.008c.408 0 .774-.094 1.098-.282a1.99 1.99 0 0 0 .762-.792c.184-.34.276-.73.276-1.17 0-.44-.092-.83-.276-1.17a1.95 1.95 0 0 0-.762-.786 2.184 2.184 0 0 0-1.098-.276c-.408 0-.774.092-1.098.276a1.99 1.99 0 0 0-.768.786c-.188.34-.282.73-.282 1.17 0 .44.094.83.282 1.17.188.34.444.604.768.792.324.188.69.282 1.098.282zm11.568-5.484c.616 0 1.168.136 1.656.408.488.272.87.652 1.146 1.14.276.488.414 1.052.414 1.692 0 .64-.138 1.206-.414 1.698a2.923 2.923 0 0 1-1.146 1.146 3.343 3.343 0 0 1-1.656.408c-.456 0-.874-.088-1.254-.264a2.608 2.608 0 0 1-.966-.768v3.288h-1.152v-8.688h1.104v1.008c.256-.352.58-.618.972-.798.392-.18.824-.27 1.296-.27zm-.096 5.484c.408 0 .774-.094 1.098-.282.324-.188.58-.452.768-.792.188-.34.282-.73.282-1.17 0-.44-.094-.83-.282-1.17a1.99 1.99 0 0 0-.768-.786 2.184 2.184 0 0 0-1.098-.276c-.4 0-.762.094-1.086.282-.324.188-.58.45-.768.786a2.344 2.344 0 0 0-.282 1.164c0 .44.092.83.276 1.17.184.34.44.604.768.792.328.188.692.282 1.092.282zm10.728-2.208c0 .088-.008.204-.024.348h-5.16c.072.56.318 1.01.738 1.35.42.34.942.51 1.566.51.76 0 1.372-.256 1.836-.768l.636.744a2.786 2.786 0 0 1-1.074.768 3.738 3.738 0 0 1-1.434.264c-.672 0-1.268-.138-1.788-.414a2.953 2.953 0 0 1-1.206-1.158 3.32 3.32 0 0 1-.426-1.68c0-.616.138-1.172.414-1.668a2.966 2.966 0 0 1 1.14-1.158 3.247 3.247 0 0 1 1.638-.414c.608 0 1.15.138 1.626.414.476.276.848.662 1.116 1.158.268.496.402 1.064.402 1.704zm-3.144-2.304c-.552 0-1.014.168-1.386.504-.372.336-.59.776-.654 1.32h4.08c-.064-.536-.282-.974-.654-1.314-.372-.34-.834-.51-1.386-.51zm13.992-.912V434h-9.06v-6.36h1.152v5.352h2.808v-5.352h1.152v5.352h2.796v-5.352h1.152zm7.98 3.216c0 .088-.008.204-.024.348h-5.16c.072.56.318 1.01.738 1.35.42.34.942.51 1.566.51.76 0 1.372-.256 1.836-.768l.636.744a2.786 2.786 0 0 1-1.074.768 3.738 3.738 0 0 1-1.434.264c-.672 0-1.268-.138-1.788-.414a2.953 2.953 0 0 1-1.206-1.158 3.32 3.32 0 0 1-.426-1.68c0-.616.138-1.172.414-1.668a2.966 2.966 0 0 1 1.14-1.158 3.247 3.247 0 0 1 1.638-.414c.608 0 1.15.138 1.626.414.476.276.848.662 1.116 1.158.268.496.402 1.064.402 1.704zm-3.144-2.304c-.552 0-1.014.168-1.386.504-.372.336-.59.776-.654 1.32h4.08c-.064-.536-.282-.974-.654-1.314-.372-.34-.834-.51-1.386-.51zm4.932-.912h1.152v2.7h3.624v-2.7h1.152V434h-1.152v-2.664h-3.624V434h-1.152v-6.36zm8.172 0h1.152v4.632l3.9-4.632h1.044V434h-1.152v-4.632L181.264 434h-1.056v-6.36zm14.076 3.216c0 .088-.008.204-.024.348h-5.16c.072.56.318 1.01.738 1.35.42.34.942.51 1.566.51.76 0 1.372-.256 1.836-.768l.636.744a2.786 2.786 0 0 1-1.074.768 3.738 3.738 0 0 1-1.434.264c-.672 0-1.268-.138-1.788-.414a2.953 2.953 0 0 1-1.206-1.158 3.32 3.32 0 0 1-.426-1.68c0-.616.138-1.172.414-1.668a2.966 2.966 0 0 1 1.14-1.158 3.247 3.247 0 0 1 1.638-.414c.608 0 1.15.138 1.626.414.476.276.848.662 1.116 1.158.268.496.402 1.064.402 1.704zm-3.144-2.304c-.552 0-1.014.168-1.386.504-.372.336-.59.776-.654 1.32h4.08c-.064-.536-.282-.974-.654-1.314-.372-.34-.834-.51-1.386-.51zM68.356 447.856c.592 0 1.12.132 1.584.396.464.264.826.63 1.086 1.098.26.468.39 1.002.39 1.602 0 .616-.138 1.162-.414 1.638a2.857 2.857 0 0 1-1.164 1.11c-.5.264-1.07.396-1.71.396-1.08 0-1.914-.37-2.502-1.11-.588-.74-.882-1.782-.882-3.126 0-1.304.268-2.326.804-3.066.536-.74 1.356-1.23 2.46-1.47l2.904-.648.168 1.056-2.676.576c-.832.184-1.452.496-1.86.936-.408.44-.64 1.072-.696 1.896a2.799 2.799 0 0 1 1.056-.948 3.107 3.107 0 0 1 1.452-.336zm-.204 5.28c.408 0 .77-.092 1.086-.276.316-.184.562-.438.738-.762.176-.324.264-.694.264-1.11 0-.632-.192-1.14-.576-1.524-.384-.384-.888-.576-1.512-.576s-1.13.192-1.518.576c-.388.384-.582.892-.582 1.524 0 .416.09.786.27 1.11.18.324.43.578.75.762.32.184.68.276 1.08.276zm10.584-5.496l-3.084 6.996c-.272.648-.59 1.104-.954 1.368s-.802.396-1.314.396c-.312 0-.614-.05-.906-.15a1.86 1.86 0 0 1-.726-.438l.492-.864c.328.312.708.468 1.14.468a1.1 1.1 0 0 0 .702-.222c.188-.148.358-.402.51-.762l.204-.444-2.808-6.348h1.2l2.22 5.088 2.196-5.088h1.128zm7.644 5.352v2.484H85.3V454h-5.316v1.476h-1.092v-2.484h.336c.408-.024.688-.312.84-.864.152-.552.256-1.332.312-2.34l.096-2.148h4.932v5.352h.972zm-4.944-3.12c-.032.8-.098 1.462-.198 1.986s-.282.902-.546 1.134h3.564v-4.344h-2.76l-.06 1.224zm12.192.984c0 .088-.008.204-.024.348h-5.16c.072.56.318 1.01.738 1.35.42.34.942.51 1.566.51.76 0 1.372-.256 1.836-.768l.636.744a2.786 2.786 0 0 1-1.074.768 3.738 3.738 0 0 1-1.434.264c-.672 0-1.268-.138-1.788-.414a2.953 2.953 0 0 1-1.206-1.158 3.32 3.32 0 0 1-.426-1.68c0-.616.138-1.172.414-1.668a2.966 2.966 0 0 1 1.14-1.158 3.247 3.247 0 0 1 1.638-.414c.608 0 1.15.138 1.626.414.476.276.848.662 1.116 1.158.268.496.402 1.064.402 1.704zm-3.144-2.304c-.552 0-1.014.168-1.386.504-.372.336-.59.776-.654 1.32h4.08c-.064-.536-.282-.974-.654-1.314-.372-.34-.834-.51-1.386-.51zm9.672.096h-2.328V454h-1.152v-5.352h-2.328v-1.008h5.808v1.008zm10.296-1.008V454H109.3v-5.352h-3.588V454h-1.152v-6.36h5.892zm5.604-.06c.616 0 1.168.136 1.656.408.488.272.87.652 1.146 1.14.276.488.414 1.052.414 1.692 0 .64-.138 1.206-.414 1.698a2.923 2.923 0 0 1-1.146 1.146 3.343 3.343 0 0 1-1.656.408c-.456 0-.874-.088-1.254-.264a2.608 2.608 0 0 1-.966-.768v3.288h-1.152v-8.688h1.104v1.008c.256-.352.58-.618.972-.798.392-.18.824-.27 1.296-.27zm-.096 5.484c.408 0 .774-.094 1.098-.282.324-.188.58-.452.768-.792.188-.34.282-.73.282-1.17 0-.44-.094-.83-.282-1.17a1.99 1.99 0 0 0-.768-.786 2.184 2.184 0 0 0-1.098-.276c-.4 0-.762.094-1.086.282-.324.188-.58.45-.768.786a2.344 2.344 0 0 0-.282 1.164c0 .44.092.83.276 1.17.184.34.44.604.768.792.328.188.692.282 1.092.282zm4.98-5.424h1.152v4.632l3.9-4.632h1.044V454h-1.152v-4.632L121.996 454h-1.056v-6.36zm8.328 0h1.152v2.7h3.624v-2.7h1.152V454h-1.152v-2.664h-3.624V454h-1.152v-6.36zm13.272 0V454h-1.032v-2.016h-1.98L138.136 454H136.9l1.548-2.172c-.48-.144-.848-.382-1.104-.714-.256-.332-.384-.746-.384-1.242 0-.728.248-1.282.744-1.662.496-.38 1.18-.57 2.052-.57h2.784zm-4.404 2.268c0 .424.134.738.402.942.268.204.67.306 1.206.306h1.764v-2.508h-1.716c-1.104 0-1.656.42-1.656 1.26zm11.388-1.26h-2.328V454h-1.152v-5.352h-2.328v-1.008h5.808v1.008zm3.9 5.424c-.632 0-1.2-.14-1.704-.42a3.046 3.046 0 0 1-1.182-1.158c-.284-.492-.426-1.05-.426-1.674 0-.624.142-1.182.426-1.674a3.004 3.004 0 0 1 1.182-1.152 3.489 3.489 0 0 1 1.704-.414c.632 0 1.198.138 1.698.414.5.276.892.66 1.176 1.152.284.492.426 1.05.426 1.674 0 .624-.142 1.182-.426 1.674a3.057 3.057 0 0 1-1.176 1.158c-.5.28-1.066.42-1.698.42zm0-1.008c.408 0 .774-.094 1.098-.282a1.99 1.99 0 0 0 .762-.792c.184-.34.276-.73.276-1.17 0-.44-.092-.83-.276-1.17a1.95 1.95 0 0 0-.762-.786 2.184 2.184 0 0 0-1.098-.276c-.408 0-.774.092-1.098.276a1.99 1.99 0 0 0-.768.786c-.188.34-.282.73-.282 1.17 0 .44.094.83.282 1.17.188.34.444.604.768.792.324.188.69.282 1.098.282zm7.08-2.76h12v.804h-12v-.804zm20.676.396c.824.208 1.236.724 1.236 1.548 0 .56-.21.992-.63 1.296-.42.304-1.046.456-1.878.456h-3.06v-6.36h2.952c.752 0 1.34.142 1.764.426.424.284.636.686.636 1.206 0 .336-.09.626-.27.87-.18.244-.43.43-.75.558zm-3.204-.324h1.728c.44 0 .774-.08 1.002-.24.228-.16.342-.392.342-.696 0-.608-.448-.912-1.344-.912h-1.728v1.848zm1.848 2.736c.48 0 .84-.076 1.08-.228.24-.152.36-.388.36-.708 0-.328-.11-.572-.33-.732-.22-.16-.566-.24-1.038-.24h-1.92v1.908h1.848zm7.26-3.312c.8.008 1.412.192 1.836.552.424.36.636.868.636 1.524 0 .688-.23 1.218-.69 1.59-.46.372-1.118.554-1.974.546l-2.676-.012v-6.36h1.152v2.148l1.716.012zm3.42-2.16h1.152V454h-1.152v-6.36zm-3.696 5.496c.52.008.914-.096 1.182-.312.268-.216.402-.536.402-.96 0-.416-.132-.72-.396-.912-.264-.192-.66-.292-1.188-.3l-1.44-.024v2.496l1.44.012zm-115.8 14.504V474h-1.152v-5.352h-3.588V474h-1.152v-6.36h5.892zm4.956 6.432c-.632 0-1.2-.14-1.704-.42a3.046 3.046 0 0 1-1.182-1.158c-.284-.492-.426-1.05-.426-1.674 0-.624.142-1.182.426-1.674a3.004 3.004 0 0 1 1.182-1.152 3.489 3.489 0 0 1 1.704-.414c.632 0 1.198.138 1.698.414.5.276.892.66 1.176 1.152.284.492.426 1.05.426 1.674 0 .624-.142 1.182-.426 1.674a3.057 3.057 0 0 1-1.176 1.158c-.5.28-1.066.42-1.698.42zm0-1.008c.408 0 .774-.094 1.098-.282a1.99 1.99 0 0 0 .762-.792c.184-.34.276-.73.276-1.17 0-.44-.092-.83-.276-1.17a1.95 1.95 0 0 0-.762-.786 2.184 2.184 0 0 0-1.098-.276c-.408 0-.774.092-1.098.276a1.99 1.99 0 0 0-.768.786c-.188.34-.282.73-.282 1.17 0 .44.094.83.282 1.17.188.34.444.604.768.792.324.188.69.282 1.098.282zm10.428-5.424V474H85.24v-5.352h-2.736l-.072 1.416c-.04.856-.116 1.57-.228 2.142-.112.572-.296 1.03-.552 1.374-.256.344-.612.516-1.068.516-.208 0-.444-.036-.708-.108l.072-.972c.104.024.2.036.288.036.32 0 .56-.14.72-.42.16-.28.264-.612.312-.996.048-.384.092-.932.132-1.644l.108-2.352h4.884zm7.908 0l-3.084 6.996c-.272.648-.59 1.104-.954 1.368s-.802.396-1.314.396c-.312 0-.614-.05-.906-.15a1.86 1.86 0 0 1-.726-.438l.492-.864c.328.312.708.468 1.14.468a1.1 1.1 0 0 0 .702-.222c.188-.148.358-.402.51-.762l.204-.444-2.808-6.348h1.2l2.22 5.088 2.196-5.088H94.3zm6.252 0V474H99.4v-2.568c-.688.32-1.372.48-2.052.48-.792 0-1.404-.184-1.836-.552-.432-.368-.648-.92-.648-1.656v-2.064h1.152v1.992c0 .44.138.772.414.996.276.224.662.336 1.158.336.56 0 1.164-.14 1.812-.42v-2.904h1.152zm2.232 0h1.152v4.632l3.9-4.632h1.044V474h-1.152v-4.632L103.84 474h-1.056v-6.36zm13.068 1.008h-2.328V474h-1.152v-5.352h-2.328v-1.008h5.808v1.008zm6.924 2.208c0 .088-.008.204-.024.348h-5.16c.072.56.318 1.01.738 1.35.42.34.942.51 1.566.51.76 0 1.372-.256 1.836-.768l.636.744a2.786 2.786 0 0 1-1.074.768 3.738 3.738 0 0 1-1.434.264c-.672 0-1.268-.138-1.788-.414a2.953 2.953 0 0 1-1.206-1.158 3.32 3.32 0 0 1-.426-1.68c0-.616.138-1.172.414-1.668a2.966 2.966 0 0 1 1.14-1.158 3.247 3.247 0 0 1 1.638-.414c.608 0 1.15.138 1.626.414.476.276.848.662 1.116 1.158.268.496.402 1.064.402 1.704zm-3.144-2.304c-.552 0-1.014.168-1.386.504-.372.336-.59.776-.654 1.32h4.08c-.064-.536-.282-.974-.654-1.314-.372-.34-.834-.51-1.386-.51zm12.108 5.544c-.84 0-1.598-.186-2.274-.558a4.106 4.106 0 0 1-1.59-1.536c-.384-.652-.576-1.386-.576-2.202 0-.816.192-1.55.576-2.202a4.095 4.095 0 0 1 1.596-1.536c.68-.372 1.44-.558 2.28-.558.656 0 1.256.11 1.8.33.544.22 1.008.546 1.392.978l-.78.756c-.632-.664-1.42-.996-2.364-.996-.624 0-1.188.14-1.692.42-.504.28-.898.666-1.182 1.158a3.24 3.24 0 0 0-.426 1.65c0 .608.142 1.158.426 1.65.284.492.678.878 1.182 1.158.504.28 1.068.42 1.692.42.936 0 1.724-.336 2.364-1.008l.78.756c-.384.432-.85.76-1.398.984a4.73 4.73 0 0 1-1.806.336zm12.648-.096l-.012-6.12-3.036 5.1h-.552l-3.036-5.064V474H136.6v-8.4h.984l3.504 5.904 3.456-5.904h.984l.012 8.4h-1.152zm7.524.096c-.84 0-1.598-.186-2.274-.558a4.106 4.106 0 0 1-1.59-1.536c-.384-.652-.576-1.386-.576-2.202 0-.816.192-1.55.576-2.202a4.095 4.095 0 0 1 1.596-1.536c.68-.372 1.44-.558 2.28-.558.656 0 1.256.11 1.8.33.544.22 1.008.546 1.392.978l-.78.756c-.632-.664-1.42-.996-2.364-.996-.624 0-1.188.14-1.692.42-.504.28-.898.666-1.182 1.158a3.24 3.24 0 0 0-.426 1.65c0 .608.142 1.158.426 1.65.284.492.678.878 1.182 1.158.504.28 1.068.42 1.692.42.936 0 1.724-.336 2.364-1.008l.78.756c-.384.432-.85.76-1.398.984a4.73 4.73 0 0 1-1.806.336zm4.92-.024a.796.796 0 0 1-.576-.234.794.794 0 0 1-.24-.594.78.78 0 0 1 .24-.582.796.796 0 0 1 .576-.234c.224 0 .412.076.564.228a.796.796 0 0 1 .228.588c0 .24-.078.438-.234.594a.762.762 0 0 1-.558.234z"/>
            <path fill="url(#B)" d="M103 231h148a6 6 0 0 1 6 6v36c0 9.941-8.059 18-18 18H103a6 6 0 0 1-6-6v-48a6 6 0 0 1 6-6z" transform="matrix(-1 0 0 1 375 50)"/>
            <path fill="#FFF" fill-rule="nonzero" d="M141.18 305.6v8.4h-1.188v-7.356h-1.896V305.6h3.084zm7.74 7.356V314h-6.036v-.816l3.42-3.3c.416-.4.696-.746.84-1.038.144-.292.216-.586.216-.882 0-.44-.154-.782-.462-1.026-.308-.244-.75-.366-1.326-.366-.928 0-1.644.304-2.148.912l-.816-.708c.328-.4.758-.712 1.29-.936a4.55 4.55 0 0 1 1.782-.336c.88 0 1.58.21 2.1.63.52.42.78.99.78 1.71 0 .448-.096.872-.288 1.272-.192.4-.556.856-1.092 1.368l-2.568 2.472h4.308zm6.612-4.008c1.2 0 2.082.226 2.646.678.564.452.846 1.07.846 1.854 0 .496-.118.942-.354 1.338-.236.396-.592.708-1.068.936-.476.228-1.062.342-1.758.342a5.5 5.5 0 0 1-1.716-.27c-.552-.18-1.008-.43-1.368-.75l.552-.948c.288.272.656.49 1.104.654.448.164.92.246 1.416.246.632 0 1.122-.134 1.47-.402.348-.268.522-.634.522-1.098 0-.504-.192-.886-.576-1.146-.384-.26-1.04-.39-1.968-.39h-1.908l.444-4.392h4.74v1.044h-3.732l-.228 2.304h.936zm7.92 5.148c-.664 0-1.254-.17-1.77-.51-.516-.34-.922-.834-1.218-1.482-.296-.648-.444-1.416-.444-2.304 0-.888.148-1.656.444-2.304.296-.648.702-1.142 1.218-1.482.516-.34 1.106-.51 1.77-.51.656 0 1.242.17 1.758.51.516.34.922.834 1.218 1.482.296.648.444 1.416.444 2.304 0 .888-.148 1.656-.444 2.304-.296.648-.702 1.142-1.218 1.482-.516.34-1.102.51-1.758.51zm0-1.068c.672 0 1.21-.276 1.614-.828.404-.552.606-1.352.606-2.4 0-1.048-.202-1.848-.606-2.4-.404-.552-.942-.828-1.614-.828-.68 0-1.222.276-1.626.828-.404.552-.606 1.352-.606 2.4 0 1.048.202 1.848.606 2.4.404.552.946.828 1.626.828zm8.004 1.068c-.664 0-1.254-.17-1.77-.51-.516-.34-.922-.834-1.218-1.482-.296-.648-.444-1.416-.444-2.304 0-.888.148-1.656.444-2.304.296-.648.702-1.142 1.218-1.482.516-.34 1.106-.51 1.77-.51.656 0 1.242.17 1.758.51.516.34.922.834 1.218 1.482.296.648.444 1.416.444 2.304 0 .888-.148 1.656-.444 2.304-.296.648-.702 1.142-1.218 1.482-.516.34-1.102.51-1.758.51zm0-1.068c.672 0 1.21-.276 1.614-.828.404-.552.606-1.352.606-2.4 0-1.048-.202-1.848-.606-2.4-.404-.552-.942-.828-1.614-.828-.68 0-1.222.276-1.626.828-.404.552-.606 1.352-.606 2.4 0 1.048.202 1.848.606 2.4.404.552.946.828 1.626.828zm10.02-1.824v.708h2.664v.684h-2.664V314h-1.212v-1.404h-1.224v-.684h1.224V305.6h3.3c1.096 0 1.952.242 2.568.726.616.484.924 1.174.924 2.07 0 .904-.308 1.598-.924 2.082-.616.484-1.472.726-2.568.726h-2.088zm4.368-2.796c0-.568-.196-1.004-.588-1.308-.392-.304-.956-.456-1.692-.456h-2.088v3.564h2.088c.728 0 1.29-.158 1.686-.474.396-.316.594-.758.594-1.326zm6.18-.768h1.152v2.7h3.624v-2.7h1.152V314H196.8v-2.664h-3.624V314h-1.152v-6.36zm10.44-.06c.88 0 1.554.216 2.022.648.468.432.702 1.076.702 1.932V314h-1.092v-.84a1.82 1.82 0 0 1-.822.678c-.356.156-.778.234-1.266.234-.712 0-1.282-.172-1.71-.516-.428-.344-.642-.796-.642-1.356s.204-1.01.612-1.35c.408-.34 1.056-.51 1.944-.51h1.824v-.228c0-.496-.144-.876-.432-1.14-.288-.264-.712-.396-1.272-.396-.376 0-.744.062-1.104.186-.36.124-.664.29-.912.498l-.48-.864c.328-.264.72-.466 1.176-.606.456-.14.94-.21 1.452-.21zm-.264 5.604c.44 0 .82-.098 1.14-.294.32-.196.552-.474.696-.834v-.888h-1.776c-.976 0-1.464.328-1.464.984 0 .32.124.572.372.756.248.184.592.276 1.032.276zm10.356-7.584v8.4h-1.188v-7.356h-1.896V305.6h3.084zm9.144 6.336h-1.596V314h-1.164v-2.064h-4.668v-.84l4.296-5.496h1.296l-4.116 5.304h3.228v-1.824h1.128v1.824h1.596v1.032zm10.956 1.056v2.484h-1.08V314h-5.316v1.476h-1.092v-2.484h.336c.408-.024.688-.312.84-.864.152-.552.256-1.332.312-2.34l.096-2.148h4.932v5.352h.972zm-4.944-3.12c-.032.8-.098 1.462-.198 1.986s-.282.902-.546 1.134h3.564v-4.344h-2.76l-.06 1.224zm6.444-2.232h1.152v2.7h3.624v-2.7h1.152V314h-1.152v-2.664h-3.624V314h-1.152v-6.36zm13.92 3.216c0 .088-.008.204-.024.348h-5.16c.072.56.318 1.01.738 1.35.42.34.942.51 1.566.51.76 0 1.372-.256 1.836-.768l.636.744a2.786 2.786 0 0 1-1.074.768 3.738 3.738 0 0 1-1.434.264c-.672 0-1.268-.138-1.788-.414a2.953 2.953 0 0 1-1.206-1.158 3.32 3.32 0 0 1-.426-1.68c0-.616.138-1.172.414-1.668a2.966 2.966 0 0 1 1.14-1.158 3.247 3.247 0 0 1 1.638-.414c.608 0 1.15.138 1.626.414.476.276.848.662 1.116 1.158.268.496.402 1.064.402 1.704zm-3.144-2.304c-.552 0-1.014.168-1.386.504-.372.336-.59.776-.654 1.32h4.08c-.064-.536-.282-.974-.654-1.314-.372-.34-.834-.51-1.386-.51zm4.932-.912h1.152v4.632l3.9-4.632h1.044V314h-1.152v-4.632L250.92 314h-1.056v-6.36zm2.976-.828c-.592 0-1.052-.142-1.38-.426-.328-.284-.496-.694-.504-1.23h.78c.008.296.11.534.306.714.196.18.458.27.786.27s.592-.09.792-.27c.2-.18.304-.418.312-.714h.804c-.008.536-.18.946-.516 1.23-.336.284-.796.426-1.38.426z"/>
            <g opacity=".4">
                <path fill="#595754" d="M21 94h277v1H21z" opacity=".5"/>
                <path fill="#000" d="M21 95h277v1H21z" opacity=".1"/>
            </g>
            <g transform="translate(44 50)">
                <circle cx="15" cy="15" r="15" fill="url(#C)"/>
                <path fill="#FFF" d="M17.223 18.348c0-1.714-.657-2.569-1.973-2.569-.339 0-.667.07-.992.205l-1.641 7.658H9.63L12.617 9.71c-.871.028-1.538.362-1.998.998-.463.64-.694 1.745-.694 3.32 0 .552.083.976.252 1.275.028.052.042.1.042.143-1.12 0-1.815-.358-2.077-1.071-.094-.257-.142-.657-.142-1.192 0-.536.128-1.13.387-1.784A4.564 4.564 0 0 1 9.61 9.67C10.85 8.555 12.672 8 15.067 8c.21 0 .47.014.78.042l1.013.08c.999.09 1.807.132 2.43.132.621 0 1.192-.084 1.71-.254l-.152.754c-.128.664-.408 1.161-.84 1.488-.242.174-.57.264-.981.264-.92 0-2.087-.139-3.504-.417l-1.033 4.835c.829-.25 1.537-.375 2.125-.375 1.147 0 2.018.35 2.609 1.056.59.71.884 1.665.884 2.868 0 1.206-.345 2.37-1.043 3.5a4.72 4.72 0 0 1-1.372 1.44c-.563.389-1.268.587-2.118.587-.85 0-1.445-.278-1.783-.827a1.695 1.695 0 0 1-.242-.89c0-.323.076-.671.231-1.043.39.5.816.75 1.272.75.456 0 .815-.114 1.078-.343.73-.654 1.092-1.752 1.092-3.299z"/>
            </g>
            <path fill="#313131" fill-rule="nonzero" d="M89.526 61.2h7.392v1.19h-6.006v2.8h3.052c1.167 0 2.053.243 2.66.728.607.485.91 1.185.91 2.1 0 .961-.329 1.699-.987 2.212-.658.513-1.598.77-2.821.77h-4.2v-9.8zm4.144 8.694c.803 0 1.414-.154 1.834-.462.42-.308.63-.76.63-1.358 0-1.185-.821-1.778-2.464-1.778h-2.758v3.598h2.758zm12.236-6.314V71h-1.344v-6.244h-3.192l-.084 1.652c-.047.999-.135 1.832-.266 2.499-.13.667-.345 1.202-.644 1.603-.299.401-.714.602-1.246.602-.243 0-.518-.042-.826-.126l.084-1.134c.121.028.233.042.336.042a.908.908 0 0 0 .84-.49c.187-.327.308-.714.364-1.162.056-.448.107-1.087.154-1.918l.126-2.744h5.698zm2.604 0h1.344v5.404l4.55-5.404h1.218V71h-1.344v-5.404L109.742 71h-1.232v-7.42zm17.64 6.244v2.954h-1.274V71h-6.65v-7.42h1.344v6.244h4.06V63.58h1.344v6.244h1.176zm11.102-2.548c0 1.148-.383 2.053-1.148 2.716-.765.663-1.843 1.031-3.234 1.106v2.618h-1.316v-2.618c-1.39-.075-2.466-.441-3.227-1.099-.76-.658-1.141-1.566-1.141-2.723 0-1.148.378-2.044 1.134-2.688.756-.644 1.834-1.003 3.234-1.078v-2.898h1.316v2.898c1.39.075 2.469.436 3.234 1.085.765.649 1.148 1.542 1.148 2.681zm-8.736 0c0 .793.254 1.414.763 1.862.509.448 1.267.705 2.275.77V64.7c-1.017.065-1.778.317-2.282.756s-.756 1.045-.756 1.82zm4.354 2.646c2.035-.159 3.052-1.04 3.052-2.646 0-.784-.257-1.393-.77-1.827-.513-.434-1.274-.684-2.282-.749v5.222zm6.286-6.342h1.344v5.404l4.55-5.404h1.218V71h-1.344v-5.404L140.388 71h-1.232v-7.42zm9.716 0h1.344v3.15h4.228v-3.15h1.344V71h-1.344v-3.108h-4.228V71h-1.344v-7.42zm12.18-.07c1.027 0 1.813.252 2.359.756s.819 1.255.819 2.254V71h-1.274v-.98a2.124 2.124 0 0 1-.959.791c-.415.182-.908.273-1.477.273-.83 0-1.496-.2-1.995-.602-.5-.401-.749-.929-.749-1.582s.238-1.178.714-1.575 1.232-.595 2.268-.595h2.128v-.266c0-.579-.168-1.022-.504-1.33-.336-.308-.83-.462-1.484-.462-.439 0-.868.072-1.288.217-.42.145-.775.338-1.064.581l-.56-1.008c.383-.308.84-.544 1.372-.707a5.74 5.74 0 0 1 1.694-.245zm-.308 6.538c.513 0 .957-.114 1.33-.343.373-.229.644-.553.812-.973v-1.036h-2.072c-1.139 0-1.708.383-1.708 1.148 0 .373.145.667.434.882.29.215.69.322 1.204.322zm5.908-6.468h1.344v3.15h4.228v-3.15h1.344V71h-1.344v-3.108h-4.228V71h-1.344v-7.42zm12.768 7.504c-.756 0-1.43-.163-2.023-.49a3.59 3.59 0 0 1-1.393-1.351c-.336-.574-.504-1.225-.504-1.953s.168-1.379.504-1.953a3.54 3.54 0 0 1 1.393-1.344c.593-.322 1.267-.483 2.023-.483.672 0 1.272.135 1.799.406.527.27.936.663 1.225 1.176l-1.022.658a2.283 2.283 0 0 0-.868-.798 2.476 2.476 0 0 0-1.148-.266c-.485 0-.922.107-1.309.322-.387.215-.69.52-.91.917-.22.397-.329.852-.329 1.365 0 .523.11.982.329 1.379.22.397.523.702.91.917.387.215.824.322 1.309.322.42 0 .803-.089 1.148-.266.345-.177.635-.443.868-.798l1.022.644c-.29.513-.698.908-1.225 1.183-.527.275-1.127.413-1.799.413z" opacity=".8"/>
            <path fill="#313131" fill-rule="nonzero" d="M270.188 63.625h1.562v-1.563h-1.563v1.563zm0 6.25h1.562v-5.313h-1.563v5.313zm.78-11.875c-2.128 0-4.13.829-5.634 2.334A7.916 7.916 0 0 0 263 65.969c0 4.394 3.575 7.969 7.969 7.969h.001c2.128 0 4.13-.83 5.634-2.334a7.919 7.919 0 0 0 2.334-5.635c0-4.394-3.575-7.969-7.97-7.969zm4.574 12.542a6.422 6.422 0 0 1-4.572 1.894h-.001a6.475 6.475 0 0 1-6.468-6.467c0-1.728.673-3.352 1.894-4.573a6.427 6.427 0 0 1 4.574-1.895 6.475 6.475 0 0 1 6.467 6.468 6.427 6.427 0 0 1-1.894 4.573z"/>
        </g>
        <g>
            <g transform="translate(41 532.485)">
                <rect width="235" height="49" x=".5" y="1.015" fill="#FFF" stroke="#313131" opacity=".32" rx="6"/>
                <path fill="#313131" fill-rule="nonzero" d="M19.004 21.2V31h-1.82v-8.274h-2.072V21.2h3.892zm9.044 8.26V31h-7.224v-1.218l3.892-3.696c.439-.42.735-.786.889-1.099.154-.313.231-.623.231-.931 0-.457-.154-.807-.462-1.05-.308-.243-.76-.364-1.358-.364-.999 0-1.764.34-2.296 1.022l-1.274-.98c.383-.513.898-.912 1.547-1.197.649-.285 1.374-.427 2.177-.427 1.064 0 1.913.252 2.548.756s.952 1.19.952 2.058c0 .532-.112 1.031-.336 1.498-.224.467-.653.999-1.288 1.596l-2.618 2.492h4.62zm7.98-4.466c1.381 0 2.403.268 3.066.805.663.537.994 1.267.994 2.191 0 .588-.145 1.12-.434 1.596-.29.476-.723.854-1.302 1.134-.579.28-1.293.42-2.142.42-.7 0-1.377-.1-2.03-.301-.653-.2-1.204-.478-1.652-.833l.77-1.414c.364.299.8.534 1.309.707a4.867 4.867 0 0 0 1.575.259c.644 0 1.15-.133 1.519-.399s.553-.632.553-1.099c0-.504-.198-.884-.595-1.141-.397-.257-1.076-.385-2.037-.385h-2.366l.504-5.334h5.754v1.526H35.3l-.21 2.268h.938zm9.198 6.146c-.784 0-1.484-.198-2.1-.595-.616-.397-1.101-.975-1.456-1.736-.355-.76-.532-1.664-.532-2.709 0-1.045.177-1.948.532-2.709.355-.76.84-1.34 1.456-1.736.616-.397 1.316-.595 2.1-.595s1.486.198 2.107.595c.62.397 1.108.975 1.463 1.736.355.76.532 1.664.532 2.709 0 1.045-.177 1.948-.532 2.709-.355.76-.842 1.34-1.463 1.736-.62.397-1.323.595-2.107.595zm0-1.582c.7 0 1.253-.29 1.659-.868.406-.579.609-1.442.609-2.59s-.203-2.011-.609-2.59c-.406-.579-.959-.868-1.659-.868-.69 0-1.239.29-1.645.868-.406.579-.609 1.442-.609 2.59s.203 2.011.609 2.59c.406.579.954.868 1.645.868zm9.422 1.582c-.784 0-1.484-.198-2.1-.595-.616-.397-1.101-.975-1.456-1.736-.355-.76-.532-1.664-.532-2.709 0-1.045.177-1.948.532-2.709.355-.76.84-1.34 1.456-1.736.616-.397 1.316-.595 2.1-.595s1.486.198 2.107.595c.62.397 1.108.975 1.463 1.736.355.76.532 1.664.532 2.709 0 1.045-.177 1.948-.532 2.709-.355.76-.842 1.34-1.463 1.736-.62.397-1.323.595-2.107.595zm0-1.582c.7 0 1.253-.29 1.659-.868.406-.579.609-1.442.609-2.59s-.203-2.011-.609-2.59c-.406-.579-.959-.868-1.659-.868-.69 0-1.239.29-1.645.868-.406.579-.609 1.442-.609 2.59s.203 2.011.609 2.59c.406.579.954.868 1.645.868zm12.222-1.792v.798h3.08v.98h-3.08V31h-1.82v-1.456h-1.4v-.98h1.4V21.2h4.032c1.307 0 2.326.28 3.059.84.733.56 1.099 1.377 1.099 2.45 0 1.064-.366 1.876-1.099 2.436s-1.752.84-3.059.84H66.87zm4.536-3.262c0-.57-.2-1.006-.602-1.309-.401-.303-.98-.455-1.736-.455H66.87v3.556h2.198c.747 0 1.323-.156 1.729-.469.406-.313.609-.754.609-1.323zm7.532-.98h1.75v3.038h3.766v-3.038h1.75V31h-1.75v-2.954h-3.766V31h-1.75v-7.476zm12.404-.084c1.101 0 1.944.264 2.527.791.583.527.875 1.323.875 2.387V31h-1.652v-.91c-.215.327-.52.576-.917.749-.397.173-.875.259-1.435.259s-1.05-.096-1.47-.287a2.271 2.271 0 0 1-.973-.798 2.025 2.025 0 0 1-.343-1.155c0-.672.25-1.211.749-1.617.5-.406 1.286-.609 2.359-.609h1.932v-.112c0-.523-.156-.924-.469-1.204-.313-.28-.777-.42-1.393-.42-.42 0-.833.065-1.239.196-.406.13-.749.313-1.029.546l-.686-1.274a4.248 4.248 0 0 1 1.414-.686 6.291 6.291 0 0 1 1.75-.238zm-.238 6.384c.439 0 .828-.1 1.169-.301.34-.2.581-.488.721-.861v-.868h-1.806c-1.008 0-1.512.331-1.512.994 0 .317.126.57.378.756.252.187.602.28 1.05.28zm12.502-8.624V31h-1.82v-8.274h-2.072V21.2h3.892zm10.682 7.574h-1.736V31h-1.764v-2.226h-5.376v-1.26l4.83-6.314h1.946l-4.55 6.034h3.206V25.26h1.708v1.974h1.736v1.54zm13.174.742v3.15h-1.638V31h-5.768v1.666h-1.624v-3.15h.35c.476-.019.8-.324.973-.917.173-.593.287-1.43.343-2.513l.098-2.562h6.16v5.992h1.106zm-5.768-3.304c-.037.859-.107 1.559-.21 2.1-.103.541-.29.943-.56 1.204h3.682v-4.508h-2.87l-.042 1.204zm7.336-2.688h1.75v3.038h3.766v-3.038h1.75V31h-1.75v-2.954h-3.766V31h-1.75v-7.476zm16.618 3.78c0 .121-.01.294-.028.518h-5.866c.103.55.371.987.805 1.309.434.322.973.483 1.617.483.821 0 1.498-.27 2.03-.812l.938 1.078a3.16 3.16 0 0 1-1.274.91c-.513.205-1.092.308-1.736.308-.821 0-1.545-.163-2.17-.49a3.529 3.529 0 0 1-1.449-1.365c-.34-.583-.511-1.244-.511-1.981 0-.728.166-1.384.497-1.967a3.525 3.525 0 0 1 1.379-1.365c.588-.327 1.25-.49 1.988-.49.728 0 1.379.161 1.953.483a3.42 3.42 0 0 1 1.344 1.358c.322.583.483 1.258.483 2.023zm-3.78-2.464c-.56 0-1.034.166-1.421.497-.387.331-.623.772-.707 1.323h4.242c-.075-.541-.303-.98-.686-1.316-.383-.336-.859-.504-1.428-.504zm5.698-1.316h1.75v4.928l4.13-4.928h1.596V31h-1.75v-4.928L149.176 31h-1.61v-7.476zm3.626-.882c-.756 0-1.332-.175-1.729-.525-.397-.35-.6-.861-.609-1.533h1.162c.01.336.114.602.315.798.2.196.483.294.847.294.355 0 .637-.098.847-.294.21-.196.32-.462.329-.798h1.19c-.01.672-.215 1.183-.616 1.533-.401.35-.98.525-1.736.525z" opacity=".9"/>
                <path d="M202 14h24v24h-24z"/>
            </g>
            <g transform="translate(232 543.485)">
                <rect width="30" height="30" fill="#313131" rx="15"/>
                <path fill="#FFF" d="M10.885 20.189l11.03-4.729a.632.632 0 0 0 0-1.163L10.886 9.57a.627.627 0 0 0-.879.575L10 13.058c0 .316.234.588.55.626l8.932 1.195-8.932 1.188a.64.64 0 0 0-.55.632l.006 2.915c0 .448.462.758.879.575z"/>
            </g>
        </g>
    </g>
</svg>
