<svg xmlns="http://www.w3.org/2000/svg" xmlns:xlink="http://www.w3.org/1999/xlink" width="578" height="481" viewBox="0 0 578 481">
    <defs>
        <linearGradient id="a" x1="50%" x2="50%" y1="0%" y2="100%">
            <stop offset="0%" stop-color="#5DCAD9"/>
            <stop offset="100%" stop-color="#25B0BD"/>
        </linearGradient>
        <path id="c" d="M100 139h313c5.523 0 10 4.477 10 10v155c0 55.228-44.772 100-100 100H10c-5.523 0-10-4.477-10-10V239c0-55.228 44.772-100 100-100z"/>
        <filter id="b" width="134.8%" height="155.5%" x="-17.4%" y="-27.7%" filterUnits="objectBoundingBox">
            <feOffset in="SourceAlpha" result="shadowOffsetOuter1"/>
            <feGaussianBlur in="shadowOffsetOuter1" result="shadowBlurOuter1" stdDeviation="24.5"/>
            <feColorMatrix in="shadowBlurOuter1" values="0 0 0 0 0.0338824728 0 0 0 0 0.0338824728 0 0 0 0 0.0338824728 0 0 0 0.0848618659 0"/>
        </filter>
        <linearGradient id="d" x1="50%" x2="50%" y1="0%" y2="100%">
            <stop offset="0%" stop-color="#D10808"/>
            <stop offset="100%" stop-color="#A41212"/>
        </linearGradient>
        <path id="e" d="M.523 7.989S1.904.715 3.609.162c1.705-.553 22.067 3.085 22.335 5.907 0 0-.047 4.715-1.248 7.575 0 0-14.667-7.144-24.173-5.655"/>
        <linearGradient id="g" x1="50%" x2="50%" y1="0%" y2="100%">
            <stop offset="0%" stop-color="#D10808"/>
            <stop offset="100%" stop-color="#A41212"/>
        </linearGradient>
        <path id="h" d="M.176 1.992S7.106-.593 8.462.579c1.355 1.173 8.798 20.493 6.526 22.183 0 0-4.054 2.406-7.118 2.857 0 0-1.497-16.258-7.694-23.627"/>
        <path id="j" d="M7.607 1.026c5.796 1.159 18.834 4.249 25.5 5.843a6.902 6.902 0 0 1 5.097 5.077l1.85 7.542S6.519 11.616.016 9.542L4.104 2.6a3.314 3.314 0 0 1 3.503-1.575"/>
    </defs>
    <g fill="none" fill-rule="evenodd">
        <g transform="translate(40)">
            <circle cx="391.5" cy="146.5" r="146.5" fill="url(#a)"/>
            <g transform="matrix(-1 0 0 1 423 0)">
                <use fill="#000" filter="url(#b)" xlink:href="#c"/>
                <use fill="#FDFBF7" xlink:href="#c"/>
            </g>
        </g>
        <path fill="url(#d)" d="M66.578 98.397c9.265-1.252 36.896-4.2 52.798-5.872a25.825 25.825 0 0 0 18.41-10.805c6.587-9.338 16.03-22.84 19.171-27.918 2.029-3.276 4.454-6.497 7.885-8.243 7.53-3.834 10.427-.91 17.646 3.48-4.73 14.123-8.558 24.077-17.468 36.006-5.84 7.816-15.136 22.354-20.187 30.374a17.663 17.663 0 0 1-10.22 7.61c-16.556 4.612-59.86 15.472-83.16 10.09-2.893-.666-6.087-1.702-7.43-4.353-2.105-4.162.306-18.391 2.85-22.405 3.947-6.22 12.946-7.056 19.705-7.964" transform="translate(87 88)"/>
        <path fill="#F8E5BE" d="M270.394 137.78s-.864-4.691 1.859-9.463c2.722-4.773 6.89-11.497 2.324-11.837-4.567-.34 4.422-4.158 1.666-12.525-2.755-8.366-21.007 3.968-23.374 14.4-2.368 10.431-2.494 15.483-2.494 15.483l20.019 3.942"/>
        <path fill="#FFFFFE" d="M246.174 136.493s1.383-7.274 3.086-7.827c1.705-.553 22.067 3.085 22.335 5.907 0 0-.047 4.716-1.248 7.575 0 0-14.667-7.144-24.173-5.655"/>
        <g transform="translate(245.651 128.504)">
            <mask id="f" fill="#fff">
                <use xlink:href="#e"/>
            </mask>
            <path fill="#B0C6DD" d="M27.5 1.003a253.252 253.252 0 0 1-3.977 21.385l.002-.002a6.98 6.98 0 0 0-.143.73l-.06.466.495-.014h.016a.756.756 0 0 0 .496-.246.763.763 0 0 0 .207-.509l-.017-.146-.783.179.14-.033h-.143l.003.033.14-.033h-.143.089l-.083-.036-.006.036h.089l-.083-.036h-.001l.045.058-.005-.07-.04.012.045.058-.005-.07.028.402-.012-.402h-.027l.013.402.398.051c.025-.2.075-.424.128-.648v-.001a254.136 254.136 0 0 0 3.988-21.454l-.795-.112M25.687.235a349.795 349.795 0 0 1-5.138 20.778c-.062.224-.135.483-.154.764l-.028.404.43.026h.032a.71.71 0 0 0 .505-.224.714.714 0 0 0 .215-.5l-.034-.205-.756.272.187-.067h-.2l.013.067.187-.067h-.2.078l-.064-.062-.014.062h.078l-.064-.062.069.067v-.084l-.069.017.069.067v-.084.176l.006-.176h-.006v.176l.006-.176-.014.401.023-.401-.026-.002-.023.402.401.026c.01-.168.064-.381.126-.6A351.13 351.13 0 0 0 26.472.402l-.785-.168M23.878-.533a613.03 613.03 0 0 1-6.302 20.17c-.073.225-.163.493-.168.801l-.001.346.365.058.005.001.084.005a.695.695 0 0 0 .488-.214.697.697 0 0 0 .215-.485l-.064-.262-.712.37.21-.108h-.238l.028.109.21-.11h-.238.106l-.084-.084-.022.085h.106l-.084-.085.079.08v-.1l-.08.02.08.08v-.1.21l.03-.208-.03-.002v.21l.03-.208-.057.398.063-.397-.025-.003-.062.397.4.002c0-.137.055-.341.128-.551l.004-.011-.004.009a613.444 613.444 0 0 0 6.31-20.197l-.77-.226M22.07-1.3a3359.78 3359.78 0 0 1-7.466 19.563v-.002c-.078.209-.18.464-.182.772l.003.069.017.279.29.087.007.003.006.002.146.018a.69.69 0 0 0 .476-.207.673.673 0 0 0 .212-.473l-.097-.31-.658.46.215-.15h-.263l.048.15.215-.15h-.263.125l-.097-.1-.028.1h.125l-.097-.1.087.089v-.114l-.087.025.087.089v-.114.23l.058-.222-.058-.008v.23l.058-.222-.101.39.115-.385-.023-.008-.116.386.402-.026v-.018c-.003-.105.051-.292.127-.48v-.002c2.56-6.656 5.064-13.199 7.469-19.566L22.07-1.3M20.264-2.068a903.367 903.367 0 0 0-8.632 18.955c-.084.197-.194.441-.199.751l.008.125.03.236.244.097.204.037a.668.668 0 0 0 .465-.199.653.653 0 0 0 .211-.464l-.138-.355-.59.546.206-.191h-.282l.076.191.206-.191h-.282.145l-.11-.114-.035.114h.145l-.11-.114.093.097v-.123l-.094.026.094.097v-.123.244l.09-.227-.09-.017v.244l.09-.227-.022-.008-.148.374.399-.05v-.025c-.005-.082.05-.255.129-.427v.002A909.779 909.779 0 0 1 20.99-1.726l-.727-.342M18.461-2.836a395.54 395.54 0 0 0-9.8 18.348c-.09.187-.213.424-.217.739l.017.177.039.193.197.098.179-.36-.19.356.258.063a.66.66 0 0 0 .456-.193.645.645 0 0 0 .21-.456l-.185-.392-.512.62.187-.228h-.294l.107.227.187-.227h-.294.159l-.12-.126-.039.126h.159l-.12-.126.1.106v-.134l-.1.028.1.106v-.134.257l.12-.226-.12-.031v.257l.12-.226-.004-.003-.026-.013-.18.36.393-.078v-.021c-.006-.06.048-.222.13-.377A393.14 393.14 0 0 1 19.16-2.437l-.699-.399M16.662-3.6a252.622 252.622 0 0 0-10.97 17.737c-.098.182-.232.415-.238.735l.028.217.037.143.142.098h.001l.307.095a.662.662 0 0 0 .448-.188c.1-.103.199-.22.21-.449a.51.51 0 0 0-.232-.422l-.434.676.163-.254h-.302l.139.254.163-.254h-.302.173l-.129-.137-.044.137h.173l-.129-.137.103.11v-.14l-.103.03.103.11v-.14.262l.149-.215-.15-.046v.261l.15-.215-.02-.014-.229.332.389-.104-.002-.01c-.006-.04.05-.196.136-.34a250.663 250.663 0 0 1 10.934-17.68l-.664-.453M14.863-4.365a188.793 188.793 0 0 0-12.14 17.129c-.107.177-.251.405-.259.733l.04.253.035.102.1.09h.002l.002.002.348.128a.66.66 0 0 0 .442-.184c.098-.1.198-.21.209-.444a.498.498 0 0 0-.276-.442l-.358.721.139-.279h-.308l.17.279.138-.279h-.308.183l-.135-.146-.048.146h.183l-.135-.146.104.114v-.144l-.104.03.104.114v-.144.265l.171-.2-.17-.065v.265l.17-.2-.014-.013-.264.302.381-.128-.008.003h.01l-.002-.003-.008.003h.01l.135-.303v-.002A187.544 187.544 0 0 1 15.49-3.862l-.627-.503M13.067-5.127A153.118 153.118 0 0 0-.246 11.39l-.014.02.014-.02c-.113.175-.272.397-.281.735l.054.285.028.067.065.072.005.006.003.002.384.162a.651.651 0 0 0 .436-.178c.096-.098.198-.204.21-.44l-.092-.284-.232-.173-.281.754.106-.282-.24.176.134.106.106-.282-.24.176.26-.192h-.324l.064.192.26-.192h-.324.193l-.141-.154c-.003.013-.04.01-.052.154h.193l-.141-.154.105.115v-.146l-.105.031.105.115v-.146.268l.192-.185-.192-.083v.268l.192-.185-.288.278.296-.27-.016-.02-.297.273.372-.152-.044.018h.048l-.004-.018-.044.018h.048l.137-.275v.001a152.071 152.071 0 0 1 13.243-16.43l-.588-.548M11.268-5.885A131.757 131.757 0 0 0-3.214 10.018c-.123.171-.292.39-.303.737l.07.314.015.032.035.048.007.01.008.01.414.198a.652.652 0 0 0 .43-.175c.096-.096.198-.196.212-.436l-.11-.305-.252-.16-.218.775.081-.288-.225.19.144.098.081-.288-.225.19.252-.212h-.33l.078.212.252-.212h-.33.2l-.146-.162c-.003.013-.042.008-.054.162h.2l-.146-.162.106.119v-.15l-.106.031.106.119v-.15.27l.208-.172-.208-.098v.27l.208-.172-.31.254.326-.233-.014-.02-.327.233.361-.176-.073.036h.083l-.01-.036-.073.036h.083l.028-.077.108-.17v.002A130.53 130.53 0 0 1 11.816-5.296l-.548-.59M9.473-6.643A117.669 117.669 0 0 0-6.18 8.647c-.132.167-.316.38-.328.737l.122.4v-.003c.09.147.29.242.44.234a.656.656 0 0 0 .424-.17c.093-.095.197-.19.213-.434l-.132-.327-.271-.142-.156.788.058-.286-.207.202.15.084.057-.286-.207.202.24-.235h-.335l.095.235.24-.235h-.335.207l-.148-.168c-.003.014-.045.007-.059.168h.207l-.148-.168.106.12v-.151l-.106.03.106.12v-.15.269l.223-.154-.223-.115v.269l.223-.154-.002-.002-.084.06h.104l-.02-.06-.084.06h.104-.022l.022.002v-.003h-.022l.022.003.137-.22A116.819 116.819 0 0 1 9.977-6.016l-.504-.626" mask="url(#f)"/>
        </g>
        <path fill="#47281E" d="M257.817 446.824s.132 2.955-.969 5.83c-1.101 2.872-1.674 4.376-.807 10.331.865 5.956 4.332 5.87 7.793 5.752 3.463-.12 3.708.384 5.199-.746 1.49-1.13 1.331-3.307 3.993-1.618 2.661 1.688 4.172 3.8 12.12 3.309 7.943-.49 10.742-1.02 19.265-2.758 8.524-1.74 8.509-8.203-.742-10.5-9.251-2.295-13.083-.325-16.058-3.26-2.978-2.938-2.76-11.995-2.76-11.995l-25.886 5.62"/>
        <path fill="#313131" d="M182.678 272.781s3.22 3.089 15.479 11.894c12.26 8.808 65.934 12.815 84.107 35.201 2.483 6.407 1.262 9.115 2.553 15.93 1.81 9.565 2.848 19.24 3.528 28.953l.001.011.055.304c.462-.741.999 16.768.757 18.333-.812 20.81-2.16 43.858-2.039 51.167.053 3.293.383 7.263.832 11.356-5.659 2.262-11.438 4.265-17.46 5.15-5.661.828-11.47.68-17.188.993-2.207-9.541-4.727-20.309-6.465-27.365-2.032-4.284-3.405-19.35-3.383-22.646-.064-2.037-.154-4.054-.347-6.063-1.013-11.027-8.148-48.074-10.69-50.1-1.257-1.008-46.28-2.328-53.475-3.462-13.423-2.11-32.658-15.83-42.156-28.228-9.501-12.398-10.053-32.23-10.053-32.23l55.944-9.198"/>
        <path fill="#733E29" d="M249.486 451.47c-.508 1.151.356 8.675.525 13.959.168 5.28-.27 8.696 2.289 11.817 2.558 3.119 10.997 1.688 10.997 1.688s-.367-3.386 1.856-2.71c2.223.68 3.037 2.36 10.21 2.48 7.172.118 23.039.69 26.33-2.257 3.292-2.95-4.032-12.7-15.193-13.628-11.163-.928-14.103-15.745-14.103-15.745l-22.911 4.397"/>
        <path fill="#313131" d="M120.278 318.017c-9.498-12.396-10.379-34.009-10.379-34.009l58.796-9.121s3.22 3.088 15.479 11.893c12.26 8.807 65.935 12.814 84.107 35.2 2.485 6.408 2.058 12.124 3.348 18.939 1.812 9.563 2.85 19.239 3.53 28.952l.003.01.054.304c.462-.741.997 16.768.756 18.333-.81 20.81-2.16 43.858-2.038 51.167.053 3.295.383 7.263.83 11.356-5.658 2.264-11.437 4.267-17.462 5.15-2.535.37-5.104.543-7.678.65-5.412-18.46-8.697-37.546-9.693-56.76-.79-15.293-7.421-56.207-9.134-56.267-12.942-.468-30.868-1.773-43.81-2.24-11.244-.403-37.818 2.146-49.419-6.5-5.752-4.289-13.634-12.289-17.29-17.057"/>
        <path fill="#EE9E3A" d="M257.915 456.292c-.127-.466-.253-.931-.378-1.4l-.355.095c.125.469.25.936.38 1.403l.353-.098zm-.745-2.802c-.12-.468-.238-.937-.355-1.406l-.356.089c.117.47.235.939.356 1.408l.355-.09zm-.698-2.815c-.112-.47-.223-.94-.333-1.413l-.358.084c.11.472.22.944.334 1.414l.357-.085zm-.655-2.827c-.105-.47-.209-.943-.311-1.415l-.36.078c.103.473.207.946.313 1.418l.358-.08zm-.613-2.834l-.291-1.416-.36.072c.095.473.193.947.291 1.419l.36-.075zm-.571-2.834c-.093-.472-.184-.946-.272-1.42l-.361.07c.088.474.18.948.272 1.421l.36-.071zm-.535-2.84c-.087-.474-.171-.948-.255-1.423l-.363.064.255 1.425.363-.067zm-.503-2.848c-.08-.475-.16-.95-.238-1.426l-.362.06c.078.477.159.952.24 1.429l.36-.063zm-.47-2.853c-.074-.476-.149-.951-.222-1.43l-.362.057c.073.478.147.954.222 1.431l.363-.058zm-.438-2.859c-.072-.476-.142-.953-.21-1.431l-.364.053.21 1.433.364-.055zm-.412-2.864a397.69 397.69 0 0 1-.198-1.432l-.364.048c.065.48.13.958.198 1.436l.364-.052zm-.388-2.868l-.185-1.435-.364.046c.06.48.123.959.185 1.437l.364-.048zm-.364-2.872l-.172-1.437-.366.043.174 1.44.364-.046zm-.34-2.875l-.165-1.439-.364.04c.053.48.107.962.163 1.441l.364-.042h.002zm-.324-2.88c-.051-.479-.104-.959-.154-1.44l-.365.04c.05.48.102.96.154 1.441l.365-.04zm-.305-2.88c-.05-.482-.098-.961-.146-1.442l-.366.037.147 1.442.365-.037zm-.29-2.884c-.046-.482-.092-.963-.14-1.444l-.365.036.14 1.443.366-.035zm-.274-2.888c-.046-.48-.09-.962-.134-1.443l-.366.032.134 1.446.366-.035zm-.265-2.889l-.127-1.445-.366.033c.042.483.084.964.128 1.445l.365-.033zm-.253-2.89c-.042-.481-.083-.964-.123-1.445l-.367.031.124 1.445.366-.03zm-.246-2.892l-.12-1.447-.366.03.12 1.448.366-.03zm-.238-2.893l-.117-1.449-.367.03.118 1.448.366-.03zm-.234-2.895l-.116-1.449-.366.028c.04.483.078.966.115 1.449l.367-.028zm-.231-2.897l-.114-1.45-.367.03c.039.483.078.965.115 1.448l.366-.028zm-.229-2.898l-.115-1.45-.366.03c.04.482.077.965.115 1.45l.366-.03zm-.23-2.898l-.115-1.45-.366.028.115 1.45.366-.028zm-.232-2.9l-.117-1.45-.365.03.116 1.45.366-.03zm-.235-2.901l-.121-1.45-.366.031c.04.483.081.966.12 1.45l.367-.031zm-.243-2.9l-.122-1.451-.366.03c.04.485.082.968.123 1.452l.365-.031zm-.248-2.901l-.128-1.452-.367.033c.043.483.085.967.129 1.45l.366-.031zm-.26-2.902l-.132-1.45-.366.033c.044.483.089.966.132 1.45l.366-.033zm-.27-2.9l-.14-1.452-.365.036.14 1.45.366-.035zm-.284-2.902c-.048-.484-.098-.967-.148-1.45l-.364.037c.05.483.098.966.146 1.449l.366-.036zm-.299-2.901c-.051-.483-.102-.967-.155-1.45l-.366.04.156 1.449.365-.04zm-.317-2.898c-.053-.483-.109-.964-.163-1.444l-.366.042c.056.48.11.96.165 1.442l.364-.04zm-.334-2.888l-.175-1.442-.365.045.176 1.44.364-.043zm-.357-2.882c-.06-.482-.123-.961-.186-1.44l-.364.046c.063.48.126.96.186 1.44l.364-.046zm-.38-2.881c-.065-.482-.131-.961-.198-1.44l-.364.052.199 1.437.364-.05zm-.405-2.878c-.07-.48-.14-.958-.213-1.438l-.363.056c.072.477.143.957.213 1.435l.363-.053zm-.434-2.874c-.075-.478-.151-.957-.229-1.434l-.362.06c.077.476.154.954.228 1.432l.363-.058zm-.465-2.873c-.081-.48-.162-.958-.246-1.434l-.361.062.244 1.433.363-.06zm-.5-2.867c-.046-.266-.096-.53-.144-.797-.04-.209-.08-.422-.125-.636l-.36.078c.046.207.085.416.124.625l.144.796.361-.066zm-.725-2.853a3.434 3.434 0 0 0-.926-1.204l-.234.284a3.046 3.046 0 0 1 .83 1.08l.33-.16zm-2.224-1.953a11.836 11.836 0 0 0-1.403-.448l-.095.355c.464.123.927.258 1.36.433l.138-.34zm-2.81-.811c-.468-.12-.936-.241-1.402-.363l-.094.355 1.405.365.092-.357zm-2.806-.73l-1.403-.371-.093.357 1.403.369.093-.355zm-2.803-.743c-.466-.125-.933-.25-1.4-.377l-.096.355 1.401.377.095-.355zm-2.8-.756l-1.398-.383-.098.355c.467.128.933.256 1.4.382l.096-.354zm-2.797-.769c-.465-.128-.931-.258-1.396-.388l-.098.354 1.396.39.098-.356zm-2.792-.78c-.465-.13-.93-.262-1.395-.394l-.101.353c.465.133.93.264 1.397.396l.1-.355zm-2.79-.793c-.464-.132-.93-.266-1.393-.4l-.102.354 1.393.4.102-.354zm-2.786-.805l-1.391-.406-.104.352 1.392.408.103-.354zm-2.782-.817l-1.39-.413-.105.352c.464.138.927.277 1.391.414l.104-.353zm-2.78-.829l-1.387-.42-.106.352 1.388.42.105-.352zm-2.775-.842l-1.386-.426-.107.35c.462.144.924.286 1.386.428l.107-.352zm-2.77-.855c-.462-.144-.924-.287-1.385-.432l-.11.35 1.386.434.109-.352zm-2.767-.866c-.462-.147-.923-.291-1.383-.438l-.11.35c.46.147.92.292 1.382.438l.11-.35zm-2.765-.88c-.46-.147-.92-.294-1.38-.444l-.113.35 1.381.444.112-.35zm-2.76-.89l-1.377-.451-.116.349c.46.15.92.302 1.38.451l.114-.35zm-2.756-.904c-.459-.151-.917-.304-1.376-.456l-.115.348c.458.153.917.306 1.376.457l.115-.35zm-2.751-.916a237.26 237.26 0 0 1-1.374-.462l-.118.348 1.375.463.117-.349zm-2.748-.928c-.457-.154-.914-.311-1.372-.467l-.12.347 1.374.469.118-.349zm-2.744-.94c-.457-.156-.913-.315-1.37-.474l-.12.347c.458.16.913.318 1.37.475l.12-.347zm-2.739-.95l-1.367-.482-.123.347 1.369.482.121-.348zm-2.735-.965c-.455-.162-.911-.323-1.365-.487l-.125.346 1.368.487.122-.346zm-2.731-.976l-1.363-.494-.126.346 1.364.494.125-.346zm-2.725-.989c-.455-.165-.909-.332-1.363-.498l-.126.344 1.363.5.126-.346zm-2.723-1c-.452-.168-.905-.336-1.358-.506l-.129.344c.453.17.907.338 1.36.506l.127-.344zm-2.714-1.02c-.451-.171-.9-.345-1.35-.521l-.134.34c.45.178.902.353 1.353.525l.13-.344zm-2.697-1.057c-.448-.18-.895-.365-1.34-.551l-.141.34c.446.186.894.37 1.344.552l.137-.341zm-2.671-1.118c-.444-.193-.884-.39-1.324-.589l-.151.335c.44.2.884.397 1.328.59l.147-.336zm-2.635-1.201c-.436-.209-.87-.42-1.3-.637l-.164.329c.432.218.868.431 1.305.64l.159-.332zm-2.584-1.302c-.426-.227-.848-.46-1.268-.696l-.18.32c.421.24.847.473 1.275.7l.173-.324zm-2.516-1.425a49.13 49.13 0 0 1-1.227-.764l-.199.308c.408.263.82.52 1.237.77l.19-.314zm-2.428-1.566a42.236 42.236 0 0 1-1.174-.841l-.22.294c.39.29.786.573 1.184.849l.21-.302zm-2.318-1.724c-.374-.301-.743-.61-1.107-.925l-.241.277c.368.319.74.63 1.12.934l.228-.286zm-2.177-1.893l-.128-.121a34.72 34.72 0 0 1-.9-.89l-.263.255c.297.306.602.607.911.901l.128.123.252-.268zm-2.013-2.068c-.32-.36-.633-.724-.938-1.096l-.283.232c.308.377.623.746.947 1.109l.274-.245zm-1.83-2.233c-.289-.385-.569-.775-.843-1.171l-.301.209c.275.4.56.795.852 1.183l.292-.22zm-1.634-2.378a32.98 32.98 0 0 1-.744-1.238l-.319.184c.241.422.492.84.751 1.25l.312-.196zm-1.435-2.506c-.22-.426-.434-.86-.637-1.295l-.333.155c.205.441.421.879.644 1.31l.326-.17zm-1.22-2.616a34.389 34.389 0 0 1-.53-1.344l-.343.128c.168.456.345.91.533 1.358l.34-.142zm-1.001-2.708a35.336 35.336 0 0 1-.415-1.383l-.353.098c.129.469.269.935.418 1.399l.35-.114zm-.77-2.783c-.109-.469-.207-.939-.296-1.412l-.36.067c.088.478.188.954.298 1.43l.358-.085z" opacity=".2"/>
        <path fill="#F8E5BE" d="M177.401 123.05c.439 1.094 5.812 21.372 3.013 29.692-2.797 8.32-6.22 11.387-15.294 11.43l.635 15.833-25.8-2.13 1.888-50.707 35.558-4.117"/>
        <path fill="#313131" d="M139.114 161.083c.565 1.364 8.212-1.883 11.373-6.167 3.16-4.287 4.343-3.97 3.592-6.176-.753-2.205-2.433-.475-4.686-3.795-2.25-3.319-3.279-8.847 1.652-9.374 4.931-.528 5.616 3.157 7.386.994 1.77-2.162-1.165-7.187.697-8.463 1.862-1.277 2.245-5.257 11.542-2.786 9.295 2.472 17.321 5.719 17.041-.901-.278-6.62-6.89-5.024-2.803-8.313 4.088-3.292-1.801-7.791-10.411-5.258-8.61 2.533-23.315-7.894-36.028 3.811-12.715 11.705-11.219 17.797.645 46.428"/>
        <path fill="#313131" d="M165.12 164.173c-1.773.224-5.917.671-10.971-1.492-5.054-2.163 2.353 4.87 5.894 5.613 3.539.742 5.337 2.346 5.337 2.346l-.26-6.467" opacity=".1"/>
        <path fill="url(#g)" d="M25.422 119.505s7.464-15.159 13.904-24.113C45.766 86.436 51.8 82.089 51.8 82.089l26.385 6.581 1.918 6.952s15.525 5.543 35.139 11.182c19.61 5.637 25.458 2.906 37.286.666 11.83-2.24 36.923-1.697 36.923-1.697s6.022 7.814 7.594 18.959c0 0-47.737 24.76-82.107 17.905 0 0-11.332-.856-22.466-2.177 0 0 3.9 19.99 2.546 28.64-1.355 8.653 6.998 14.817 6.605 20.573 0 0-35.01 16.54-57.243 15.428-22.235-1.11-30.09-10.284-30.09-10.284s2.24-18.657 4.99-29.605c2.75-10.95 1.43-37.638 6.142-45.707" transform="translate(87 88)"/>
        <path fill="#F8E5BE" d="M276.451 193.773s4.762-.022 8.94-3.588c4.177-3.568 10-8.92 11.183-4.492 1.185 4.43 3.259-5.123 11.982-3.97 8.725 1.155.017 21.403-9.78 25.673-9.796 4.27-14.73 5.336-14.73 5.336l-7.595-18.96"/>
        <path fill="#FFFFFE" d="M272.271 192.789s6.93-2.586 8.285-1.413c1.357 1.173 8.8 20.493 6.527 22.182 0 0-4.053 2.406-7.116 2.858 0 0-1.498-16.258-7.696-23.627"/>
        <g transform="translate(272.096 190.797)">
            <mask id="i" fill="#fff">
                <use xlink:href="#h"/>
            </mask>
            <path fill="#B0C6DD" d="M20.409 23.42A206.257 206.257 0 0 1-.5 32.657l-.49.185.305.425c.164.225.409.323.647.324.16 0 .331-.048.477-.16l-.491-.636.014.018v-.027l-.014.01.014.017v-.027l-.01-.001-.015.035.03-.021-.015-.014-.015.035.03-.021-.326.233.14.377a206.877 206.877 0 0 0 20.99-9.272l-.363-.717M20.123 21.47A253.864 253.864 0 0 1-.208 29.148c-.223.073-.46.152-.696.257l-.443.196.29.42.002.005a.765.765 0 0 0 .629.311.702.702 0 0 0 .496-.193l-.56-.576.064.066v-.1l-.064.034.064.066v-.1h-.002l-.032.073.062-.045-.03-.028-.032.073.062-.045-.328.232.33-.229-.015-.022-.331.23.163.367c.187-.083.402-.156.623-.228a254.28 254.28 0 0 0 20.394-7.702l-.315-.738M19.838 19.52A348.222 348.222 0 0 1-.574 25.888c-.224.064-.482.136-.733.263l-.362.187.204.383.003.005.001.002c.165.269.41.35.646.358A.658.658 0 0 0-.3 26.85l-.624-.506.109.089v-.154l-.109.065.109.089v-.154.014l.006-.013-.006-.001v.014l.006-.013-.056.112.106-.057-.05-.055-.056.112.106-.057-.352.194.355-.188-.012-.023-.355.19.183.356c.153-.08.363-.143.58-.202A349.87 349.87 0 0 0 20.1 20.28l-.262-.76M19.556 17.574A610.272 610.272 0 0 1-.94 22.63c-.227.055-.504.114-.771.271l-.293.178.136.34.003.006c.157.32.418.397.66.408a.611.611 0 0 0 .531-.28l-.686-.42.154.095v-.2l-.154.105.154.095v-.2.12l.081-.033-.08-.088v.122l.08-.034-.37.154.373-.148-.009-.024-.373.15.207.344c.113-.07.319-.13.536-.177a609.103 609.103 0 0 0 20.524-5.062l-.207-.777M19.276 15.628A3224.796 3224.796 0 0 1-1.305 19.37c-.233.046-.527.092-.809.282l-.252.173.107.31.38-.13-.386.11c.056.188.184.3.297.364l.372.098.283-.062.26-.27-.734-.323.235.104-.114-.234-.121.13.235.104-.114-.234.07.144v-.162l-.07.018.07.144v-.162.045l.023-.039-.023-.006v.045l.023-.039-.093.163.173-.05-.08-.113-.093.163.173-.05-.003-.009-.011-.032-.38.13.227.332c.081-.06.28-.117.496-.152 7.016-1.256 13.9-2.503 20.587-3.744l-.147-.791M18.996 13.686c-6.71.71-13.625 1.518-20.665 2.43-.238.033-.552.066-.848.289l-.193.152.053.265.394-.078-.397.066a.597.597 0 0 0 .29.41l.384.105.295-.072a.525.525 0 0 0 .254-.317l-.773-.217.269.077-.136-.248-.135.171.27.077-.135-.248.09.165v-.191l-.09.026.09.165v-.191.059l.03-.05-.03-.01v.06l.03-.05-.107.179.196-.033-.089-.146-.107.179.196-.033v-.006l-.006-.03-.394.08.249.314c.045-.045.24-.1.453-.123a894.655 894.655 0 0 1 20.646-2.427l-.084-.8M18.718 11.744c-6.739.18-13.683.548-20.753 1.115-.24.026-.575.039-.883.3l-.145.131.014.217.401-.025-.4.018a.58.58 0 0 0 .276.458c.126.078.25.114.394.115l.308-.082a.51.51 0 0 0 .24-.36l-.794-.121.29.043-.153-.249-.137.206.29.043-.153-.249.109.178v-.212l-.11.034.11.178v-.212.071l.038-.06-.038-.011v.071l.038-.06-.122.191.216-.01-.094-.181-.122.191.216-.01-.003-.03-.4.026.269.298c.01-.027.2-.086.41-.095a391.302 391.302 0 0 1 20.71-1.114l-.022-.803M18.44 9.805c-4.19-.217-8.46-.327-12.789-.327-2.663 0-5.348.042-8.05.126-.245.017-.602.01-.92.311l-.103.106-.011.172-.003.04.003-.04-.002.035c.003.24.153.4.271.475.124.08.249.116.394.117l.322-.093a.505.505 0 0 0 .219-.404l-.804-.02.305.008-.17-.25-.135.242.305.008-.17-.25.128.19v-.234l-.128.043.128.19v-.233.08l.045-.068-.045-.012v.08l.045-.068-.13.2h.225l-.095-.2-.13.2h.225-.274l.272.017.002-.018h-.274l.272.018.002-.024-.4-.026.288.28.098-.04.27-.028c2.694-.085 5.372-.127 8.025-.127 4.317 0 8.573.11 12.747.327l.042-.802M18.16 7.87A187.652 187.652 0 0 0-2.764 6.35h-.055c-.24.009-.599 0-.9.323l-.078.09-.017.142.398.052-.397-.067-.007.09a.567.567 0 0 0 .269.472.72.72 0 0 0 .389.117l.318-.095a.5.5 0 0 0 .21-.407v-.031l-.802.04.182-.009h-.182v.01l.182-.01h-.182.312l-.177-.255-.135.255h.312l-.177-.255.139.199v-.248l-.139.049.139.199v-.248.092l.05-.078-.05-.014v.092l.05-.078-.133.203h.229l-.097-.203-.132.203h.229-.27l.265.045.005-.045h-.27l.265.045.002-.008.004-.032-.398-.052.305.262.003-.002.286-.04.04.001c7.097.123 14.075.634 20.834 1.514l.105-.797M17.88 5.936A152.504 152.504 0 0 0-3.13 3.097l-.158-.006c-.232.006-.57.017-.83.34l-.038.053-.028.087-.004.01-.003.01-.018.137a.564.564 0 0 0 .269.47.706.706 0 0 0 .386.117l.31-.09a.493.493 0 0 0 .21-.4l-.01-.097-.79.143.26-.046h-.265l.005.046.26-.046h-.265.322l-.18-.265-.142.265h.322l-.18-.265.143.209v-.257l-.144.048.144.209v-.257.095l.05-.081-.05-.014v.095l.05-.081-.13.202h.229l-.098-.202-.13.202h.228-.268l.259.069.009-.069h-.268l.259.069-.388-.103.381.123.008-.023-.383-.123.324.24-.039-.03.025.042.014-.013-.039-.03.025.043.198-.028.105.005c7.119.467 14.12 1.417 20.9 2.823l.163-.787M17.598 4.004a131.393 131.393 0 0 0-21.09-4.16l-.235-.014-.387.058a.75.75 0 0 0-.4.304l-.016.024-.023.05-.006.016-.007.015-.03.181a.56.56 0 0 0 .267.469.707.707 0 0 0 .383.115l.301-.089a.48.48 0 0 0 .21-.395l-.02-.14-.775.21.259-.07h-.268l.01.07.258-.07h-.268.328l-.182-.271-.146.27h.328l-.182-.27.147.218V.259l-.147.048.147.218V.259v.1l.056-.086-.056-.014v.1l.056-.086-.134.205h.23L-3.89.273l-.134.205h.23-.264l.25.089.014-.089h-.264l.25.089-.378-.136.366.167.01-.023-.367-.167.338.218-.073-.047.051.072.022-.025-.073-.047.051.072-.003-.005.002.005h.001l-.003-.005.002.005.135-.017.143.01a130.455 130.455 0 0 1 20.963 4.134l.219-.774M17.315 2.074A117.439 117.439 0 0 0-3.86-3.407l-.29-.025a1.078 1.078 0 0 0-.404.073.716.716 0 0 0-.384.363v.001l-.049.221a.566.566 0 0 0 .265.468.69.69 0 0 0 .381.115l.297-.086c.12-.07.215-.25.207-.392l-.031-.18-.758.269.25-.09h-.264l.014.09.25-.09h-.264.333l-.185-.275-.148.276h.333l-.185-.276.151.226v-.276l-.15.05.15.226v-.276.108l.06-.092-.06-.016v.108l.06-.092-.135.205h.232l-.096-.205-.136.205h.232-.261l.24.108.021-.108h-.261l.24.108-.002.001-.1-.045.073.083.027-.038-.1-.045.073.083-.048-.055.033.066.015-.011-.048-.055.033.066.1-.011.163.014A116.391 116.391 0 0 1 17.04 2.83l.274-.757" mask="url(#i)"/>
        </g>
        <path fill="#FFFFFE" d="M139.702 166.906c5.796 1.159 18.835 4.248 25.5 5.843a6.902 6.902 0 0 1 5.098 5.075l1.85 7.544s-33.535-7.872-40.039-9.945l4.088-6.943a3.314 3.314 0 0 1 3.503-1.574"/>
        <g transform="translate(132.096 165.88)">
            <mask id="k" fill="#fff">
                <use xlink:href="#j"/>
            </mask>
            <path fill="#B0C6DD" d="M31.411-.392a206.863 206.863 0 0 1 3.8 22.562l.06.523.488-.195a.805.805 0 0 0 .495-.747l-.062-.305-.736.322.039-.017h-.044l.005.017.039-.017h-.044l-.005.01.025.015-.009-.025-.016.01.025.015-.009-.025.15.374.398-.045A207.772 207.772 0 0 0 32.195-.57l-.784.178M29.454-.595a253.907 253.907 0 0 1 2.43 21.617l.002.02-.002-.018c.017.232.034.482.078.738l.084.478.478-.18h.001c.325-.14.471-.415.482-.722l-.088-.34-.696.4.105-.06h-.123l.018.06.105-.06h-.123.01l-.01-.007v.007h.01l-.01-.007.057.037-.022-.06-.035.023.057.037-.022-.06h.002l-.025.008.142.377.395-.068a7.22 7.22 0 0 1-.069-.659A254.956 254.956 0 0 0 30.248-.719l-.794.124M27.498-.799c.594 7.002.972 14.145 1.141 21.374v.014-.012c.007.232.013.5.077.775l.091.397.42-.105h.007a.696.696 0 0 0 .393-.292.773.773 0 0 0 .134-.43l-.12-.375-.644.481.14-.106h-.179l.04.106.14-.106h-.18.031l-.03-.018v.018h.03l-.03-.018.094.062-.026-.1-.067.038.093.062-.026-.1.104.388-.098-.39-.025.007.098.39.39-.092a3.174 3.174 0 0 1-.054-.614v.002c-.17-7.245-.55-14.406-1.143-21.423l-.801.067M25.544-1.004c.022 2.036.032 4.087.032 6.152 0 4.926-.062 9.927-.182 14.982v.001l-.001.167c0 .196.008.416.073.643l.1.34.371-.06-.003.002a.666.666 0 0 0 .436-.277.747.747 0 0 0 .144-.436l-.163-.414-.572.565.152-.151h-.22l.068.15.152-.15h-.22.055l-.048-.034-.006.034h.054l-.048-.034.12.085-.02-.134-.1.049.12.085-.02-.134h-.004l-.024.005.062.397.386-.114a1.491 1.491 0 0 1-.042-.417l.001-.151v.002c.12-5.062.182-10.069.182-15 0-2.069-.01-4.123-.033-6.161l-.802.008M23.59-1.212a3270.93 3270.93 0 0 1-1.439 20.893l-.014.3c.002.17.014.36.086.555l.1.271.313-.01a.626.626 0 0 0 .476-.26.725.725 0 0 0 .156-.443.554.554 0 0 0-.21-.442l-.492.635.148-.193h-.249l.101.193.148-.193h-.249.07l-.059-.047-.01.047h.07l-.06-.047.14.108-.006-.162-.134.054.14.108-.006-.162-.023.001.012.402.377-.14-.036-.276.01-.24v-.001c.512-7.115.998-14.103 1.441-20.898l-.801-.053M21.64-1.417a907.174 907.174 0 0 0-2.732 20.651l-.027.365c0 .162.017.342.1.528l.095.213.253.027h.01l.043.001a.614.614 0 0 0 .482-.25.716.716 0 0 0 .16-.438.54.54 0 0 0-.262-.469l-.403.696.13-.227h-.269l.139.227.13-.227h-.269.086l-.073-.058-.013.058h.086l-.073-.058.15.117v-.174l-.15.057.15.117v-.174.252l.018-.25-.019-.002v.252l.019-.25-.031.4.04-.4-.023-.002-.04.398.367-.163-.03-.201.02-.268c.851-7.05 1.769-13.954 2.73-20.634l-.795-.114M19.692-1.624a392.741 392.741 0 0 0-4.026 20.411c-.02.119-.042.259-.042.413.002.157.022.336.115.519l.089.17.211.041.106.011a.607.607 0 0 0 .476-.247.71.71 0 0 0 .156-.43.524.524 0 0 0-.316-.486l-.307.743.106-.257h-.286l.18.257.106-.257h-.286.1l-.084-.067-.016.067h.1l-.084-.067.155.121v-.18l-.155.059.155.121v-.18.261l.05-.257-.05-.004v.261l.05-.257-.022-.004-.078.394.355-.187-.022-.145.03-.277a390.798 390.798 0 0 1 4.018-20.37l-.784-.177M17.747-1.83a252.063 252.063 0 0 0-5.323 20.17 2.06 2.06 0 0 0-.057.452c0 .156.025.34.133.519l.078.124.16.053h.002l.005.002.16.025a.597.597 0 0 0 .471-.245.682.682 0 0 0 .154-.423l-.08-.285-.287-.21-.216.775.082-.293-.255.165.173.128.082-.293-.255.165.235-.152h-.281l.046.152.235-.152h-.281.112l-.094-.074-.018.074h.112l-.094-.074.159.125v-.187l-.159.062.159.125v-.187.27l.08-.257-.08-.013v.27l.08-.257-.12.383.127-.382-.023-.008-.126.382.34-.212-.014-.095.04-.279a251.96 251.96 0 0 1 5.305-20.106l-.767-.237M15.803-2.037a189.19 189.19 0 0 0-6.619 19.93 1.83 1.83 0 0 0-.075.483c0 .158.03.35.154.525l.063.086.116.054.005.003.005.002.211.044a.6.6 0 0 0 .468-.24.69.69 0 0 0 .154-.42l-.098-.304-.319-.192-.132.793.052-.304-.246.18.194.124.052-.304-.246.18.233-.172h-.294l.06.173.234-.173h-.294.123l-.101-.081-.022.08h.123l-.101-.08.16.128v-.192l-.16.064.16.128v-.192.27l.107-.248-.107-.022v.27l.107-.248-.158.369.168-.365-.02-.009-.17.365.327-.234.001-.002-.006-.056.047-.272v.001a188.163 188.163 0 0 1 6.59-19.845l-.746-.297M13.862-2.24a153.216 153.216 0 0 0-7.917 19.688c-.045.14-.091.31-.093.51a.814.814 0 0 0 .174.53l.044.055.08.048.007.005.008.003.256.067a.599.599 0 0 0 .464-.237.675.675 0 0 0 .154-.414l-.117-.325-.347-.17-.051.802.02-.309-.232.198.212.11.02-.308-.232.198.23-.196h-.306l.076.196.23-.196h-.306.132l-.11-.089-.022.089h.132l-.11-.089.163.131v-.195l-.163.064.163.131v-.195.271l.133-.238-.133-.033v.271l.133-.238-.195.352.209-.343-.022-.014-.209.345.311-.254-.035.028.045-.013-.01-.015-.035.028.045-.013-.003-.037.054-.265v.002a152.365 152.365 0 0 1 7.876-19.583l-.723-.352M11.922-2.44A131.668 131.668 0 0 0 2.707 17l-.01.024.01-.024a1.523 1.523 0 0 0-.114.539c-.001.16.042.37.196.536l.028.03.055.04.004.001.005.005.297.092a.595.595 0 0 0 .459-.235.656.656 0 0 0 .155-.411l-.13-.337-.361-.15h-.02l.03.803-.01-.302v.302h.01l-.01-.302v.302-.313l-.224.212.224.1v-.312l-.224.212.227-.215h-.316l.089.215.227-.215h-.316.142l-.117-.095-.025.095h.142l-.117-.095.165.134v-.198l-.165.064.165.134v-.198.27l.15-.225-.15-.045v.27l.15-.225-.223.333.233-.327-.022-.014-.233.327.296-.274-.06.056.078-.025-.018-.03-.06.055.078-.025-.001-.02.062-.254a130.845 130.845 0 0 1 9.16-19.323l-.696-.403M9.984-2.64A117.605 117.605 0 0 0-.53 16.556h-.002c-.062.15-.13.333-.134.562a.733.733 0 0 0 .27.586l.012.009-.013-.01.332.117a.593.593 0 0 0 .455-.23.64.64 0 0 0 .156-.408l-.13-.333-.354-.15-.06.003.084.8-.024-.233v.235l.024-.001-.024-.234v.235-.32l-.228.216.228.104v-.32l-.228.216.231-.218h-.322l.09.218.232-.218h-.322.15l-.123-.101-.027.1h.15l-.123-.1.165.134v-.198l-.165.064.165.134v-.198.268l.168-.212-.168-.056v.268l.168-.212H.1l-.067.085.101-.04-.034-.045-.067.085.101-.04h.003l.069-.245-.002.002c2.88-6.66 6.38-13.053 10.444-19.065l-.665-.45" mask="url(#k)"/>
        </g>
        <path fill="#313131" d="M152.074 406.597h10.993v-60.075h-10.993zM190.359 448.277h-65.58c-8.32 0-8.547 6.936-8.566 9.385h-4.7c0-7.336 5.94-13.282 13.267-13.282h65.58c7.327 0 13.268 5.946 13.268 13.282h-4.738v-.437c0-4.742-3.68-8.892-8.418-8.948h-.113"/>
        <path fill="#313131" d="M195.584 461.764a5.412 5.412 0 0 0 5.409 5.415 5.411 5.411 0 0 0 5.408-5.415 5.409 5.409 0 1 0-10.817 0"/>
        <path fill="#313131" d="M194.613 461.434a5.023 5.023 0 0 0 4.68 5.343 5.02 5.02 0 0 0 5.337-4.684 5.024 5.024 0 0 0-4.678-5.343 5.023 5.023 0 0 0-5.339 4.684M109.184 461.764a5.412 5.412 0 0 0 5.408 5.415 5.412 5.412 0 0 0 5.41-5.415 5.41 5.41 0 0 0-5.41-5.413 5.41 5.41 0 0 0-5.408 5.413"/>
        <path fill="#313131" d="M108.213 461.434a5.022 5.022 0 0 0 4.68 5.343 5.021 5.021 0 0 0 5.336-4.684 5.025 5.025 0 0 0-4.679-5.343 5.023 5.023 0 0 0-5.337 4.684M155.175 458.818h5.075v-11.795h-5.075z"/>
        <path fill="#313131" d="M152.682 461.764a5.412 5.412 0 0 0 5.408 5.415 5.411 5.411 0 0 0 5.408-5.415 5.409 5.409 0 1 0-10.816 0"/>
        <path fill="#313131" d="M151.711 461.434a5.022 5.022 0 0 0 4.68 5.343 5.022 5.022 0 0 0 5.336-4.684 5.025 5.025 0 0 0-4.679-5.343 5.022 5.022 0 0 0-5.337 4.684M148.877 447.507h17.514v-42.665h-17.514z"/>
        <path fill="#DF9400" d="M117.756 287.193h24.746c9.97 0 18.05 8.092 18.05 18.072l1.947 25.914h-22.672c-8.273 0-15.35-5.944-16.791-14.098l-5.28-29.888zm-30.278-92.707v116.562c0 21.525 17.43 38.973 38.932 38.973h76.113c5.4 0 9.777-4.38 9.777-9.785s-4.377-9.786-9.777-9.786h-15.5c-8.183 0-14.816-6.642-14.816-14.833v-17.98c0-14.306-11.584-25.904-25.875-25.904h-18.35c-9.006 0-16.306-7.308-16.306-16.323v-60.924c0-6.689-5.417-12.113-12.098-12.113-6.682 0-12.1 5.424-12.1 12.113z"/>
        <path fill="#F8E5BE" d="M312.39 151.88c2.462-.949 17.608 6.444 21.204 8.339 3.598 1.895 49.025 23.914 49.025 23.914l47.107-28.04-4.119 37.633c-9.052 3.395-40.69 10.495-41.92 10.37-16.356-1.668-54.448-23.786-59.18-28.715-4.734-4.927-2.84-12.13-5.68-14.594-2.84-2.463-8.899-7.96-6.438-8.907M485.409 245.088s12.525 6.651 4.068 63.197c-8.458 56.548-1.884 70.155-5.471 92.23-3.59 22.075-8.122 50.801-8.122 50.801s-6.947 4.535-16.613 0c0 0-4.301-65.89-6.306-86.342-2.72-27.767 3.007-73.924 3.007-73.924s-4.25-.606-5.157-.606c-.905 0 0 55.944 0 66.225 0 10.28 5.133 75.899 3.624 93.74 0 0-7.417 3.932-16.545.302 0 0-13.861-66.804-15.372-82.529-1.51-15.724-3.118-82.575.355-104.347 3.472-21.772 7.7-23.936 7.7-23.936l54.832 5.189"/>
        <path fill="#313131" d="M441.92 316.139c-3.198-12.453-6.911-32.3 0-28.798 6.91 3.502 8.895 3.103 8.895 3.103-.905 0 0 55.942 0 66.225 0 5.468 1.451 26.579 2.584 47.836l1.04 45.903s-8.933-70.832-9.961-86.789c-1.027-15.956.639-35.027-2.558-47.48" opacity=".1"/>
        <path fill="#313131" d="M424.31 465.16c5.989 2.718 13.059 1.803 17.147.876 1.701-.386 3.31-1.207 4.453-2.527 2.502-2.881 7.052-4.157 10.146-4.71v-.003c.052.143.1.288.158.428 2.155 5.154 1.116 7.43.584 10.878-.53 3.447-14.215-.44-21.528 1.906-7.312 2.349-7.823 3.592-20.53 2.55-11.11-.913-.082-5.286 9.57-9.399"/>
        <path fill="#F8E5BE" d="M445.91 463.509c-.932 1.076-2.073 1.934-3.452 2.286-3.843.98-11.635 2.32-18.148-.636 1.384-.59 2.74-1.175 4-1.744 11.834-2.708 9.994-11.739 8.634-17.831 3.866-3.89 14.255-2.253 16.962-1.813.078 1.927.798 7.112 1.008 9.087.109 1.922.424 4.04 1.143 5.941h-.001c-3.094.553-7.644 1.829-10.146 4.71"/>
        <path fill="#313131" d="M445.76 467.1c5.988 2.717 13.058 1.803 17.146.875 1.702-.385 3.31-1.207 4.454-2.526 2.503-2.883 7.053-4.156 10.147-4.71l-.002-.004c.055.143.101.291.159.43 2.154 5.151 1.115 7.43.585 10.876-.53 3.448-14.215-.439-21.528 1.908-7.312 2.348-7.824 3.591-20.53 2.548-11.11-.911-.082-5.283 9.57-9.397"/>
        <path fill="#F8E5BE" d="M467.36 465.449c-.932 1.076-2.074 1.936-3.45 2.286-3.846.98-11.638 2.32-18.15-.635a224.14 224.14 0 0 0 4.002-1.744c11.833-2.707 9.57-22.843 8.21-28.935 3.867-3.887 14.678 8.848 17.383 9.292.078 1.923.8 7.11 1.01 9.086.107 1.92.425 4.038 1.142 5.94-3.094.554-7.644 1.827-10.147 4.71"/>
        <path fill="#313131" d="M479.12 139.97c-.042.51-.148 1.11-.61 1.328-.748.353-1.397-.612-2.106-1.04-.972-.582-2.228-.108-3.181.5-.955.608-1.915 1.379-3.048 1.385-1.277.01-2.397-.973-3.674-1.006-2.022-.051-3.475 2.216-5.493 2.358-2.148.15-3.97-2.174-6.094-1.81-1.403.242-2.42 1.61-3.83 1.82-2.08.31-4.114-2.016-6.046-1.178-.517.223-.93.654-1.464.833-1.305.436-2.565-.758-3.922-.984-1.358-.226-2.655.536-3.945 1.02-1.288.484-3.007.575-3.78-.567-.435-.643-.42-1.48-.385-2.256l.38-9.081c.096-2.226.189-4.45.282-6.675.206-4.845.42-9.76 1.917-14.37 1.495-4.612 4.458-8.965 8.837-11.036 3.699-1.75 7.958-1.711 12.05-1.638 3.347.06 6.76.13 9.931 1.205 3.956 1.341 7.226 4.135 10.388 6.868 2.234 1.928 3.538 2.971 3.793 5.924.278 3.216.45 6.443.538 9.668.168 6.248-.01 12.505-.538 18.733"/>
        <path fill="#F8E5BE" d="M436.154 152.464l8.322-1.438a3.218 3.218 0 0 1 1.565.12l1.42-10.529 15.49-5.352 5.199 15.784 8.193 1.415c1.34.232 1.862 1.88.9 2.842l-20.995 20.963-20.993-20.963c-.963-.963-.442-2.61.899-2.842"/>
        <path fill="#313131" d="M414.264 341.909c-1.862-.137-4.158-.897-6.614-1.914-.025-2.886-.086-34.893 8.702-66.51 9.215-33.144 18.408-42.678 18.408-42.678s24.592-35.639 45.58-7.198c20.987 28.443 27.382 135.002 18.229 134.181-22.672 4.54-32.437-5.522-35.55-7.353-6.525-3.84-16.115 5.43-24.12 4.404-4.733-.609-8.474-5.787-12.387-8.522-3.604-2.515-7.864-4.088-12.248-4.41"/>
        <path fill="#313131" d="M447.461 140.617l-1.38 10.24c2.103.758 9.485-2.172 11.455-3.881 2.614-2.263 2.877-3.554 7.862-4.286l-2.447-7.425-15.49 5.352" opacity=".1"/>
        <path fill="#F8E5BE" d="M454.679 143.764c-8.952.033-16.302-7.274-16.335-16.236l-.06-16.724c-.032-8.96 7.267-16.32 16.22-16.352 8.951-.033 16.301 7.274 16.334 16.237l.06 16.722c.03 8.962-7.267 16.322-16.22 16.353"/>
        <path fill="#F8E5BE" d="M441.312 119.156s-5.158-5.342-10.715-1.892c-5.556 3.45.475 12.863 10.76 14.114 10.284 1.248-.045-12.222-.045-12.222M468.449 119.06s5.12-5.38 10.699-1.97c5.581 3.411-.383 12.867-10.657 14.19-10.276 1.323-.042-12.22-.042-12.22"/>
        <path fill="#313131" d="M450.348 101.57c.18-.588 3.07 4.613 10.75 8.714 7.679 4.1 9.8 6.933 9.8 6.933s4.457-2.202 8.25-.126c0 0 2.596-23.723-15.234-27.993-17.833-4.27-21.482 5.127-25.63 7.519-4.148 2.392-5.702 19.76-5.702 19.76s2.98-1.348 7.386 1.66c0 0-.373-5.621.235-9.722.611-4.1 4.861 10.571 10.145-6.744"/>
        <path fill="#DF5432" d="M419.76 166l.16-.12c-.594-.777-.16.12-.16.12"/>
        <path fill="#DF9400" d="M472.658 152.147s17.682-.618 29.067 15.614c0 0-20.998 6.92-20.438 22.88.563 15.96 1.55 33.105 1.624 36.276.074 3.17-19.393 9.847-48.151 3.89 0 0-1.434-16.176-3.836-22.487-2.402-6.312-11.15-11.917-7.848-24.952 1.926-7.606-1.327-10.016-4.37-10.705-2.163-.489-3.422-2.748-2.512-4.771 2.668-5.937 8.696-15.428 19.96-15.428 0 0 12.088 14.2 18.363 14.696 9.192.726 18.141-15.013 18.141-15.013"/>
        <path fill="#F8E5BE" d="M420.581 247.886c2.823-1.67 2.6-1.408.09-5.37-2.51-3.964 2.278-2.138 6.993 1.899 2.852 2.442 7.561 2.316 11.946 1.48 2.862-.546 5.588-1.39 7.565-2.027 5.007-1.615 21.303-2.645 25.573-26.226 1.056-5.825 1.778-11.71 2.267-17.272.52-4.63.617-19.568 5.66-23.83 6.45-5.453 20.988-5.636 21.763-5.875.754 2.308 3.955 57.303-15.819 80.641-5.892 6.954-41.183 12.46-60.861 10.528a57.656 57.656 0 0 1-3.122-.385s-8.15-1.076-13.616-8.48c-5.466-7.402 8.74-3.415 11.561-5.083"/>
        <path fill="#DF9400" d="M506.813 183.804c.355 1.372-1.059 2.497-2.33 1.877-2.554-1.244-6.364-2.487-10.573-1.766-7.572 1.299-18.762 14.752-18.762 14.752s-5.271-16.191-.415-27.316c.797-1.829 1.724-3.663 3.214-4.988 2.285-2.033 5.513-2.551 8.56-2.782 5.511-.414 9.833-3.068 13.37 1.933 2.984 4.215 5.599 13.148 6.936 18.29M434.254 101.38a1.764 1.764 0 0 0 .144 2.365c1.018.985 1.95 2.063 2.877 3.136l1.93 2.235c.517.6 1.432.66 2.015.124l.078-.074a1.591 1.591 0 0 0 .023-2.32 68.877 68.877 0 0 1-5.31-5.75c-.425-.517-1.228-.499-1.59.062l-.167.223M442.024 93.298a2.121 2.121 0 0 0 .172 2.845c1.227 1.189 2.347 2.484 3.462 3.775l2.321 2.69a1.695 1.695 0 0 0 2.427.148l.095-.09a1.916 1.916 0 0 0 .028-2.791 83.124 83.124 0 0 1-6.392-6.921c-.512-.62-1.476-.598-1.913.076l-.2.268"/>
        <path fill="#7E5B14" d="M262.985 283.955c2.554 38.824 4.993 146.476-6.33 194.343-.771 3.265-5.542 2.844-5.737-.506-1.86-32.009-3.525-132.518 6.292-194.064.548-3.442 5.548-3.249 5.775.227M393.908 283.955c-2.554 38.824-4.993 146.476 6.33 194.343.773 3.265 5.542 2.844 5.736-.506 1.86-32.009 3.525-132.518-6.29-194.064-.55-3.442-5.549-3.249-5.776.227"/>
        <path fill="#DF9400" d="M213.478 286.694h230.548v-.524c0-5.685-4.602-10.294-10.282-10.294H223.763c-5.681 0-10.285 4.61-10.285 10.294v.524"/>
        <path fill="#313131" d="M332.684 193.236l-3.325-.038a6.832 6.832 0 0 0-6.62 4.882l-20.935 70.188h-75.252a6.834 6.834 0 0 0-6.83 6.839v.612h90.639l22.323-82.483"/>
        <g fill-rule="nonzero" transform="rotate(-29 450.26 -460)">
            <path fill="#84BF56" d="M49.778 30.523c0 1.204-1.394 2.18-3.111 2.18H3.11c-1.717 0-3.111-.976-3.111-2.18V2.18C0 .977 1.394 0 3.111 0h43.556c1.717 0 3.11.977 3.11 2.18v28.343z"/>
            <path fill="#000" d="M46.667 31.146H3.11A3.114 3.114 0 0 1 0 28.032v1.557a3.114 3.114 0 0 0 3.111 3.115h43.556a3.114 3.114 0 0 0 3.11-3.115v-1.557a3.114 3.114 0 0 1-3.11 3.114z" opacity=".15"/>
            <ellipse cx="24.889" cy="14.794" fill="#FFF" rx="12.444" ry="8.565"/>
            <path fill="#000" d="M46.667 6.23a3.114 3.114 0 0 1-3.111-3.115V1.557H6.222v1.558a3.114 3.114 0 0 1-3.11 3.114H1.555v17.13H3.11a3.114 3.114 0 0 1 3.111 3.115v1.558h37.334v-1.558a3.114 3.114 0 0 1 3.11-3.114h1.556V6.23h-1.555zm0 15.572A4.671 4.671 0 0 0 42 26.474H7.778a4.671 4.671 0 0 0-4.667-4.672V7.787a4.671 4.671 0 0 0 4.667-4.672H42a4.671 4.671 0 0 0 4.667 4.672v14.015z" opacity=".15"/>
            <path fill="#84BF56" d="M22.827 14.644h.915v-4.277H26.1c.438 0 .837.052 1.198.155.36.102.67.259.927.469.258.21.46.476.606.797.146.322.219.707.219 1.153 0 .447-.078.836-.232 1.167-.155.33-.365.605-.631.824a2.65 2.65 0 0 1-.94.49c-.362.107-.752.16-1.173.16h-1.301v1.354h2.074v.885h-2.074v1.89h-1.03v-1.89h-.916v-.885h.915v-1.354h-.915v-.938zm3.273 0c.592 0 1.058-.14 1.397-.422.34-.282.51-.709.51-1.28 0-.573-.17-.988-.51-1.247-.339-.26-.805-.39-1.397-.39h-1.327v3.339H26.1z"/>
        </g>
    </g>
</svg>
