<svg xmlns="http://www.w3.org/2000/svg" width="19" height="19" viewBox="0 0 19 19">
    <g fill="none" fill-rule="nonzero">
        <path fill="#A41212" d="M9.99 0v2C14.052 2 17 4.943 17 8.999h2C19 3.869 15.127 0 9.99 0z"/>
        <path fill="#313131" d="M7.414 6.707L2 1.293l-.701.701-1 1a.991.991 0 0 0-.291.649c-.015.25-.302 6.172 4.291 10.766 4.006 4.006 9.024 4.299 10.406 4.299.202 0 .326-.006.358-.008a.994.994 0 0 0 .649-.291l1-1 .697-.697-5.414-5.414-.697.697-1.66 1.66c-.577-.109-1.734-.471-2.926-1.66-1.193-1.193-1.553-2.354-1.661-2.926l1.661-1.66.702-.702z"/>
        <path fill="#D10808" d="M13 9h2c0-3.225-1.775-5-5-5v2c2.103 0 3 .897 3 3z"/>
    </g>
</svg>
