<svg xmlns="http://www.w3.org/2000/svg" width="21" height="24" viewBox="0 0 21 24">
    <g fill="none" fill-rule="evenodd">
        <path d="M5.793 15.6c0-1.324 1.039-2.4 2.316-2.4h4.631c1.277 0 2.316 1.076 2.316 2.4v6h3.475l-.001-10.303-8.105-8.4-8.106 8.4V21.6h3.474v-6z"/>
        <path d="M8.109 15.6h4.631v6H8.11z"/>
        <path fill="#D30000" fill-rule="nonzero" d="M2.32 24h16.21c1.277 0 2.316-1.076 2.316-2.4V10.8a1.22 1.22 0 0 0-.34-.848l-9.263-9.6a1.128 1.128 0 0 0-1.637 0l-9.263 9.6a1.22 1.22 0 0 0-.34.848v10.8c0 1.324 1.04 2.4 2.316 2.4zm5.789-2.4v-6h4.631v6H8.11zm-5.79-10.303l8.106-8.4 8.105 8.4V21.6h-3.474v-6c0-1.324-1.039-2.4-2.316-2.4H8.11c-1.277 0-2.316 1.076-2.316 2.4v6H2.319V11.297z"/>
    </g>
</svg>
