<svg xmlns="http://www.w3.org/2000/svg" width="22" height="24" viewBox="0 0 22 24">
    <g fill="#D30000" fill-rule="nonzero">
        <path d="M19.2 0h-12a2.402 2.402 0 0 0-2.4 2.4v7.2H2.4A2.402 2.402 0 0 0 0 12v10.8A1.2 1.2 0 0 0 1.2 24h19.2a1.2 1.2 0 0 0 1.2-1.2V2.4c0-1.324-1.076-2.4-2.4-2.4zM2.4 12h7.2v9.6H2.4V12zm16.8 9.6H12V12c0-1.324-1.076-2.4-2.4-2.4H7.2V2.4h12v19.2z"/>
        <path d="M9.6 4.8H12v2.4H9.6V4.8zm4.8 0h2.4v2.4h-2.4V4.8zm0 4.837h2.4V12h-2.4V9.637zm0 4.763h2.4v2.4h-2.4v-2.4zm-9.6.001h2.4v2.4H4.8v-2.4z" opacity=".5"/>
    </g>
</svg>
