<svg xmlns="http://www.w3.org/2000/svg" xmlns:xlink="http://www.w3.org/1999/xlink"><defs><rect id="flag-russia-a" width="26" height="18" rx="2"/></defs><symbol id="arrow-right" viewBox="0 0 8 12"><path fill="#D10808" stroke="#E5ECFE" stroke-width=".5" d="M2.805 1.291c.384.376 4.14 4.318 4.14 4.318a1.007 1.007 0 010 1.45c0-.001-3.756 3.943-4.14 4.316-.385.375-1.076.401-1.485 0-.41-.399-.443-.957 0-1.447l3.445-3.594L1.32 2.741c-.443-.49-.41-1.05 0-1.45.409-.4 1.1-.376 1.485 0z"/></symbol><symbol id="bx-log-in" viewBox="0 0 15 15"><g fill="#FFF"><path d="M7.5 10.833L11.667 7.5 7.5 4.167v2.5H0v1.666h7.5z"/><path d="M13.333 0h-7.5c-.919 0-1.666.748-1.666 1.667V5h1.666V1.667h7.5v11.666h-7.5V10H4.167v3.333c0 .92.747 1.667 1.666 1.667h7.5c.92 0 1.667-.748 1.667-1.667V1.667C15 .747 14.252 0 13.333 0z"/></g></symbol><symbol id="bxs-phone-call" viewBox="0 0 19 19"><g fill="none"><path fill="#A41212" d="M9.99 0v2C14.052 2 17 4.943 17 8.999h2C19 3.869 15.127 0 9.99 0z"/><path fill="#313131" d="M7.414 6.707L2 1.293l-.701.701-1 1a.991.991 0 00-.291.649c-.015.25-.302 6.172 4.291 10.766 4.006 4.006 9.024 4.299 10.406 4.299.202 0 .326-.006.358-.008a.994.994 0 00.649-.291l1-1 .697-.697-5.414-5.414-.697.697-1.66 1.66c-.577-.109-1.734-.471-2.926-1.66-1.193-1.193-1.553-2.354-1.661-2.926l1.661-1.66.702-.702z"/><path fill="#D10808" d="M13 9h2c0-3.225-1.775-5-5-5v2c2.103 0 3 .897 3 3z"/></g></symbol><symbol id="flag-russia" viewBox="0 0 26 18"><g fill="none" fill-rule="evenodd"><mask id="flag-russia-b" fill="#fff"><use xlink:href="#flag-russia-a"/></mask><use fill="#D8D8D8" xlink:href="#flag-russia-a"/><g fill-rule="nonzero" mask="url(#flag-russia-b)"><path fill="#EAEAEA" d="M-1 0h28v6H-1z"/><path fill="#469FCC" d="M-1 6h28v6H-1z"/><path fill="#EF4D4D" d="M-1 12h28v6H-1z"/></g></g></symbol><symbol id="home-alt" viewBox="0 0 21 24"><g fill="none" fill-rule="evenodd"><path d="M5.793 15.6c0-1.324 1.039-2.4 2.316-2.4h4.631c1.277 0 2.316 1.076 2.316 2.4v6h3.475l-.001-10.303-8.105-8.4-8.106 8.4V21.6h3.474v-6z"/><path d="M8.109 15.6h4.631v6H8.11z"/><path fill="#D30000" fill-rule="nonzero" d="M2.32 24h16.21c1.277 0 2.316-1.076 2.316-2.4V10.8a1.22 1.22 0 00-.34-.848l-9.263-9.6a1.128 1.128 0 00-1.637 0l-9.263 9.6a1.22 1.22 0 00-.34.848v10.8c0 1.324 1.04 2.4 2.316 2.4zm5.789-2.4v-6h4.631v6H8.11zm-5.79-10.303l8.106-8.4 8.105 8.4V21.6h-3.474v-6c0-1.324-1.039-2.4-2.316-2.4H8.11c-1.277 0-2.316 1.076-2.316 2.4v6H2.319V11.297z"/></g></symbol><symbol id="home" viewBox="0 0 22 24"><g fill="#D30000"><path d="M19.2 0h-12a2.402 2.402 0 00-2.4 2.4v7.2H2.4A2.402 2.402 0 000 12v10.8A1.2 1.2 0 001.2 24h19.2a1.2 1.2 0 001.2-1.2V2.4c0-1.324-1.076-2.4-2.4-2.4zM2.4 12h7.2v9.6H2.4V12zm16.8 9.6H12V12c0-1.324-1.076-2.4-2.4-2.4H7.2V2.4h12v19.2z"/><path d="M9.6 4.8H12v2.4H9.6V4.8zm4.8 0h2.4v2.4h-2.4V4.8zm0 4.837h2.4V12h-2.4V9.637zm0 4.763h2.4v2.4h-2.4v-2.4zm-9.6.001h2.4v2.4H4.8v-2.4z" opacity=".5"/></g></symbol><symbol id="ldquo" viewBox="0 0 22 16"><path fill="#DF9400" fill-rule="evenodd" d="M14.78 15.37v-1.085c1.562-1.758 2.343-3.701 2.343-5.83 0-.195-.02-.42-.059-.674-.957-.117-1.709-.488-2.255-1.113-.547-.625-.82-1.426-.82-2.402 0-1.055.326-1.92.98-2.593.655-.674 1.49-1.01 2.506-1.01 1.25 0 2.26.522 3.032 1.566.771 1.045 1.157 2.417 1.157 4.117 0 2.11-.625 3.984-1.875 5.625-1.25 1.64-2.92 2.773-5.01 3.398zm-13.565.058v-1.201c1.64-1.68 2.46-3.565 2.46-5.655 0-.039-.009-.117-.029-.234a4.296 4.296 0 01-.029-.469c-.937-.098-1.684-.454-2.241-1.07C.819 6.186.541 5.419.541 4.5c0-1.172.322-2.114.967-2.827C2.152.96 3.012.603 4.086.603c1.25 0 2.256.538 3.018 1.612.761 1.074 1.142 2.49 1.142 4.248a8.8 8.8 0 01-.776 3.618 9.362 9.362 0 01-2.212 3.076c-.957.889-2.305 1.646-4.043 2.27z"/></symbol><symbol id="rdquo" viewBox="0 0 22 15"><path fill="#DF9400" fill-rule="evenodd" d="M20.58 0v1.201c-.703.469-1.27 1.167-1.7 2.095a6.923 6.923 0 00-.644 2.944c0 .508.04.987.118 1.436.917.058 1.65.395 2.197 1.01.547.616.82 1.402.82 2.359 0 .976-.337 1.797-1.01 2.46-.674.665-1.52.997-2.535.997-1.27 0-2.3-.518-3.09-1.553-.792-1.035-1.187-2.373-1.187-4.013 0-1.31.278-2.579.835-3.809.556-1.23 1.303-2.231 2.241-3.003.938-.771 2.256-1.48 3.955-2.124zM4.848 7.676h.263c.723 0 1.363.342 1.92 1.025.556.684.834 1.465.834 2.344 0 .976-.322 1.797-.967 2.46-.644.665-1.445.997-2.402.997-1.23 0-2.256-.547-3.076-1.64C.6 11.767.19 10.4.19 8.76c0-2.07.61-3.882 1.83-5.435C3.242 1.772 4.927.665 7.075 0v1.26C5.512 2.51 4.73 4.15 4.73 6.182l.118 1.494z"/></symbol></svg>