<svg xmlns="http://www.w3.org/2000/svg" width="22" height="16" viewBox="0 0 22 16">
    <path fill="#DF9400" fill-rule="evenodd" d="M14.78 15.37v-1.085c1.562-1.758 2.343-3.701 2.343-5.83 0-.195-.02-.42-.059-.674-.957-.117-1.709-.488-2.255-1.113-.547-.625-.82-1.426-.82-2.402 0-1.055.326-1.92.98-2.593.655-.674 1.49-1.01 2.506-1.01 1.25 0 2.26.522 3.032 1.566.771 1.045 1.157 2.417 1.157 4.117 0 2.11-.625 3.984-1.875 5.625-1.25 1.64-2.92 2.773-5.01 3.398zm-13.565.058v-1.201c1.64-1.68 2.46-3.565 2.46-5.655 0-.039-.009-.117-.029-.234a4.296 4.296 0 0 1-.029-.469c-.937-.098-1.684-.454-2.241-1.07C.819 6.186.541 5.419.541 4.5c0-1.172.322-2.114.967-2.827C2.152.96 3.012.603 4.086.603c1.25 0 2.256.538 3.018 1.612.761 1.074 1.142 2.49 1.142 4.248a8.8 8.8 0 0 1-.776 3.618 9.362 9.362 0 0 1-2.212 3.076c-.957.889-2.305 1.646-4.043 2.27z"/>
</svg>
