<svg xmlns="http://www.w3.org/2000/svg" width="22" height="15" viewBox="0 0 22 15">
    <path fill="#DF9400" fill-rule="evenodd" d="M20.58 0v1.201c-.703.469-1.27 1.167-1.7 2.095a6.923 6.923 0 0 0-.644 2.944c0 .508.04.987.118 1.436.917.058 1.65.395 2.197 1.01.547.616.82 1.402.82 2.359 0 .976-.337 1.797-1.01 2.46-.674.665-1.52.997-2.535.997-1.27 0-2.3-.518-3.09-1.553-.792-1.035-1.187-2.373-1.187-4.013 0-1.31.278-2.579.835-3.809.556-1.23 1.303-2.231 2.241-3.003.938-.771 2.256-1.48 3.955-2.124zM4.848 7.676h.263c.723 0 1.363.342 1.92 1.025.556.684.834 1.465.834 2.344 0 .976-.322 1.797-.967 2.46-.644.665-1.445.997-2.402.997-1.23 0-2.256-.547-3.076-1.64C.6 11.767.19 10.4.19 8.76c0-2.07.61-3.882 1.83-5.435C3.242 1.772 4.927.665 7.075 0v1.26C5.512 2.51 4.73 4.15 4.73 6.182l.118 1.494z"/>
</svg>
