<svg xmlns="http://www.w3.org/2000/svg" width="240" height="50" viewBox="0 0 240 50">
    <defs>
        <linearGradient id="a" x1="50%" x2="50%" y1="0%" y2="99.008%">
            <stop offset="0%" stop-color="#D10808"/>
            <stop offset="100%" stop-color="#A41212"/>
        </linearGradient>
    </defs>
    <g fill="none" fill-rule="evenodd">
        <path fill="url(#a)" d="M187.223 19.098c0-.258-.126-.587-.364-.992-.237-.399-.748-.602-1.524-.602s-1.538.413-2.272 1.245c-1.776 2.013-2.888 4.894-3.342 8.648-.07.573-.098 1.182-.098 1.825 0 1.237.259 2.104.776 2.6.3.301.678.448 1.126.448.832 0 1.594-.328 2.272-.993.685-.664 1.154-1.566 1.412-2.712l2.014-9.467zM23.29 8.111h81.353c-1.15-.149-1.972-.624-2.468-1.429-.223-.379-.327-.75-.327-1.107v-.617c.014-.736.364-1.427 1.055-2.074.691-.647 1.59-1.182 2.706-1.605C107.832.424 110.404 0 113.31 0c2.914 0 5.471.223 7.679.669l-1.603 7.442h120.361l-1.961 3.221H127.068c.115.098.227.198.336.3 1.85 1.755 2.772 3.896 2.772 6.438 0 3.702-1.353 6.86-4.058 9.485-2.706 2.624-6.251 3.932-10.615 3.932h-1.07l-.981 4.594h-6.423l.982-4.594c-3.606-.06-6.281-1.004-8.05-2.847-1.762-1.836-2.647-3.977-2.647-6.422 0-2.446.417-4.46 1.242-6.043 1.06-1.992 2.632-3.606 4.716-4.843H21.33l1.961-3.221zm83.037 0h6.688l1.328-6.282c-4.312.304-6.935 1.167-7.88 2.586-.334.498-.505 1.07-.505 1.725a5.7 5.7 0 0 0 .37 1.97zm14.495 3.221h-2.1l-3.83 18.066h.26c1.39 0 2.654-.35 3.784-1.048a9.645 9.645 0 0 0 2.877-2.72c1.658-2.327 2.483-4.95 2.483-7.887 0-3.189-1.158-5.325-3.474-6.41zm-8.529 0h-2.293c-1.796.64-3.224 1.623-4.28 2.947-1.494 1.873-2.245 4.594-2.245 8.147 0 1.828.454 3.42 1.368 4.772.907 1.345 2.111 2.081 3.62 2.2l3.83-18.066zM20.717 24.26c0-3.827-1.475-5.736-4.432-5.736-.76 0-1.498.155-2.228.458l-3.687 17.1H3.664L10.37 4.97c-1.956.061-3.454.806-4.486 2.227-1.04 1.428-1.56 3.896-1.56 7.413 0 1.234.186 2.18.566 2.848a.695.695 0 0 1 .093.319c-2.515 0-4.075-.8-4.665-2.391C.108 14.813 0 13.92 0 12.725c0-1.196.287-2.523.87-3.982.574-1.452 1.49-2.74 2.747-3.866 2.787-2.484 6.877-3.726 12.256-3.726.474 0 1.056.031 1.755.093l2.274.179c2.243.202 4.06.295 5.457.295 1.397 0 2.678-.186 3.842-.567l-.342 1.685c-.287 1.482-.916 2.592-1.886 3.322-.543.388-1.28.59-2.204.59-2.065 0-4.688-.31-7.871-.932l-2.32 10.797c1.862-.559 3.453-.838 4.773-.838 2.577 0 4.533.784 5.86 2.36 1.328 1.583 1.987 3.718 1.987 6.403 0 2.694-.776 5.294-2.344 7.817a10.568 10.568 0 0 1-3.081 3.213c-1.266.87-2.85 1.312-4.759 1.312-1.91 0-3.244-.621-4.005-1.847a3.768 3.768 0 0 1-.543-1.987c0-.722.17-1.498.52-2.33.877 1.119 1.832 1.678 2.856 1.678 1.025 0 1.832-.257 2.422-.769 1.638-1.46 2.453-3.912 2.453-7.366zM79.77 30.55c0 1.147.42 1.72 1.252 1.72 1.475 0 2.594-1.237 3.356-3.705l2.852-13.459h6.04L90.26 29.362a6.09 6.09 0 0 0-.182 1.475c0 .958.573 1.433 1.72 1.433h2.153c-.496 4.915-1.629 8.236-3.405 9.956-.79.776-1.587 1.265-2.398 1.454-.804.189-1.538.287-2.21.287h-4.774c-.965 0-1.608.252-1.923.755-.175.273-.329.692-.447 1.251h-1.846c.671-3.153 1.482-5.222 2.44-6.208a3.842 3.842 0 0 1 1.894-1.126c.742-.188 1.657-.286 2.755-.286h3.272c.587 0 1.126-.014 1.601-.05a2.755 2.755 0 0 0 1.273-.398c.762-.482 1.314-1.58 1.657-3.3-.986 1.014-1.916 1.573-2.79 1.678a9.702 9.702 0 0 1-.937.042c-.986 0-1.818-.328-2.503-.992-.678-.665-1.09-1.658-1.23-2.979-1.636 2.65-3.706 3.971-6.202 3.971-1.258 0-2.32-.398-3.195-1.188-.616-.567-1.013-1.384-1.189-2.45-1.66 2.425-3.803 3.638-6.431 3.638-2.496 0-3.88-1.321-4.16-3.97-1.636 2.649-3.706 3.97-6.202 3.97-1.258 0-2.32-.398-3.195-1.188-.6-.552-.992-1.341-1.175-2.367-1.56 2.37-3.505 3.555-5.837 3.555-1.594 0-2.818-.426-3.67-1.28-.86-.852-1.287-1.852-1.287-2.991 0-1.14.307-3.098.923-5.866l1.845-8.313c-1.405 0-2.475.587-3.209 1.755-.727 1.174-1.342 2.936-1.852 5.285-.504 2.35-.923 4.174-1.245 5.46-.329 1.294-.734 2.37-1.21 3.245-.971 1.803-2.523 2.705-4.649 2.705-1.53 0-2.684-.461-3.454-1.391-.769-.93-1.153-2.104-1.153-3.53 0-1.434.503-2.406 1.51-2.923.315-.16.741-.245 1.272-.245.532 0 1 .203 1.406.601.398.406.601.944.601 1.622 0 .672-.168 1.175-.51 1.497-.343.321-.734.454-1.168.398.014.287.126.58.336.881.21.3.65.447 1.314.447.657 0 1.203-.223 1.63-.678.747-.776 1.348-2.244 1.796-4.397l.615-3.098c1.203-5.844 3.02-9.172 5.453-9.99a7.927 7.927 0 0 1 2.601-.413h6.18l-2.964 13.64c-.181.805-.272 1.392-.272 1.762 0 1.175.566 1.762 1.685 1.762.846 0 1.517-.321 2.027-.972.504-.65 1-1.559 1.496-2.733l2.846-13.459h6.047L58.72 29.362c-.084.44-.126.832-.126 1.188 0 1.147.42 1.72 1.252 1.72 1.475 0 2.594-1.237 3.356-3.705l2.852-13.459h6.04l-3.013 14.256a6.09 6.09 0 0 0-.181 1.475c0 .958.573 1.433 1.72 1.433 1.573 0 2.705-1.237 3.397-3.705l2.846-13.459h6.047l-3.013 14.256c-.084.44-.126.832-.126 1.188zm71.82 3.271c-1.514 1.67-3.36 2.504-5.54 2.504-2.497 0-3.881-1.321-4.16-3.97-1.637 2.649-3.706 3.97-6.202 3.97-1.258 0-2.321-.398-3.195-1.188-.86-.79-1.293-2.07-1.293-3.832 0-.79.111-1.706.328-2.74l2.846-13.459h6.047l-3.013 14.256c-.084.44-.126.832-.126 1.188 0 1.147.42 1.72 1.252 1.72 1.475 0 2.593-1.237 3.355-3.705l2.853-13.459h6.04l-3.013 14.256a6.09 6.09 0 0 0-.182 1.475c0 .958.574 1.433 1.72 1.433 1.564 0 2.692-1.223 3.386-3.662l2.858-13.502h6.047l-1.804 8.397h4.692l1.901-8.397h5.615l-2.217 10.403-.734 3.238c-.189.804-.287 1.39-.287 1.761 0 1.175.56 1.762 1.678 1.762.846 0 1.524-.328 2.028-.986a9.2 9.2 0 0 0 .944-1.517c.002-1.086.1-2.172.286-3.265.19-1.097.483-2.195.881-3.286.874-2.405 2.126-4.39 3.748-5.956 1.622-1.574 3.586-2.356 5.88-2.356 1.202 0 2.069.195 2.6.6.532.406.797.91.797 1.525v.308l.455-2.23h6.04l-3.013 14.255c-.119.475-.182.93-.182 1.35 0 1.202.574 1.803 1.72 1.803 1.482 0 2.611-1.302 3.387-3.913l2.857-13.496h6.047l-1.804 8.397h4.692l1.901-8.397h5.614l-2.216 10.403-.734 3.238c-.189.804-.287 1.39-.287 1.761 0 1.175.56 1.762 1.678 1.762.846 0 1.525-.328 2.028-.986.224-.283.448-.62.67-1.01a13.302 13.302 0 0 1-.013-.605c0-3.209.811-6.306 2.44-9.298 1.224-2.251 2.916-3.873 5.055-4.852a7.883 7.883 0 0 1 3.419-.783c1.957 0 3.279.363 3.978 1.097.692.727 1.042 1.65 1.042 2.755s-.231 1.895-.686 2.356c-.454.462-.957.7-1.503.7a2.48 2.48 0 0 1-1.496-.497c.343-.86.51-1.685.51-2.475 0-1.147-.384-1.72-1.146-1.72-.832 0-1.692.734-2.58 2.21-1.258 2.034-2.132 4.53-2.622 7.473-.14.86-.203 1.636-.203 2.314 0 2.321.84 3.482 2.517 3.482 1.504 0 3.181-.769 5.041-2.314-.81 4.139-3.23 6.208-7.27 6.208-1.958 0-3.525-.517-4.713-1.545-.546-.475-.967-1.09-1.262-1.848-1.54 2.262-3.448 3.393-5.722 3.393-1.616 0-2.84-.42-3.671-1.272-.846-.86-1.266-1.916-1.266-3.174 0-.951.322-2.916.958-5.873h-4.649l-2.146 10.075h-6.041l.478-2.26c-1.514 1.67-3.36 2.504-5.54 2.504-2.468 0-3.845-1.28-4.118-3.852-1.824 2.573-3.964 3.852-6.397 3.852-2.44 0-4.097-1.195-4.97-3.586a7.066 7.066 0 0 1-.038-.105c-1.574 2.46-3.547 3.691-5.92 3.691-1.614 0-2.838-.42-3.67-1.272-.846-.86-1.265-1.916-1.265-3.174 0-.951.321-2.916.957-5.873H159.3l-2.146 10.075h-6.041l.478-2.26z"/>
        <path fill="#57586F" fill-rule="nonzero" d="M98.819 41.164h3.538v5.044h.451v2.348h-.866v-1.322h-3.216v1.322h-.867v-2.348h.437c.213-.519.353-1.12.421-1.804.069-.686.102-1.552.102-2.599v-.641zm.988 1.026c0 1.836-.143 3.176-.43 4.018h1.942V42.19h-1.512zm9.191 5.044v-6.07h3.797v1.026h-2.758v1.347h2.564v1.026h-2.564v1.645h2.858v1.026h-3.897zm10.27 0v-6.07h1.04v2.39h2.02v-2.39h1.038v6.07h-1.039V44.58h-2.02v2.654h-1.038zm10.666 0v-6.07h3.796v1.026h-2.757v1.347h2.564v1.026h-2.564v1.645h2.858v1.026h-3.897zm13.486-6.07v2.585a.502.502 0 0 0 .392-.227c.09-.136.211-.445.368-.93.205-.631.415-1.035.63-1.21.212-.17.566-.256 1.06-.256a5.5 5.5 0 0 0 .15-.005v.907l-.15-.004c-.21 0-.364.031-.462.094a.665.665 0 0 0-.239.283c-.06.128-.15.389-.268.785-.064.21-.132.385-.206.527a1.135 1.135 0 0 1-.39.398c.23.08.421.236.572.47.15.232.315.563.494.991l.7 1.662h-1.218l-.619-1.564a.942.942 0 0 0-.06-.129l-.125-.285c-.13-.29-.236-.475-.32-.556a.427.427 0 0 0-.309-.12v2.654h-1.01V44.58a.442.442 0 0 0-.306.116c-.086.078-.194.263-.322.558a7.357 7.357 0 0 1-.128.286 1.524 1.524 0 0 0-.06.128l-.616 1.566h-1.218l.7-1.662c.172-.411.334-.738.487-.98.153-.24.347-.402.582-.481a1.144 1.144 0 0 1-.39-.397 3.033 3.033 0 0 1-.209-.528 7.108 7.108 0 0 0-.264-.776.657.657 0 0 0-.237-.29c-.1-.063-.262-.096-.486-.096l-.133.004v-.907l.15.005c.502 0 .86.087 1.072.261.21.177.416.58.62 1.205.158.488.28.797.368.931.087.135.217.21.39.226v-2.585h1.01zm8.75 6.07v-6.07h1.04v2.39h2.02v-2.39h1.038v6.07h-1.039V44.58h-2.02v2.654h-1.038zm10.695-6.07h1.039v2.424h1.383c.363 0 .676.06.937.177.262.117.48.326.656.629.174.302.261.65.261 1.042 0 .411-.09.765-.272 1.063-.183.297-.385.493-.608.589-.222.098-.548.146-.976.146h-2.42v-6.07zm1.039 5.044h1.01c.32 0 .545-.019.673-.055a.66.66 0 0 0 .339-.253.774.774 0 0 0 .148-.48c0-.269-.081-.471-.243-.605-.162-.134-.454-.2-.876-.2h-1.051v1.593zm3.831-5.044h1.039v6.07h-1.039v-6.07zm7.606 6.07v-6.07h3.796v1.026h-2.757v1.347h2.564v1.026h-2.564v1.645h2.858v1.026h-3.897zm14.981-4.417l-1.01-.28c.217-.989.835-1.483 1.852-1.483.601 0 1.056.156 1.363.47.307.314.46.682.46 1.106 0 .29-.071.551-.21.786-.14.233-.35.438-.63.616.34.138.595.333.764.586.17.255.255.565.255.937 0 .534-.165.965-.496 1.294-.33.33-.824.495-1.481.495-.536 0-.96-.106-1.27-.318-.31-.212-.544-.609-.7-1.191l.945-.365c.098.366.23.604.392.711.162.109.363.162.602.162.327 0 .566-.083.716-.251a.845.845 0 0 0 .224-.578.774.774 0 0 0-.254-.603c-.168-.153-.424-.23-.764-.23h-.235v-.915h.118c.316 0 .559-.084.726-.253.168-.168.252-.392.252-.67a.812.812 0 0 0-.204-.562c-.136-.15-.331-.227-.584-.227-.433 0-.71.254-.831.763zm13.87 4.417h-1.12l-.442-1.382h-2.057l-.426 1.382h-1.098l1.99-6.07h1.098l2.054 6.07zm-1.899-2.408l-.712-2.247-.693 2.247h1.405zm7.958-3.662h.967v4.04l2.077-4.04h1.032v6.07h-.967v-3.976l-2.077 3.976h-1.032v-6.07zm2.65-1.755h.48c-.027.374-.14.67-.334.883a.976.976 0 0 1-.755.32.977.977 0 0 1-.757-.32c-.195-.213-.307-.509-.335-.883h.48c.017.195.074.343.175.444.1.1.245.15.437.15.19 0 .335-.05.435-.15.1-.1.158-.25.175-.444zm7.963 7.825v-6.07h1.556l.919 4.14.908-4.14h1.56v6.07h-.96l-.004-4.779-1.011 4.779h-.998l-1.006-4.779-.004 4.779h-.96zm11.502-6.07h1.039v2.424h1.384c.362 0 .675.06.937.177.261.117.48.326.655.629.174.302.261.65.261 1.042 0 .411-.09.765-.272 1.063-.182.297-.384.493-.607.589-.222.098-.548.146-.977.146h-2.42v-6.07zm1.039 5.044h1.01c.321 0 .545-.019.673-.055a.66.66 0 0 0 .34-.253.774.774 0 0 0 .147-.48c0-.269-.081-.471-.242-.605-.162-.134-.455-.2-.876-.2h-1.052v1.593zm3.832-5.044h1.038v6.07h-1.038v-6.07z"/>
    </g>
</svg>
